<svg width="38" height="39" viewBox="0 0 38 39" fill="none" xmlns="http://www.w3.org/2000/svg">
<path d="M35.5001 20.6667H30.0001V7.83333C30.0001 7.3471 29.8069 6.88079 29.4631 6.53697C29.1193 6.19315 28.653 6 28.1668 6H2.50008C2.01385 6 1.54754 6.19315 1.20372 6.53697C0.859902 6.88079 0.666748 7.3471 0.666748 7.83333V33.5C0.666748 36.5323 3.13441 39 6.16675 39H31.8334C34.8658 39 37.3334 36.5323 37.3334 33.5V22.5C37.3334 22.0138 37.1403 21.5475 36.7965 21.2036C36.4526 20.8598 35.9863 20.6667 35.5001 20.6667ZM6.16675 35.3333C5.68052 35.3333 5.2142 35.1402 4.87039 34.7964C4.52657 34.4525 4.33342 33.9862 4.33342 33.5V9.66667H26.3334V33.5C26.3334 34.1435 26.4453 34.7613 26.6469 35.3333H6.16675ZM33.6668 33.5C33.6668 33.9862 33.4736 34.4525 33.1298 34.7964C32.786 35.1402 32.3197 35.3333 31.8334 35.3333C31.3472 35.3333 30.8809 35.1402 30.5371 34.7964C30.1932 34.4525 30.0001 33.9862 30.0001 33.5V24.3333H33.6668V33.5Z" fill="#9FB7D3"/>
<path d="M8 13.3347H22.6667V17.0014H8V13.3347ZM8 20.668H22.6667V24.3347H8V20.668ZM17.1667 28.0014H22.6667V31.668H17.1667V28.0014Z" fill="#9FB7D3"/>
<circle cx="27.6842" cy="7.44737" r="6.94737" fill="#29C4A8"/>
<path fill-rule="evenodd" clip-rule="evenodd" d="M31.3368 6.1281L26.8343 10.5623L24.3894 8.15441L25.1643 7.31684L26.8343 8.96158L30.5619 5.29053L31.3368 6.1281Z" fill="white"/>
</svg>
