<svg width="64" height="67" viewBox="0 0 64 67" fill="none" xmlns="http://www.w3.org/2000/svg">
<path d="M60.4987 34.8333H50.9987V12.6667C50.9987 11.8268 50.6651 11.0214 50.0712 10.4275C49.4773 9.83363 48.6719 9.5 47.832 9.5H3.4987C2.65885 9.5 1.85339 9.83363 1.25953 10.4275C0.665661 11.0214 0.332031 11.8268 0.332031 12.6667V57C0.332031 62.2377 4.59436 66.5 9.83203 66.5H54.1654C59.403 66.5 63.6654 62.2377 63.6654 57V38C63.6654 37.1601 63.3317 36.3547 62.7379 35.7608C62.144 35.167 61.3386 34.8333 60.4987 34.8333ZM9.83203 60.1667C8.99218 60.1667 8.18673 59.833 7.59286 59.2392C6.999 58.6453 6.66537 57.8399 6.66537 57V15.8333H44.6654V57C44.6654 58.1115 44.8585 59.1787 45.2069 60.1667H9.83203ZM57.332 57C57.332 57.8399 56.9984 58.6453 56.4045 59.2392C55.8107 59.833 55.0052 60.1667 54.1654 60.1667C53.3255 60.1667 52.5201 59.833 51.9262 59.2392C51.3323 58.6453 50.9987 57.8399 50.9987 57V41.1667H57.332V57Z" fill="#29C4A8"/>
<path d="M13 22.168H38.3333V28.5013H13V22.168ZM13 34.8346H38.3333V41.168H13V34.8346ZM28.8333 47.5013H38.3333V53.8346H28.8333V47.5013Z" fill="#29C4A8"/>
<circle cx="47" cy="12" r="12" fill="#29C4A8"/>
<path fill-rule="evenodd" clip-rule="evenodd" d="M53.3086 9.72405L45.5317 17.3831L41.3086 13.2241L42.6471 11.7773L45.5317 14.6183L51.9701 8.27734L53.3086 9.72405Z" fill="white"/>
</svg>
