<svg width="19" height="21" viewBox="0 0 19 21" fill="none" xmlns="http://www.w3.org/2000/svg">
<path d="M17.86 1.99908C18.41 2.95907 18.08 4.17907 17.12 4.72907L7 10.5791V18.9991C7.26522 18.9991 7.51957 19.1044 7.70711 19.292C7.89464 19.4795 8 19.7339 8 19.9991V20.9991H0V19.9991C0 19.7339 0.105357 19.4795 0.292893 19.292C0.48043 19.1044 0.734784 18.9991 1 18.9991V9.99907C1 9.20342 1.31607 8.44036 1.87868 7.87775C2.44129 7.31514 3.20435 6.99907 4 6.99907C4.31 6.99907 4.62 7.05907 4.92 7.15907L15.12 1.26908C16.09 0.709075 17.31 1.03908 17.86 1.99908ZM5.5 18.9991V12.5991C4.57 13.1391 3.43 13.1391 2.5 12.5991V18.9991H5.5ZM4 11.4991C4.39782 11.4991 4.77936 11.341 5.06066 11.0597C5.34196 10.7784 5.5 10.3969 5.5 9.99907C5.5 9.60125 5.34196 9.21972 5.06066 8.93841C4.77936 8.65711 4.39782 8.49907 4 8.49907C3.60218 8.49907 3.22064 8.65711 2.93934 8.93841C2.65804 9.21972 2.5 9.60125 2.5 9.99907C2.5 10.3969 2.65804 10.7784 2.93934 11.0597C3.22064 11.341 3.60218 11.4991 4 11.4991ZM8.4 8.61907L9.7 7.86907L7.4 6.86907L6.1 7.61907L8.4 8.61907ZM11.86 6.61907L13.16 5.86907L10.86 4.86907L9.56 5.61907L11.86 6.61907ZM15.33 4.61907L16.62 3.86907L14.33 2.86907L13.03 3.61907L15.33 4.61907ZM14 10.1591H16V15.1691L19 15.1591L15 18.9991L11 15.1591L14 15.1691V10.1591Z" fill="#2285E0"/>
</svg>
