<svg width="21" height="21" fill="none" xmlns="http://www.w3.org/2000/svg"><path d="M17.835 13.104A8.001 8.001 0 006.49 3.054l-.992-1.737a9.996 9.996 0 019.962.024c4.49 2.592 6.21 8.142 4.117 12.77l1.342.774-4.165 2.214-.165-4.713 1.246.719zM3.085 6.898a8 8 0 0011.345 10.05l.992 1.738a9.997 9.997 0 01-9.962-.024C.97 16.07-.75 10.52 1.343 5.892L0 5.117l4.165-2.214.165 4.714L3.084 6.9h.001zm8.79 5.931l-2.831-2.828-2.828 2.829-1.414-1.415 4.243-4.242 2.829 2.829 2.829-2.829 1.414 1.414-4.243 4.242h.001z" fill="#29C4A8"/></svg>