<svg width="34" height="30" viewBox="0 0 34 30" fill="none" xmlns="http://www.w3.org/2000/svg">
<path d="M33.9994 19.4492C33.7612 19.9215 33.5112 20.3799 32.975 20.5882C32.8264 20.6459 32.8965 20.798 32.8958 20.9063C32.8924 23.3414 32.8951 25.7764 32.8917 28.2114C32.8903 29.0893 32.4319 29.7158 31.6478 29.9359C31.447 29.9922 31.2415 29.9922 31.0366 29.9922C21.9229 29.9929 12.8093 29.9936 3.69564 29.9922C2.51563 29.9922 1.84888 29.3178 1.84819 28.1385C1.8468 25.725 1.84541 23.3115 1.85236 20.898C1.85305 20.7001 1.79957 20.6014 1.6183 20.5042C1.01059 20.1771 0.741802 19.6388 0.742496 18.9561C0.743191 16.3259 0.742496 13.6964 0.742496 11.0662C0.742496 9.68063 0.741802 8.29574 0.742496 6.91015C0.743885 5.73569 1.41689 5.05505 2.59203 5.05297C4.82148 5.0488 7.05162 5.04672 9.28106 5.05853C9.55193 5.05991 9.62555 4.99116 9.61861 4.72029C9.60194 4.06118 9.61583 3.40068 9.62694 2.74087C9.64986 1.33306 10.8361 0.0676235 12.4516 0.0704016C15.7312 0.0766524 19.0108 0.0599837 22.2903 0.0780415C23.6981 0.0856813 24.7115 0.898978 25.0511 2.22831C25.1622 2.6617 25.1282 3.10967 25.1296 3.55209C25.131 3.95283 25.1455 4.35358 25.124 4.75293C25.1108 4.99671 25.1844 5.05922 25.4282 5.05783C27.225 5.04672 29.0217 5.05019 30.8185 5.05297C31.3699 5.05366 31.9242 5.03769 32.4729 5.08075C33.2236 5.13979 33.7265 5.5822 33.9342 6.29965C33.9467 6.34202 33.9473 6.38369 33.9994 6.3948C33.9994 10.746 33.9994 15.0973 33.9994 19.4492ZM17.3911 6.16422C14.0685 6.16422 10.7458 6.16422 7.42319 6.16422C5.8216 6.16422 4.22001 6.16283 2.61773 6.16491C2.0371 6.16561 1.84958 6.34896 1.84888 6.91292C1.84819 10.9058 1.84819 14.8993 1.84888 18.8922C1.84888 19.3749 2.00932 19.5645 2.48021 19.6298C3.46506 19.7673 4.45129 19.8979 5.43614 20.0333C7.55654 20.325 9.67625 20.6174 11.7967 20.9091C12.8357 21.0522 13.8747 21.1883 14.9123 21.3404C15.1214 21.371 15.1769 21.3182 15.1603 21.1147C15.1436 20.9105 15.1526 20.7035 15.1617 20.4987C15.2006 19.6451 15.8631 18.9665 16.7167 18.9269C17.1487 18.9068 17.5828 18.9068 18.0148 18.9269C18.6371 18.9554 19.0885 19.2672 19.3927 19.8097C19.6053 20.1896 19.599 20.6007 19.5782 21.0098C19.5643 21.2765 19.6011 21.3828 19.9171 21.3363C21.7139 21.0716 23.5134 20.8292 25.3122 20.5813C27.582 20.2681 29.8517 19.9521 32.1228 19.6458C32.7472 19.5617 32.891 19.4207 32.891 18.8019C32.891 14.8848 32.891 10.9669 32.891 7.04975C32.891 6.30174 32.7521 6.16352 31.9999 6.16352C27.1319 6.16422 22.2612 6.16422 17.3911 6.16422ZM17.3689 28.883C18.7322 28.883 20.0963 28.883 21.4597 28.883C24.6524 28.883 27.8452 28.8837 31.038 28.8823C31.5575 28.8823 31.7818 28.7025 31.7832 28.2482C31.7887 25.8347 31.7846 23.4219 31.7894 21.0084C31.7894 20.8501 31.7547 20.8036 31.5908 20.8306C31.0998 20.9098 30.6066 20.9751 30.1142 21.0432C27.8445 21.3564 25.5741 21.6696 23.3037 21.9822C22.1473 22.1412 20.9909 22.3017 19.8331 22.4531C19.6317 22.4795 19.5712 22.5607 19.5796 22.7614C19.5956 23.1608 19.5935 23.5622 19.5789 23.9623C19.5476 24.8297 18.8684 25.5187 18.0065 25.5528C17.5849 25.5694 17.1619 25.5687 16.7403 25.5528C15.8784 25.5201 15.1957 24.8318 15.1637 23.9664C15.1492 23.5664 15.1415 23.165 15.1644 22.7656C15.1776 22.5336 15.0846 22.4753 14.8811 22.4489C13.5955 22.2787 12.3106 22.0989 11.0257 21.9224C8.43443 21.5668 5.84175 21.2161 3.25184 20.8487C3.00181 20.8133 2.94902 20.8487 2.95041 21.1022C2.96083 23.4178 2.95666 25.734 2.95666 28.0496C2.95666 28.7309 3.11015 28.8837 3.79774 28.8837C8.32122 28.883 12.8454 28.883 17.3689 28.883ZM17.3793 1.18235C15.7562 1.18235 14.1331 1.17748 12.5099 1.18374C11.4036 1.1879 10.7389 1.85396 10.7243 2.95965C10.7187 3.38123 10.716 3.80351 10.7257 4.22509C10.7319 4.49179 10.6062 4.83975 10.7778 5.00366C10.9472 5.16548 11.2938 5.02519 11.5591 5.05575C11.805 5.08353 11.8397 4.96893 11.8356 4.75779C11.823 4.15216 11.8258 3.54584 11.8335 2.94021C11.839 2.48598 12.0342 2.29221 12.4926 2.29151C15.7492 2.28873 19.0066 2.28873 22.2632 2.29151C22.7029 2.29221 22.898 2.48737 22.9064 2.92284C22.9147 3.35553 22.9085 3.78823 22.9085 4.22092C22.9085 5.06339 22.9085 5.05297 23.7475 5.05853C23.9905 5.05991 24.0267 4.9731 24.0211 4.76127C24.0072 4.18828 24.0176 3.61459 24.0162 3.04091C24.0128 1.8359 23.3578 1.18304 22.15 1.18235C20.5609 1.18096 18.9705 1.18235 17.3793 1.18235ZM17.3724 5.05158C18.7468 5.05158 20.1206 5.04325 21.4951 5.05853C21.7618 5.0613 21.8187 4.97726 21.8055 4.73418C21.7861 4.37788 21.7882 4.01951 21.8049 3.66391C21.8146 3.45555 21.7576 3.39165 21.5409 3.39443C20.5783 3.40693 19.615 3.39998 18.6517 3.39998C16.8556 3.39998 15.0596 3.40693 13.2635 3.39234C12.9843 3.39026 12.9176 3.46874 12.9364 3.73197C12.9607 4.07646 12.9565 4.42511 12.9371 4.7696C12.9246 4.99324 12.9843 5.05991 13.2177 5.05783C14.6026 5.04602 15.9875 5.05158 17.3724 5.05158ZM16.2653 22.2405C16.2653 22.76 16.2611 23.2796 16.2667 23.7991C16.2708 24.247 16.4743 24.445 16.9279 24.4512C17.2418 24.4554 17.5557 24.4582 17.8696 24.4498C18.2607 24.4394 18.4725 24.2331 18.4746 23.8414C18.4815 22.7698 18.4815 21.6988 18.4746 20.6271C18.4718 20.2382 18.2586 20.0375 17.8634 20.0285C17.5495 20.0215 17.2355 20.0229 16.9216 20.0278C16.4688 20.034 16.2708 20.2306 16.2667 20.6827C16.2618 21.2015 16.2653 21.721 16.2653 22.2405Z" fill="#3E3E3E"/>
</svg>
