<svg width="24" height="18" viewBox="0 0 24 18" fill="none" xmlns="http://www.w3.org/2000/svg">
<path fill-rule="evenodd" clip-rule="evenodd" d="M0 3.92575C0 2.97762 0.376643 2.06833 1.04707 1.3979C1.7175 0.727473 2.62679 0.35083 3.57492 0.35083H20.2579C21.206 0.35083 22.1153 0.727473 22.7858 1.3979C23.4562 2.06833 23.8328 2.97762 23.8328 3.92575V13.4589C23.8328 14.407 23.4562 15.3163 22.7858 15.9867C22.1153 16.6572 21.206 17.0338 20.2579 17.0338H3.57492C2.62679 17.0338 1.7175 16.6572 1.04707 15.9867C0.376643 15.3163 0 14.407 0 13.4589V3.92575ZM3.57492 2.73411H20.2579C20.5739 2.73411 20.877 2.85966 21.1005 3.08314C21.324 3.30661 21.4495 3.60971 21.4495 3.92575V7.50068H2.38328V3.92575C2.38328 3.60971 2.50883 3.30661 2.73231 3.08314C2.95578 2.85966 3.25888 2.73411 3.57492 2.73411ZM2.38328 9.88396V13.4589C2.38328 13.7749 2.50883 14.078 2.73231 14.3015C2.95578 14.525 3.25888 14.6505 3.57492 14.6505H7.14985V9.88396H2.38328ZM9.53313 14.6505H20.2579C20.5739 14.6505 20.877 14.525 21.1005 14.3015C21.324 14.078 21.4495 13.7749 21.4495 13.4589V9.88396H9.53313V14.6505Z" fill="#2285E0"/>
</svg>
