<svg width="24" height="19" viewBox="0 0 24 19" fill="none" xmlns="http://www.w3.org/2000/svg">
<path d="M22.2456 5.56991L17.0278 10.7877L15.4466 9.21872L13.7317 10.9458L17.0156 14.2297L23.9727 7.29701L22.2456 5.56991ZM2.43254 5.2172C2.41756 5.86018 2.53316 6.49953 2.77235 7.09655C3.01154 7.69358 3.36935 8.23589 3.82413 8.69067C4.27892 9.14546 4.82122 9.50327 5.41825 9.74246C6.01528 9.98165 6.65463 10.0972 7.29761 10.0823C7.9406 10.0972 8.57994 9.98165 9.17697 9.74246C9.774 9.50327 10.3163 9.14546 10.7711 8.69067C11.2259 8.23589 11.5837 7.69358 11.8229 7.09655C12.0621 6.49953 12.1777 5.86018 12.1627 5.2172C12.1777 4.57421 12.0621 3.93486 11.8229 3.33784C11.5837 2.74081 11.2259 2.1985 10.7711 1.74372C10.3163 1.28893 9.774 0.931125 9.17697 0.691934C8.57994 0.452744 7.9406 0.337141 7.29761 0.35212C6.65463 0.337141 6.01528 0.452744 5.41825 0.691934C4.82122 0.931125 4.27892 1.28893 3.82413 1.74372C3.36935 2.1985 3.01154 2.74081 2.77235 3.33784C2.53316 3.93486 2.41756 4.57421 2.43254 5.2172ZM9.73015 5.2172C9.74579 5.54078 9.69358 5.86407 9.57687 6.16628C9.46016 6.46849 9.28153 6.74295 9.05245 6.97203C8.82337 7.20111 8.54891 7.37974 8.2467 7.49645C7.94448 7.61317 7.6212 7.66538 7.29761 7.64973C6.97402 7.66538 6.65074 7.61317 6.34853 7.49645C6.04632 7.37974 5.77186 7.20111 5.54278 6.97203C5.3137 6.74295 5.13507 6.46849 5.01835 6.16628C4.90164 5.86407 4.84943 5.54078 4.86508 5.2172C4.84943 4.89361 4.90164 4.57032 5.01835 4.26811C5.13507 3.9659 5.3137 3.69144 5.54278 3.46236C5.77186 3.23328 6.04632 3.05465 6.34853 2.93794C6.65074 2.82123 6.97402 2.76901 7.29761 2.78466C7.6212 2.76901 7.94448 2.82123 8.2467 2.93794C8.54891 3.05465 8.82337 3.23328 9.05245 3.46236C9.28153 3.69144 9.46016 3.9659 9.57687 4.26811C9.69358 4.57032 9.74579 4.89361 9.73015 5.2172ZM2.43254 17.3799C2.43254 16.4122 2.81696 15.4841 3.50125 14.7998C4.18553 14.1155 5.11362 13.7311 6.08134 13.7311H8.51388C9.4816 13.7311 10.4097 14.1155 11.094 14.7998C11.7783 15.4841 12.1627 16.4122 12.1627 17.3799V18.5962H14.5952V17.3799C14.5952 16.5813 14.4379 15.7905 14.1323 15.0527C13.8267 14.3148 13.3787 13.6444 12.814 13.0797C12.2493 12.515 11.5789 12.0671 10.8411 11.7615C10.1033 11.4558 9.3125 11.2985 8.51388 11.2985H6.08134C4.46847 11.2985 2.92166 11.9392 1.78118 13.0797C0.640711 14.2202 0 15.767 0 17.3799V18.5962H2.43254V17.3799Z" fill="#2285E0"/>
</svg>
