<svg width="42" height="40" viewBox="0 0 42 40" fill="none" xmlns="http://www.w3.org/2000/svg">
<path d="M20.9321 0.0592825C26.1591 0.0592825 31.3876 0.0547897 36.6145 0.0607805C39.0063 0.0637759 40.7916 1.25594 41.527 3.31528C41.7172 3.84696 41.8145 4.39362 41.8145 4.95975C41.8145 11.6634 41.8205 18.3656 41.81 25.0693C41.807 27.259 40.4082 29.1371 38.3174 29.7437C37.8636 29.8755 37.8007 30.0761 37.8037 30.479C37.8187 33.1299 37.8097 35.7824 37.8127 38.4333C37.8142 39.0459 37.5895 39.5206 37.0369 39.8157C36.5321 40.0853 36.0319 40.0583 35.5527 39.7528C35.2801 39.579 35.1048 39.3065 34.9086 39.0578C32.6876 36.2467 30.4575 33.443 28.2559 30.6168C27.8844 30.1405 27.4846 29.9488 26.8855 29.9503C19.6411 29.9653 12.3982 29.9638 5.15389 29.9578C2.66322 29.9563 0.765633 28.5395 0.178536 26.266C0.0467386 25.7568 0.0197804 25.2371 0.0197804 24.7129C0.0227758 18.2533 0.0692037 11.7922 0.0003096 5.33268C-0.0296443 2.41366 2.11656 -0.000625852 5.30366 0.0413097C10.5141 0.110204 15.7231 0.0592825 20.9321 0.0592825ZM36.1293 37.8821C36.1293 37.5107 36.1293 37.3085 36.1293 37.1048C36.1293 34.5273 36.1263 31.9498 36.1308 29.3722C36.1323 28.6009 36.3839 28.3373 37.1522 28.2609C38.9135 28.0842 40.1296 26.7797 40.1311 25.0139C40.1386 18.3462 40.1386 11.6784 40.1311 5.01067C40.1296 3.70318 39.532 2.72818 38.3863 2.09615C37.7932 1.76816 37.1417 1.74269 36.4842 1.74269C26.4931 1.74419 16.5004 1.74419 6.5093 1.74419C6.06149 1.74419 5.61218 1.7412 5.16437 1.74419C3.02566 1.76216 1.70918 3.07864 1.70768 5.20986C1.70469 11.3549 1.70619 17.5 1.70768 23.645C1.70768 24.1498 1.6957 24.6545 1.71368 25.1577C1.7631 26.6224 2.75308 27.8416 4.1699 28.1935C4.55481 28.2894 4.9487 28.2759 5.3396 28.2759C12.548 28.2759 19.7579 28.2834 26.9664 28.2684C28.0372 28.2669 28.8774 28.6129 29.5139 29.498C30.0366 30.2244 30.6192 30.9074 31.1749 31.6098C32.7894 33.6556 34.4069 35.7015 36.1293 37.8821Z" fill="#2285E0"/>
<path d="M20.9168 13.8306C25.2122 13.8306 29.5061 13.8306 33.8015 13.8306C34.7016 13.8306 35.1075 14.1046 35.0925 14.6977C35.0775 15.2714 34.6971 15.514 33.8135 15.514C25.2242 15.514 16.6334 15.514 8.04411 15.514C7.15148 15.514 6.73063 15.2339 6.7486 14.6528C6.76507 14.0852 7.16047 13.8306 8.03362 13.8306C12.326 13.8306 16.6214 13.8306 20.9168 13.8306Z" fill="#2285E0"/>
<path d="M20.918 20.2678C25.2134 20.2678 29.5088 20.2678 33.8041 20.2678C33.9914 20.2678 34.1801 20.2558 34.3643 20.2798C34.7881 20.3367 35.0398 20.5973 35.0862 21.0121C35.1326 21.43 34.9319 21.725 34.5365 21.8853C34.3194 21.9736 34.0947 21.9482 33.873 21.9482C25.2448 21.9497 16.6166 21.9497 7.98833 21.9482C7.78464 21.9482 7.57196 21.9557 7.37876 21.9018C6.94742 21.7819 6.71528 21.4689 6.76171 21.0241C6.80664 20.5883 7.07473 20.3157 7.53003 20.2738C7.69627 20.2588 7.86551 20.2663 8.03325 20.2663C12.3272 20.2678 16.6226 20.2678 20.918 20.2678Z" fill="#2285E0"/>
<path d="M20.8599 9.08447C16.5271 9.08447 12.1943 9.08447 7.86144 9.08447C7.60084 9.08447 7.33275 9.10993 7.1081 8.9362C6.83701 8.72652 6.69323 8.45094 6.76063 8.10497C6.83252 7.74253 7.06466 7.5044 7.42561 7.42951C7.6233 7.38907 7.83448 7.40255 8.03966 7.40255C16.6305 7.40106 25.2212 7.40106 33.812 7.40106C33.9049 7.40106 33.9992 7.39956 34.0921 7.40106C34.7301 7.41753 35.1105 7.75302 35.0896 8.28021C35.0701 8.78193 34.7062 9.07998 34.0801 9.08147C29.6754 9.08597 25.2677 9.08447 20.8599 9.08447Z" fill="#2285E0"/>
</svg>
