<svg width="24" height="21" viewBox="0 0 24 21" fill="none" xmlns="http://www.w3.org/2000/svg">
<path d="M11.628 14.7698L9.581 12.6298L16.372 6.67683L17.582 7.97883L11.628 14.7698ZM20.465 20.8168C22.605 18.6768 24 15.6998 24 12.3508C24 5.74683 18.605 0.35083 12 0.35083C5.395 0.35083 0 5.74683 0 12.3508C0 15.7008 1.302 18.6768 3.535 20.8168L5.209 19.1418C3.442 17.3748 2.419 15.0488 2.419 12.3518C2.41703 11.093 2.66348 9.84613 3.14425 8.6827C3.62502 7.51928 4.33064 6.46216 5.22068 5.57193C6.11073 4.6817 7.1677 3.97585 8.33102 3.49485C9.49435 3.01384 10.7412 2.76712 12 2.76883C13.2587 2.76712 14.5053 3.01377 15.6685 3.49465C16.8317 3.97554 17.8886 4.6812 18.7786 5.57122C19.6686 6.46124 20.3743 7.51812 20.8552 8.68132C21.3361 9.84451 21.5827 11.0912 21.581 12.3498C21.581 14.9548 20.465 17.3738 18.791 19.1408L20.465 20.8168Z" fill="#2285E0"/>
</svg>
