<svg width="24" height="22" viewBox="0 0 24 22" fill="none" xmlns="http://www.w3.org/2000/svg">
<path d="M10.9278 19.9402C10.5121 19.9402 10.1747 19.9402 9.78906 19.9402C9.90956 19.8076 9.99994 19.6932 10.1024 19.5907C10.1325 19.5606 10.2108 19.5546 10.247 19.5727C10.4518 19.6751 10.6566 19.7896 10.9278 19.9402Z" fill="white"/>
<path d="M11.9141 11.3037C11.9924 11.147 12.0466 10.9603 12.1551 10.8277C12.4503 10.4722 12.7636 10.1288 13.0829 9.79143C13.3841 9.46608 13.83 9.44801 14.1312 9.72515C14.4264 10.0023 14.4445 10.424 14.1493 10.7554C13.836 11.1169 13.5167 11.4724 13.1853 11.8218C12.9684 12.0508 12.6913 12.105 12.3961 11.9845C12.1249 11.876 11.9623 11.617 11.9141 11.3037Z" fill="#2285E0"/>
<path d="M24.3334 20.8545C24.1527 21.2642 23.8394 21.3968 23.3935 21.3968C15.8022 21.3847 8.21077 21.3908 0.619389 21.3908C0.498891 21.3908 0.378392 21.3968 0.257894 21.3727C-0.0554008 21.3124 -0.284347 21.0232 -0.296397 20.7039C-0.308447 20.3726 -0.0915503 20.0713 0.233795 19.987C0.348268 19.9568 0.468766 19.9508 0.589264 19.9508C1.60747 19.9508 2.62568 19.9508 3.64389 19.9508C3.71017 19.9508 3.78246 19.9448 3.92104 19.9388C3.24022 19.4025 2.72208 18.8181 2.68593 17.9505C2.65581 17.083 3.1378 16.4744 3.72222 15.8961C2.99923 15.2032 2.67991 14.3717 2.78835 13.3957C2.86065 12.7209 3.1619 12.1425 3.64992 11.6666C4.58378 10.7568 6.22858 10.4676 7.59021 11.5822C9.19283 9.80487 10.7894 8.02752 12.4041 6.2321C11.7534 5.60551 11.422 4.84637 11.4582 3.94866C11.4883 3.2317 11.7594 2.61113 12.2535 2.09299C13.1753 1.11093 14.9044 0.791611 16.2781 1.93032C16.4227 1.77367 16.5613 1.611 16.7119 1.46038C17.5675 0.550615 18.7664 0.418067 19.7304 1.20131C20.3269 1.6833 20.9233 2.19541 21.3812 2.7979C22.4416 4.17761 22.291 6.02725 21.1041 7.36478C20.9293 7.56361 20.7546 7.7564 20.5679 7.96125C20.9414 8.51554 21.3089 9.05778 21.6704 9.60002C21.9476 10.0218 22.2548 10.4254 22.4958 10.8713C23.2369 12.2329 23.032 13.8355 21.9717 15.0224C21.1282 15.9683 20.2787 16.9082 19.4291 17.8481C18.8146 18.535 18.2001 19.2158 17.5373 19.9508C17.6699 19.9508 17.7542 19.9508 17.8386 19.9508C19.7003 19.9508 21.5559 19.9568 23.4176 19.9448C23.8635 19.9448 24.1828 20.0894 24.3334 20.5172C24.3334 20.6316 24.3334 20.7461 24.3334 20.8545ZM19.3809 2.7979C19.1942 2.62921 19.0375 2.48461 18.8749 2.34001C18.5254 2.03877 18.1217 2.05684 17.8084 2.39424C17.6036 2.61113 17.3988 2.82803 17.218 3.05698C17.1578 3.1353 17.1156 3.2799 17.1397 3.3763C17.6096 5.42476 15.9829 7.21416 13.8923 6.93702C13.8139 6.92497 13.6995 6.96714 13.6513 7.02136C11.9342 8.91921 10.2231 10.8171 8.51804 12.7209C8.45779 12.7872 8.42767 12.9258 8.45177 13.0161C8.93376 15.0526 7.31306 16.854 5.24652 16.5889C5.16217 16.5769 5.04167 16.5949 4.98745 16.6492C4.74645 16.8962 4.51148 17.1492 4.29458 17.4143C4.06563 17.6975 4.06564 18.059 4.30061 18.3181C4.48135 18.5169 4.69223 18.6916 4.9031 18.8844C5.05975 18.7097 5.19832 18.5591 5.33689 18.4024C5.66224 18.053 6.08398 18.0108 6.4033 18.294C6.71659 18.5711 6.71659 19.017 6.41535 19.3664C6.3069 19.4929 6.19845 19.6134 6.0659 19.7701C6.25268 19.8183 6.39727 19.8725 6.54187 19.8906C7.40343 20.0111 8.07822 19.6797 8.65059 19.0471C11.8076 15.5346 14.9707 12.0281 18.1278 8.52157C18.8327 7.73833 19.5436 6.97316 20.2184 6.16583C20.7486 5.53321 20.7908 4.515 20.369 3.88239C20.2485 4.01494 20.1341 4.14748 20.0136 4.27401C19.7003 4.60538 19.2665 4.62948 18.9652 4.34631C18.664 4.06916 18.6519 3.65344 18.9411 3.31002C19.0677 3.14132 19.2183 2.97865 19.3809 2.7979ZM15.8443 13.2029C16.9288 14.179 17.9952 15.1369 19.0616 16.1009C19.7063 15.3839 20.351 14.7031 20.9534 13.9862C21.6403 13.1668 21.6704 12.1968 21.0739 11.299C20.6161 10.6062 20.1461 9.91934 19.6822 9.22648C19.646 9.17828 19.6039 9.13611 19.5617 9.07586C18.3145 10.4616 17.0855 11.8232 15.8443 13.2029ZM11.1389 18.4265C12.0607 18.9025 12.9222 19.3965 13.826 19.8002C14.5851 20.1436 15.3744 20.0291 15.9769 19.4568C16.724 18.7458 17.3867 17.9505 18.1037 17.1854C17.0192 16.2093 15.9528 15.2514 14.8743 14.2754C13.6332 15.6551 12.4041 17.0227 11.1389 18.4265ZM15.772 4.09326C15.7781 3.29195 15.1454 2.65331 14.3261 2.64728C13.5488 2.64126 12.9042 3.29195 12.8981 4.09326C12.8921 4.87047 13.5368 5.51514 14.3381 5.52116C15.1334 5.52719 15.766 4.9006 15.772 4.09326ZM4.21626 13.7391C4.21023 14.5224 4.8549 15.1731 5.64416 15.1791C6.43945 15.1851 7.08411 14.5404 7.09014 13.7271C7.09616 12.9619 6.44547 12.3112 5.66826 12.2992C4.87297 12.2871 4.22228 12.9258 4.21626 13.7391ZM10.928 19.9388C10.6569 19.7942 10.452 19.6797 10.2472 19.5773C10.211 19.5592 10.1327 19.5652 10.1026 19.5953C10.0002 19.6978 9.90979 19.8122 9.7893 19.9448C10.1749 19.9388 10.5123 19.9388 10.928 19.9388Z" fill="#2285E0"/>
</svg>
