<svg width="31" height="34" viewBox="0 0 31 34" fill="none" xmlns="http://www.w3.org/2000/svg">
<path d="M13.5281 33.6666C13.5152 33.5971 13.4507 33.6021 13.4041 33.5823C12.8753 33.3471 12.5995 32.9413 12.5945 32.3619C12.5895 31.7002 12.5806 31.0385 12.5975 30.3767C12.6163 29.6078 13.0846 29.0999 13.8535 29.084C15.1869 29.0572 16.5223 29.0562 17.8567 29.086C18.6316 29.1028 19.1117 29.6306 19.1038 30.4204C19.1008 30.7309 19.2 30.7666 19.4679 30.7428C20.342 30.6654 21.2131 30.593 22.0702 30.3717C23.9702 29.8816 25.0337 28.6474 25.38 26.7475C25.4623 26.2991 25.502 25.8457 25.5397 25.3923C25.5516 25.2474 25.5189 25.2008 25.372 25.2048C25.0575 25.2137 24.743 25.2127 24.4285 25.2058C23.9811 25.1968 23.7519 24.9796 23.7142 24.5351C23.7072 24.4488 23.7112 24.3615 23.7112 24.2752C23.7112 20.391 23.7112 16.5069 23.7122 12.6227C23.7122 12.5036 23.7152 12.3836 23.733 12.2665C23.7846 11.9282 23.9692 11.7387 24.3085 11.7169C24.6537 11.6941 25.002 11.7 25.3492 11.704C25.504 11.706 25.5516 11.6534 25.5437 11.4947C25.3333 7.44977 23.485 4.39206 19.84 2.62509C16.0312 0.77974 12.3455 1.2639 9.01889 3.86623C6.9394 5.49331 5.75778 7.70276 5.38276 10.3309C5.3272 10.7198 5.3401 11.1097 5.2895 11.4966C5.26867 11.6584 5.33216 11.707 5.48495 11.704C5.77763 11.697 6.07129 11.697 6.36397 11.703C6.88483 11.7139 7.1031 11.9361 7.12096 12.462C7.12294 12.5165 7.12096 12.5701 7.12096 12.6247C7.12096 16.5197 7.12096 20.4148 7.11997 24.3099C7.11997 24.4389 7.11302 24.5708 7.09219 24.6978C7.0406 25.0004 6.85606 25.2038 6.55148 25.2068C5.54646 25.2157 4.53648 25.3159 3.5394 25.0857C2.05221 24.7425 1.06306 23.6362 0.897379 22.1233C0.859679 21.777 0.84182 21.4317 0.842813 21.0845C0.844797 19.262 0.843805 17.4394 0.843805 15.6159C0.843805 15.0058 0.907301 14.4036 1.13648 13.8321C1.60179 12.6733 2.50065 12.0483 3.68822 11.8052C3.92533 11.7566 4.02256 11.697 4.03546 11.4302C4.24678 7.12833 6.22904 3.87516 9.95644 1.74607C12.2205 0.45234 14.6968 0.0713651 17.2763 0.50393C20.4759 1.04166 22.9969 2.67965 24.8383 5.3306C26.1102 7.16206 26.7511 9.22369 26.8056 11.4579C26.8096 11.6385 26.8304 11.7526 27.0477 11.7893C28.8792 12.1008 29.9298 13.3727 29.9695 15.1863C30.0171 17.366 30.0112 19.5477 29.9695 21.7274C29.9437 23.0727 29.3733 24.1521 28.1182 24.7851C27.7978 24.9468 27.4594 25.0708 27.1053 25.1145C26.8751 25.1423 26.8086 25.2256 26.7977 25.4578C26.7501 26.4013 26.6042 27.3299 26.2778 28.2238C25.6181 30.0315 24.2966 31.0871 22.476 31.5831C21.476 31.856 20.4521 31.9492 19.4243 32.0097C19.201 32.0226 19.1117 32.0663 19.1187 32.3213C19.1405 33.0356 18.7377 33.4523 18.0879 33.6656C16.566 33.6666 15.047 33.6666 13.5281 33.6666ZM5.84807 18.4336C5.84807 16.6874 5.84906 14.9403 5.84707 13.1942C5.84707 13.0652 5.90462 12.9045 5.65956 12.9144C5.13969 12.9342 4.61883 12.8975 4.09995 12.963C2.99274 13.1039 2.26155 13.8162 2.13059 14.9224C2.0155 15.8947 2.0909 16.8729 2.08197 17.8482C2.07007 19.0735 2.05915 20.3007 2.08991 21.525C2.12761 23.0132 2.8846 23.797 4.35988 23.923C4.7478 23.9557 5.14068 23.9279 5.52959 23.9537C5.77763 23.9696 5.85699 23.9051 5.85501 23.6402C5.84211 21.905 5.84807 20.1688 5.84807 18.4336ZM24.9841 18.4395C24.9841 20.1966 24.9861 21.9526 24.9801 23.7097C24.9791 23.8922 25 23.9835 25.2192 23.9706C25.5972 23.9488 25.9782 23.9736 26.3572 23.9567C27.8166 23.8932 28.6629 23.0519 28.7006 21.5954C28.7333 20.3275 28.7313 19.0586 28.7403 17.7897C28.7462 16.9652 28.77 16.1408 28.7383 15.3183C28.6907 14.0633 28.0855 13.2973 26.9872 13.0493C26.4207 12.9213 25.8423 12.9898 25.2698 12.96C25.0109 12.9461 24.9762 13.0384 24.9772 13.2676C24.9881 14.9909 24.9841 16.7152 24.9841 18.4395ZM15.8358 32.4096C16.4201 32.4096 17.0055 32.4036 17.5898 32.4135C17.7763 32.4165 17.8617 32.3798 17.8567 32.1675C17.8428 31.6268 17.8458 31.0841 17.8557 30.5434C17.8587 30.3856 17.8121 30.343 17.6553 30.344C16.4529 30.3499 15.2514 30.3499 14.0489 30.344C13.8892 30.343 13.8495 30.3936 13.8525 30.5464C13.8604 31.0881 13.8674 31.6298 13.8505 32.1705C13.8436 32.3877 13.9289 32.4165 14.1144 32.4135C14.6879 32.4036 15.2623 32.4096 15.8358 32.4096Z" fill="#3E3E3E"/>
</svg>
