<svg width="36" height="40" fill="none" xmlns="http://www.w3.org/2000/svg"><path d="M15.235 40c-.016-.083-.093-.077-.15-.101-.634-.282-.965-.77-.97-1.465-.007-.794-.017-1.588.003-2.382.022-.922.584-1.532 1.507-1.551 1.6-.032 3.203-.033 4.804.002.93.02 1.506.654 1.496 1.602-.003.372.116.415.437.387 1.05-.093 2.095-.18 3.123-.446 2.28-.588 3.556-2.069 3.972-4.349.099-.538.146-1.082.191-1.626.015-.174-.024-.23-.2-.225-.378.01-.756.01-1.133.001-.537-.01-.812-.271-.857-.805-.008-.103-.004-.208-.004-.312 0-4.66 0-9.322.002-13.983 0-.143.003-.287.024-.427.062-.406.284-.633.691-.66.414-.027.832-.02 1.249-.015.186.002.243-.06.233-.251-.252-4.854-2.47-8.523-6.844-10.644-4.57-2.214-8.994-1.633-12.985 1.49C7.328 6.192 5.91 8.843 5.46 11.997c-.066.467-.051.935-.112 1.4-.025.193.051.252.235.248.351-.008.703-.008 1.055-.001.625.013.887.28.908.91.002.066 0 .13 0 .196l-.001 14.022c0 .155-.008.313-.034.466-.061.363-.283.607-.648.61-1.206.01-2.418.131-3.615-.145-1.784-.412-2.971-1.74-3.17-3.555-.046-.415-.067-.83-.066-1.247.003-2.186.001-4.374.001-6.562 0-.732.077-1.455.352-2.14.558-1.391 1.637-2.141 3.062-2.433.284-.058.4-.13.416-.45.254-5.162 2.633-9.066 7.106-11.62C13.665.142 16.637-.315 19.733.204c3.839.645 6.864 2.61 9.074 5.792 1.526 2.198 2.295 4.671 2.36 7.353.005.216.03.353.291.397 2.198.374 3.459 1.9 3.506 4.077.057 2.615.05 5.233 0 7.849-.03 1.614-.715 2.91-2.221 3.67-.385.193-.79.342-1.216.395-.276.033-.356.133-.369.411-.057 1.133-.232 2.247-.624 3.32-.791 2.169-2.377 3.436-4.562 4.03-1.2.328-2.429.44-3.662.513-.268.015-.375.068-.367.374.026.857-.457 1.357-1.237 1.613L15.235 40zM6.019 21.72c0-2.095 0-4.192-.002-6.287 0-.155.07-.348-.225-.336-.623.024-1.249-.02-1.871.059-1.329.169-2.206 1.024-2.363 2.351-.139 1.167-.048 2.34-.059 3.51-.014 1.471-.027 2.944.01 4.413.045 1.786.953 2.727 2.724 2.878.465.039.937.006 1.403.037.298.019.393-.059.39-.377-.015-2.082-.007-4.165-.007-6.248zm22.963.008c0 2.108.002 4.215-.005 6.324-.001.219.024.328.287.313.454-.026.91.003 1.366-.017 1.75-.076 2.766-1.086 2.812-2.833.039-1.522.036-3.045.047-4.567.007-.99.036-1.979-.002-2.966-.057-1.506-.784-2.425-2.102-2.723-.68-.153-1.373-.071-2.06-.107-.311-.017-.353.094-.351.37.013 2.067.008 4.136.008 6.205zM18.004 38.492c.701 0 1.403-.008 2.105.004.223.004.326-.04.32-.295-.017-.649-.013-1.3-.001-1.949.003-.19-.053-.24-.24-.24a439.63 439.63 0 01-4.328 0c-.192 0-.24.06-.236.244.01.65.018 1.3-.003 1.949-.008.26.095.295.317.291.688-.012 1.378-.004 2.066-.004z" fill="#56AEFF"/></svg>