<svg width="80" height="80" viewBox="0 0 80 80" fill="none" xmlns="http://www.w3.org/2000/svg">
<path d="M24.1044 46.3688H24.1295C24.9569 46.3606 25.7474 46.0255 26.3284 45.4364C26.9095 44.8474 27.2338 44.0523 27.2305 43.2249C27.2273 42.3975 26.8968 41.605 26.3111 41.0206C25.7255 40.4361 24.9324 40.1071 24.105 40.1055H24.0795C23.2521 40.1136 22.4616 40.4488 21.8806 41.0379C21.2995 41.627 20.9753 42.4221 20.9785 43.2495C20.9818 44.0769 21.3124 44.8694 21.8981 45.4538C22.4838 46.0383 23.2769 46.3672 24.1044 46.3688V46.3688ZM23.4325 42.5748C23.5193 42.4863 23.6228 42.4158 23.737 42.3676C23.8512 42.3193 23.9738 42.2942 24.0978 42.2936H24.1056C24.354 42.2957 24.5916 42.3956 24.7668 42.5717C24.9421 42.7477 25.0409 42.9858 25.0418 43.2342C25.0428 43.4826 24.9458 43.7214 24.7719 43.8988C24.598 44.0762 24.3612 44.1779 24.1128 44.1819H24.1053C23.9192 44.1818 23.7373 44.1268 23.5824 44.0237C23.4275 43.9206 23.3065 43.774 23.2347 43.6024C23.1628 43.4308 23.1432 43.2418 23.1784 43.0591C23.2136 42.8763 23.302 42.7081 23.4325 42.5755V42.5748Z" fill="#DBE7EC"/>
<path d="M56.0166 46.1148H56.0424C56.8698 46.1068 57.6603 45.7716 58.2413 45.1826C58.8223 44.5936 59.1467 43.7986 59.1435 42.9712C59.1403 42.1439 58.8099 41.3514 58.2243 40.7669C57.6388 40.1823 56.8457 39.8533 56.0184 39.8516H55.9926C55.162 39.8548 54.3668 40.1877 53.7818 40.7773C53.1967 41.3668 52.8699 42.1646 52.8731 42.9952C52.8763 43.8257 53.2093 44.621 53.7988 45.206C54.3883 45.791 55.1861 46.1179 56.0166 46.1147V46.1148ZM55.3448 42.3209C55.4316 42.2324 55.5351 42.1619 55.6493 42.1137C55.7635 42.0654 55.8861 42.0402 56.0101 42.0397H56.0179C56.2669 42.0397 56.5059 42.1382 56.6827 42.3136C56.8594 42.489 56.9597 42.7272 56.9616 42.9762V42.9762C56.9636 43.2266 56.8661 43.4675 56.6905 43.646C56.5149 43.8244 56.2756 43.9258 56.0252 43.9278H56.0174C55.8314 43.9277 55.6495 43.8727 55.4946 43.7696C55.3398 43.6665 55.2188 43.5199 55.1469 43.3483C55.0751 43.1767 55.0555 42.9876 55.0907 42.805C55.1259 42.6223 55.2143 42.454 55.3448 42.3214V42.3209Z" fill="#DBE7EC"/>
<path d="M34.3249 48.7327H34.3337L45.877 48.6406C46.167 48.6395 46.4448 48.5232 46.6491 48.3173C46.8535 48.1114 46.9676 47.8328 46.9665 47.5427C46.9654 47.2526 46.8491 46.9748 46.6432 46.7705C46.4373 46.5662 46.1586 46.452 45.8685 46.4531H45.8593L34.316 46.5452C34.0259 46.5463 33.7482 46.6626 33.5439 46.8686C33.3396 47.0745 33.2254 47.3531 33.2266 47.6432C33.2277 47.9333 33.344 48.2111 33.55 48.4154C33.7559 48.6197 34.0345 48.7338 34.3246 48.7327H34.3249Z" fill="#DBE7EC"/>
<path d="M59.4035 65.584C53.7629 70.4264 46.6762 73.2059 39.9604 73.21H39.9448C35.5698 73.21 30.9946 72.032 26.7137 69.8037C22.262 67.4828 18.4001 64.1745 15.4234 60.1319C15.3385 60.0159 15.2316 59.9179 15.1087 59.8433C14.9859 59.7687 14.8496 59.7191 14.7076 59.6972C14.5656 59.6753 14.4206 59.6816 14.2811 59.7158C14.1415 59.7499 14.01 59.8112 13.8941 59.8962C13.7783 59.9812 13.6803 60.0882 13.6058 60.211C13.5313 60.3339 13.4817 60.4703 13.4599 60.6123C13.4381 60.7543 13.4445 60.8992 13.4788 61.0388C13.513 61.1784 13.5744 61.3098 13.6595 61.4256C16.8349 65.7386 20.9546 69.2683 25.7035 71.7447C30.2954 74.1353 35.2192 75.3987 39.9448 75.3987H39.9604C47.1907 75.3944 54.7964 72.4225 60.8271 67.245C67.4291 61.592 71.6387 53.6434 72.6051 45.0058C72.6377 44.7175 72.5545 44.4281 72.3737 44.2012C72.1929 43.9744 71.9294 43.8286 71.6411 43.796C71.3529 43.7634 71.0635 43.8467 70.8366 44.0274C70.6097 44.2082 70.464 44.4717 70.4314 44.76C69.5265 52.8478 65.585 60.2905 59.4035 65.584V65.584Z" fill="#DBE7EC"/>
<path d="M8.3577 36.2055C8.3992 36.2102 8.44094 36.2125 8.4827 36.2125C8.75128 36.2122 9.01035 36.113 9.21053 35.934C9.41071 35.7549 9.53801 35.5085 9.56817 35.2416C10.4729 27.1532 14.4145 19.71 20.5965 14.4163C26.2371 9.57393 33.3238 6.7944 40.0396 6.79033H40.0552C44.4302 6.79033 49.0054 7.9683 53.2861 10.1966C57.7379 12.5175 61.5998 15.8258 64.5766 19.8685C64.6615 19.9844 64.7684 20.0824 64.8913 20.157C65.0141 20.2316 65.1504 20.2813 65.2924 20.3031C65.4344 20.325 65.5793 20.3187 65.7189 20.2846C65.8585 20.2504 65.99 20.1891 66.1058 20.1041C66.2217 20.0191 66.3197 19.9121 66.3942 19.7893C66.4687 19.6664 66.5183 19.5301 66.5401 19.388C66.5619 19.246 66.5555 19.1011 66.5212 18.9615C66.487 18.822 66.4256 18.6905 66.3405 18.5747C63.165 14.2618 59.0454 10.7321 54.2964 8.25565C49.6994 5.86221 44.7744 4.59565 40.0389 4.60158C32.808 4.60721 25.2024 7.57971 19.1721 12.7566C12.57 18.4095 8.3602 26.3581 7.39364 34.9958C7.37751 35.1385 7.38965 35.283 7.42936 35.4211C7.46908 35.5591 7.5356 35.688 7.62512 35.8003C7.71465 35.9127 7.82542 36.0062 7.95111 36.0758C8.07681 36.1453 8.21497 36.1894 8.3577 36.2055V36.2055Z" fill="#DBE7EC"/>
<path d="M52.0526 35.494C52.0549 35.7826 52.1712 36.0585 52.376 36.2617C52.5809 36.465 52.8578 36.579 53.1463 36.579H53.1551C53.2988 36.5779 53.4408 36.5485 53.5731 36.4924C53.7054 36.4364 53.8253 36.3549 53.9261 36.2525C54.0269 36.1501 54.1065 36.0288 54.1604 35.8957C54.2143 35.7625 54.2414 35.62 54.2403 35.4763C54.2293 34.1052 53.6741 32.7946 52.6968 31.8328C51.7195 30.871 50.4002 30.3369 49.0291 30.3478C47.6579 30.3588 46.3473 30.914 45.3855 31.8913C44.4238 32.8685 43.8896 34.1879 43.9006 35.559C43.9029 35.8476 44.0191 36.1235 44.224 36.3267C44.4289 36.53 44.7057 36.644 44.9943 36.644H45.0032C45.1469 36.6428 45.2889 36.6134 45.4212 36.5574C45.5534 36.5013 45.6734 36.4198 45.7741 36.3174C45.8749 36.215 45.9545 36.0938 46.0084 35.9606C46.0623 35.8275 46.0894 35.685 46.0882 35.5413C46.0872 34.7537 46.3978 33.9977 46.9521 33.4382C47.5065 32.8787 48.2597 32.5612 49.0473 32.5551C49.8349 32.5489 50.5929 32.8545 51.156 33.4052C51.7191 33.9559 52.0416 34.7069 52.0529 35.4945L52.0526 35.494Z" fill="#DBE7EC"/>
<path d="M34.8555 44.3934H34.8646C35.1546 44.3911 35.4319 44.2736 35.6353 44.0668C35.8388 43.8601 35.9517 43.581 35.9494 43.2909L35.9338 41.4131C35.9315 41.1246 35.8152 40.8486 35.6104 40.6454C35.4055 40.4421 35.1286 40.3281 34.84 40.3281H34.831C34.5409 40.3305 34.2637 40.4479 34.0602 40.6547C33.8568 40.8615 33.7438 41.1406 33.7461 41.4306L33.7618 43.3084C33.7641 43.597 33.8803 43.8729 34.0852 44.0762C34.2901 44.2794 34.5669 44.3934 34.8555 44.3934Z" fill="#DBE7EC"/>
<path d="M31.3764 44.4209H31.3851C31.5287 44.4198 31.6707 44.3904 31.803 44.3343C31.9353 44.2783 32.0552 44.1968 32.156 44.0944C32.2567 43.992 32.3363 43.8708 32.3902 43.7377C32.4441 43.6045 32.4713 43.4621 32.4701 43.3184L32.4553 41.4406C32.453 41.152 32.3368 40.876 32.1319 40.6728C31.927 40.4695 31.6501 40.3555 31.3615 40.3555H31.3526C31.209 40.3566 31.067 40.386 30.9347 40.4421C30.8024 40.4981 30.6825 40.5796 30.5818 40.682C30.481 40.7844 30.4014 40.9056 30.3475 41.0387C30.2936 41.1719 30.2665 41.3143 30.2676 41.458L30.2825 43.3359C30.2848 43.6245 30.401 43.9005 30.6059 44.1037C30.8108 44.307 31.0878 44.421 31.3764 44.4209V44.4209Z" fill="#DBE7EC"/>
<path d="M48.7541 40.2188H48.7452C48.6015 40.2199 48.4595 40.2493 48.3273 40.3053C48.195 40.3614 48.0751 40.4429 47.9743 40.5453C47.8736 40.6477 47.794 40.7689 47.7401 40.902C47.6862 41.0352 47.659 41.1776 47.6602 41.3212L47.6758 43.1991C47.6781 43.4876 47.7944 43.7636 47.9992 43.9668C48.2041 44.17 48.481 44.2841 48.7696 44.2841H48.7785C49.0685 44.2817 49.3458 44.1643 49.5492 43.9576C49.7527 43.7509 49.8657 43.4718 49.8635 43.1817L49.8478 41.3039C49.8456 41.0153 49.7293 40.7393 49.5245 40.5361C49.3196 40.3328 49.0427 40.2187 48.7541 40.2188V40.2188Z" fill="#DBE7EC"/>
<path d="M38.334 44.3662H38.3429C38.4866 44.3651 38.6286 44.3357 38.7608 44.2797C38.8931 44.2236 39.013 44.1421 39.1138 44.0397C39.2145 43.9373 39.2941 43.8161 39.348 43.683C39.4019 43.5498 39.4291 43.4074 39.4279 43.2638L39.4123 41.3859C39.41 41.0973 39.2938 40.8214 39.0889 40.6181C38.884 40.4148 38.6071 40.3008 38.3185 40.3008H38.3098C38.1662 40.3019 38.0241 40.3313 37.8919 40.3873C37.7596 40.4433 37.6396 40.5249 37.5389 40.6273C37.4381 40.7296 37.3585 40.8509 37.3046 40.984C37.2506 41.1172 37.2235 41.2596 37.2246 41.4033L37.2403 43.2812C37.2426 43.5698 37.3588 43.8458 37.5637 44.049C37.7686 44.2522 38.0454 44.3663 38.334 44.3662V44.3662Z" fill="#DBE7EC"/>
<path d="M41.8114 44.3388H41.8202C41.9638 44.3376 42.1058 44.3082 42.2381 44.2522C42.3704 44.1962 42.4903 44.1147 42.5911 44.0123C42.6919 43.91 42.7715 43.7888 42.8254 43.6556C42.8793 43.5225 42.9065 43.3801 42.9054 43.2364L42.8897 41.3586C42.8875 41.07 42.7712 40.794 42.5664 40.5907C42.3615 40.3875 42.0846 40.2734 41.796 40.2734H41.7871C41.4971 40.276 41.22 40.3937 41.0168 40.6005C40.8135 40.8073 40.7007 41.0864 40.7032 41.3764L40.7188 43.2542C40.7212 43.5425 40.8374 43.8182 41.042 44.0213C41.2466 44.2244 41.5231 44.3385 41.8114 44.3388V44.3388Z" fill="#DBE7EC"/>
<path d="M45.2657 40.2461C45.1221 40.2473 44.9801 40.2767 44.8478 40.3327C44.7155 40.3888 44.5956 40.4703 44.4949 40.5727C44.3941 40.675 44.3145 40.7963 44.2606 40.9294C44.2067 41.0625 44.1795 41.205 44.1807 41.3486L44.1955 43.2266C44.1979 43.5152 44.3141 43.7911 44.519 43.9944C44.7238 44.1976 45.0007 44.3116 45.2893 44.3116H45.298C45.4417 44.3105 45.5837 44.281 45.7159 44.225C45.8482 44.169 45.9681 44.0875 46.0689 43.9851C46.1696 43.8827 46.2492 43.7615 46.3031 43.6283C46.357 43.4952 46.3842 43.3527 46.383 43.2091L46.3682 41.3313C46.3671 41.1876 46.3377 41.0456 46.2816 40.9133C46.2256 40.7811 46.1441 40.6611 46.0417 40.5603C45.9393 40.4596 45.8181 40.38 45.685 40.326C45.5518 40.2721 45.4093 40.245 45.2657 40.2461V40.2461Z" fill="#DBE7EC"/>
<path d="M16.5592 36.377H16.5693L18.0898 36.363C17.3078 37.3222 16.8921 38.5282 16.917 39.7656C16.9173 39.8116 16.9206 39.8574 16.9267 39.903L18.1454 48.9509C18.1679 49.6035 18.3984 50.2319 18.8031 50.7443C19.2079 51.2567 19.7658 51.6263 20.3954 51.7994L20.4162 54.4048C20.4213 54.9525 20.6422 55.476 21.031 55.8617C21.4197 56.2474 21.945 56.4641 22.4926 56.4648H22.5096L25.494 56.4411C26.0448 56.4364 26.5712 56.2133 26.9576 55.8207C27.344 55.4281 27.5586 54.8981 27.5545 54.3473L27.5346 51.8597L52.7237 51.6587L52.7434 54.1464C52.7478 54.6943 52.9685 55.2182 53.3574 55.6041C53.7463 55.99 54.2719 56.2066 54.8198 56.2069H54.8368L57.8221 56.183C58.373 56.1785 58.8995 55.9554 59.2859 55.5628C59.6723 55.1701 59.8869 54.6401 59.8825 54.0892L59.8615 51.4717C60.4756 51.2796 61.0137 50.8995 61.4002 50.3851C61.7866 49.8707 62.0018 49.2479 62.0153 48.6047L63.1403 39.5403C63.1462 39.4928 63.1489 39.4449 63.1486 39.397C63.1462 38.1547 62.6969 36.9547 61.8829 36.0162L63.4443 36.0033C63.5924 36.0021 63.7386 35.9708 63.8742 35.9114C64.0098 35.852 64.132 35.7656 64.2332 35.6576C64.3345 35.5496 64.4127 35.4222 64.4633 35.283C64.5138 35.1439 64.5356 34.9959 64.5273 34.8481C64.4781 34.2134 64.349 33.5874 64.1429 32.985C63.662 31.5787 62.1972 30.6845 60.4128 30.6936C59.5175 30.7008 57.97 30.7078 57.0976 30.7116L55.5889 27.9856C54.4123 25.9152 52.6942 23.543 49.8164 23.543H49.7745L30.2012 23.6992C27.8461 23.718 25.7831 25.3328 24.3887 28.247L22.865 30.9983C21.99 31.0036 20.4164 31.0139 19.5137 31.0205C17.7286 31.0348 16.2793 31.958 15.8204 33.3709C15.624 33.9765 15.5048 34.6044 15.4657 35.2398C15.4598 35.3871 15.4836 35.534 15.5359 35.6718C15.5881 35.8096 15.6676 35.9354 15.7697 36.0416C15.8718 36.1479 15.9943 36.2325 16.1298 36.2903C16.2654 36.348 16.4112 36.3778 16.5585 36.3778L16.5592 36.377ZM22.6023 54.2766L22.5834 51.8994L25.3475 51.8773L25.3664 54.2545L22.6023 54.2766ZM54.9304 54.0187L54.9115 51.6417L57.6754 51.6197L57.6943 53.9967L54.9304 54.0187ZM60.429 32.8811C61.2282 32.8706 61.9064 33.2084 62.0722 33.6936C62.0875 33.7385 62.102 33.783 62.1157 33.827L58.8345 33.8544L58.3032 32.8939C59.0504 32.89 59.8676 32.8856 60.429 32.8811V32.8811ZM26.3196 29.2769C26.3307 29.257 26.3411 29.2369 26.3509 29.2164C26.9386 27.9794 28.2226 25.9019 30.2193 25.8859L49.7926 25.7297H49.8157C51.2007 25.7297 52.3603 26.7297 53.6817 29.0544L56.6915 34.4987L23.2793 34.7652L26.3196 29.2769ZM58.515 36.6719C58.5204 36.6719 58.5257 36.6719 58.5306 36.6719H58.5581C58.8764 36.673 59.1906 36.743 59.4792 36.8772C59.7678 37.0113 60.024 37.2064 60.23 37.4491C60.6848 37.9786 60.9424 38.6493 60.959 39.3472L59.8359 48.3984C59.83 48.446 59.8271 48.4939 59.8275 48.5419C59.8278 48.7728 59.7372 48.9946 59.5752 49.1592C59.4132 49.3238 59.1929 49.4179 58.962 49.4212L21.2106 49.7222H21.2036C20.9738 49.7207 20.7539 49.6292 20.5908 49.4674C20.4277 49.3056 20.3346 49.0864 20.3312 48.8567C20.3308 48.8108 20.3276 48.7649 20.3215 48.7194L19.1043 39.683C19.12 38.0508 20.2025 37.0456 21.3012 36.9595C21.339 36.9639 21.3769 36.9664 21.415 36.9669H21.4236L58.515 36.6719ZM17.9017 34.0452C18.0598 33.5583 18.7298 33.2136 19.5317 33.2072C20.0892 33.2028 20.9029 33.1973 21.6498 33.1927L21.1211 34.1473L17.8609 34.1775C17.8737 34.1339 17.8873 34.0897 17.9017 34.0452Z" fill="#DBE7EC"/>
<path d="M72.6586 35.0989C72.5592 34.9462 72.4233 34.8207 72.2632 34.7339C72.1031 34.647 71.9238 34.6016 71.7417 34.6016V34.6016C71.5594 34.6017 71.38 34.6473 71.2198 34.7344C71.0597 34.8215 70.9238 34.9472 70.8246 35.1002L65.0746 43.9642C64.9675 44.1293 64.9069 44.3203 64.8993 44.5169C64.8916 44.7136 64.9371 44.9087 65.0311 45.0816C65.125 45.2545 65.2639 45.3989 65.433 45.4995C65.6022 45.6002 65.7953 45.6533 65.9921 45.6533V45.6533L77.504 45.6464C77.7009 45.6463 77.8941 45.5931 78.0633 45.4923C78.2324 45.3916 78.3713 45.2471 78.4651 45.074C78.559 44.9009 78.6043 44.7057 78.5965 44.509C78.5886 44.3122 78.5278 44.1213 78.4204 43.9562L72.6586 35.0989ZM68.005 43.4645L71.7428 37.7025L75.4875 43.4594L68.005 43.4645Z" fill="#DBE7EC"/>
<path d="M8.25801 45.3994C8.4403 45.3993 8.61968 45.3536 8.77984 45.2665C8.93999 45.1795 9.07584 45.0537 9.17504 44.9008L14.925 36.0367C15.0322 35.8716 15.0927 35.6807 15.1004 35.484C15.1081 35.2874 15.0625 35.0923 14.9686 34.9193C14.8747 34.7464 14.7358 34.602 14.5666 34.5014C14.3975 34.4008 14.2043 34.3477 14.0075 34.3477L2.49566 34.3545C2.29878 34.3546 2.10556 34.4078 1.93641 34.5086C1.76725 34.6093 1.62843 34.7539 1.53458 34.9269C1.44074 35.1 1.39535 35.2952 1.40322 35.492C1.41108 35.6887 1.4719 35.8796 1.57926 36.0447L7.34051 44.902C7.43989 45.0548 7.57588 45.1803 7.73611 45.2672C7.89635 45.3541 8.07575 45.3995 8.25801 45.3994V45.3994ZM11.9947 36.5364L8.25691 42.2984L4.51223 36.5409L11.9947 36.5364Z" fill="#DBE7EC"/>
</svg>
