<svg width="80" height="80" fill="none" xmlns="http://www.w3.org/2000/svg"><path d="M24.104 46.369h.026a3.132 3.132 0 00-.025-6.264h-.026a3.131 3.131 0 00.025 6.264zm-.671-3.794a.937.937 0 01.665-.281h.008a.944.944 0 01.007 1.888h-.008a.945.945 0 01-.672-1.607zm32.584 3.54h.025a3.131 3.131 0 00-.024-6.263h-.025a3.131 3.131 0 10.024 6.263zm-.672-3.794a.937.937 0 01.665-.281h.008a.944.944 0 01.944.936.944.944 0 01-.937.952h-.008a.944.944 0 01-.672-1.607zm-21.02 6.412h.009l11.543-.092a1.094 1.094 0 10-.009-2.188h-.009l-11.543.092a1.093 1.093 0 10.009 2.188zm25.079 16.851c-5.641 4.842-12.728 7.622-19.444 7.626h-.015c-4.375 0-8.95-1.178-13.231-3.406a32.92 32.92 0 01-11.29-9.672 1.092 1.092 0 00-1.818.079 1.095 1.095 0 00.053 1.215 35.123 35.123 0 0012.044 10.319c4.592 2.39 9.516 3.654 14.242 3.654h.015c7.23-.005 14.836-2.977 20.867-8.154a34.299 34.299 0 0011.778-22.24 1.094 1.094 0 10-2.174-.245 32.118 32.118 0 01-11.027 20.824zM8.358 36.206a1.094 1.094 0 001.21-.964 32.117 32.117 0 0111.028-20.826C26.237 9.574 33.325 6.794 40.04 6.79h.015c4.375 0 8.95 1.178 13.231 3.407a32.92 32.92 0 0111.29 9.672 1.093 1.093 0 101.765-1.294 35.125 35.125 0 00-12.045-10.32C49.7 5.863 44.774 4.596 40.04 4.603c-7.231.005-14.837 2.978-20.867 8.155A34.299 34.299 0 007.394 34.996a1.094 1.094 0 00.964 1.21zm43.695-.712a1.094 1.094 0 001.093 1.085h.01a1.092 1.092 0 001.084-1.103 5.17 5.17 0 00-10.34.083 1.093 1.093 0 001.094 1.085h.01a1.096 1.096 0 001.084-1.103 2.983 2.983 0 015.965-.046v-.001zm-17.198 8.899h.01a1.093 1.093 0 001.084-1.102l-.015-1.878a1.094 1.094 0 00-1.094-1.085h-.009a1.094 1.094 0 00-1.085 1.103l.016 1.877a1.094 1.094 0 001.093 1.085zm-3.479.027h.01a1.092 1.092 0 001.084-1.102l-.015-1.877a1.094 1.094 0 00-1.093-1.086h-.01a1.092 1.092 0 00-1.084 1.103l.014 1.878a1.094 1.094 0 001.094 1.085zm17.378-4.201h-.009a1.093 1.093 0 00-1.085 1.102l.016 1.878a1.094 1.094 0 001.094 1.085h.008a1.094 1.094 0 001.086-1.102l-.016-1.878a1.093 1.093 0 00-1.094-1.085zm-10.42 4.147h.009a1.093 1.093 0 001.085-1.102l-.016-1.878A1.094 1.094 0 0038.32 40.3h-.01a1.093 1.093 0 00-1.084 1.102l.015 1.878a1.094 1.094 0 001.094 1.085zm3.477-.027h.01a1.096 1.096 0 001.084-1.103l-.015-1.877a1.094 1.094 0 00-1.094-1.086h-.009a1.094 1.094 0 00-1.084 1.103l.016 1.878a1.094 1.094 0 001.092 1.085zm3.455-4.093a1.096 1.096 0 00-1.085 1.103l.015 1.878a1.094 1.094 0 001.093 1.085h.009a1.093 1.093 0 001.085-1.103l-.015-1.878a1.092 1.092 0 00-1.102-1.085z" fill="#DBE7EC"/><path d="M16.56 36.377h.01l1.52-.014a5.219 5.219 0 00-1.173 3.403c0 .046.004.091.01.137l1.218 9.048a3.064 3.064 0 002.25 2.848l.021 2.606a2.08 2.08 0 002.077 2.06h.017l2.984-.024a2.078 2.078 0 002.06-2.094l-.02-2.487 25.19-.201.02 2.487a2.077 2.077 0 002.076 2.06h.017l2.985-.023a2.078 2.078 0 002.06-2.094l-.02-2.617a3.072 3.072 0 002.153-2.867l1.125-9.065c.006-.047.009-.095.009-.143a5.175 5.175 0 00-1.266-3.38l1.561-.014a1.093 1.093 0 001.083-1.155 7.56 7.56 0 00-.384-1.863c-.481-1.406-1.946-2.3-3.73-2.291-.895.007-2.443.014-3.315.018l-1.51-2.726c-1.176-2.07-2.894-4.443-5.772-4.443h-.041l-19.574.156c-2.355.019-4.418 1.634-5.812 4.548l-1.524 2.751-3.351.022c-1.785.015-3.235.938-3.694 2.35a7.564 7.564 0 00-.354 1.87 1.094 1.094 0 001.092 1.138l.001-.001zm6.042 17.9l-.019-2.378 2.765-.022.018 2.377-2.764.023zm32.328-.258l-.019-2.377 2.764-.022.02 2.377-2.765.022zm5.5-21.139c.8-.01 1.477.327 1.643.813l.044.133-3.282.027-.53-.96c.746-.004 1.564-.008 2.125-.013zm-34.11-3.604c.012-.02.022-.04.032-.06.588-1.238 1.872-3.315 3.868-3.331l19.574-.156h.023c1.385 0 2.544 1 3.866 3.324l3.01 5.445-33.413.266 3.04-5.488zm32.196 7.395h.043a2.202 2.202 0 011.672.777c.455.53.712 1.2.729 1.898l-1.123 9.051a1.092 1.092 0 00-.008.144.878.878 0 01-.866.88l-37.751.3h-.007a.878.878 0 01-.873-.865.915.915 0 00-.01-.138l-1.217-9.036c.016-1.632 1.099-2.637 2.197-2.724.038.005.076.007.114.008h.009l37.091-.295zm-40.613-2.627c.158-.487.828-.831 1.63-.838l2.118-.014-.529.954-3.26.03.04-.132zm54.756 1.055a1.094 1.094 0 00-.917-.497 1.094 1.094 0 00-.917.498l-5.75 8.864a1.093 1.093 0 00.917 1.69l11.512-.008a1.094 1.094 0 00.916-1.69L72.66 35.1zm-4.654 8.366l3.738-5.763 3.745 5.757-7.483.005zM8.258 45.4a1.094 1.094 0 00.917-.5l5.75-8.863a1.093 1.093 0 00-.918-1.69l-11.511.008a1.094 1.094 0 00-.917 1.69l5.762 8.857a1.094 1.094 0 00.917.497zm3.737-8.864l-3.738 5.762-3.745-5.757 7.483-.005z" fill="#DBE7EC"/></svg>