<svg width="18" height="21" viewBox="0 0 18 21" fill="none" xmlns="http://www.w3.org/2000/svg">
<path d="M2 20.5965H16C16.5304 20.5965 17.0391 20.3858 17.4142 20.0107C17.7893 19.6356 18 19.1269 18 18.5965V9.5965C18.0008 9.46489 17.9755 9.33443 17.9258 9.21259C17.876 9.09075 17.8027 8.97994 17.71 8.8865L9.71 0.886496C9.52264 0.700245 9.26919 0.595703 9.005 0.595703C8.74081 0.595703 8.48736 0.700245 8.3 0.886496L0.3 8.8865C0.205512 8.97911 0.130342 9.08955 0.0788453 9.21143C0.0273487 9.33331 0.00054925 9.46419 0 9.5965V18.5965C0 19.1269 0.210714 19.6356 0.585786 20.0107C0.960859 20.3858 1.46957 20.5965 2 20.5965ZM7 18.5965V13.5965H11V18.5965H7ZM2 10.0065L9 3.0065L16 10.0065V18.5965H13V13.5965C13 13.0661 12.7893 12.5574 12.4142 12.1823C12.0391 11.8072 11.5304 11.5965 11 11.5965H7C6.46957 11.5965 5.96086 11.8072 5.58579 12.1823C5.21071 12.5574 5 13.0661 5 13.5965V18.5965H2V10.0065Z" fill="white"/>
</svg>
