<svg width="33" height="32" viewBox="0 0 33 32" fill="none" xmlns="http://www.w3.org/2000/svg">
<path d="M0.555664 28.1011C0.860554 27.3683 1.48718 26.9102 2.03379 26.388C6.62988 22.0007 11.2302 17.6177 15.8297 13.2339C15.9055 13.1615 15.9872 13.0958 16.0764 13.0174C15.2047 12.3108 14.306 11.6926 13.4284 11.0449C13.3181 10.9641 13.2625 10.9885 13.1682 11.0702C12.3849 11.7532 11.6682 11.7254 10.9304 10.9902C10.521 10.5825 10.11 10.1766 9.70574 9.76387C9.07238 9.11872 9.06648 8.27395 9.70237 7.63722C11.9646 5.36907 14.2294 3.10345 16.4984 0.841199C17.12 0.221312 17.9681 0.22805 18.6006 0.847937C19.0512 1.28843 19.4959 1.73481 19.9372 2.18457C20.5504 2.80867 20.5639 3.62143 19.9735 4.26574C19.88 4.36765 19.784 4.43503 19.9044 4.60011C21.0726 6.20289 22.2003 7.83851 23.6583 9.20547C24.8719 10.3433 26.2355 11.2892 27.5747 12.267C27.6959 12.3554 27.7591 12.3293 27.8619 12.2358C28.5778 11.5823 29.3501 11.6008 30.0315 12.2779C30.4635 12.7075 30.8973 13.1353 31.3235 13.5708C31.9299 14.1907 31.9509 15.0396 31.342 15.652C29.0688 17.9386 26.788 20.2186 24.5013 22.4926C23.8865 23.1041 23.0434 23.0864 22.421 22.4783C21.9704 22.0378 21.5266 21.5906 21.0835 21.1417C20.4586 20.5083 20.4443 19.6863 21.0583 19.0411C21.1846 18.908 21.1947 18.8306 21.0844 18.6849C20.4914 17.8965 19.9044 17.104 19.3291 16.303C19.1877 16.1059 19.1161 16.1396 18.9678 16.2954C14.3271 21.1728 9.68047 26.0435 5.0389 30.92C4.55882 31.4245 4.01726 31.7134 3.30304 31.5728C3.00405 31.5138 2.75559 31.3664 2.54335 31.155C2.02958 30.6438 1.5234 30.125 1.00373 29.6196C0.796544 29.4183 0.71232 29.1471 0.555664 28.918C0.555664 28.6477 0.555664 28.3748 0.555664 28.1011ZM27.0996 13.0006C26.6524 12.6763 26.2212 12.3613 25.7883 12.0497C24.0861 10.8242 22.5002 9.47582 21.204 7.80988C20.5723 6.99796 19.9524 6.17762 19.3704 5.33033C19.1936 5.0726 19.0967 5.10713 18.9291 5.31011C18.796 5.47098 18.6351 5.60995 18.4869 5.75818C17.0467 7.19841 15.6115 8.64454 14.1595 10.0738C13.9346 10.2953 13.9675 10.3947 14.2083 10.5396C14.4231 10.6684 14.6194 10.8301 14.8232 10.9775C16.5043 12.1887 18.1306 13.4605 19.4546 15.0767C20.2396 16.0352 20.9681 17.0358 21.6908 18.0414C21.7641 18.1433 21.8104 18.2907 21.9847 18.1155C23.6802 16.4117 25.3832 14.7145 27.0996 13.0006ZM1.4358 28.5433C1.41812 28.7311 1.50992 28.8919 1.64805 29.0309C2.14497 29.5295 2.63852 30.0306 3.14134 30.5225C3.42517 30.8004 3.78902 30.8207 4.11496 30.584C4.2413 30.4922 4.35079 30.376 4.45944 30.2623C6.70569 27.9065 8.95025 25.5483 11.1965 23.1917C13.6019 20.6675 16.0065 18.1433 18.417 15.625C18.5585 15.4768 18.5905 15.3925 18.4364 15.2258C17.9799 14.7322 17.5057 14.2572 17.0155 13.7965C16.821 13.6129 16.7047 13.5961 16.495 13.7965C13.4015 16.7603 10.2978 19.7141 7.19671 22.6712C5.40274 24.3809 3.60962 26.0915 1.81397 27.8004C1.60341 28 1.42317 28.2114 1.4358 28.5433ZM19.5254 3.2441C19.5296 3.04955 19.4294 2.90637 19.2997 2.7775C18.8836 2.36144 18.4701 1.94453 18.0515 1.53099C17.6775 1.16125 17.4105 1.16462 17.0315 1.5411C16.3838 2.18541 15.7387 2.83225 15.0927 3.47825C13.5194 5.05239 11.9444 6.62569 10.3719 8.20068C10.0418 8.53083 10.0165 8.83488 10.3054 9.13219C10.7518 9.59121 11.2049 10.0443 11.6639 10.4907C11.9394 10.7577 12.2527 10.756 12.5272 10.4815C14.7945 8.2192 17.0576 5.95274 19.3216 3.68796C19.4454 3.56584 19.5288 3.42519 19.5254 3.2441ZM23.4595 22.0546C23.6414 22.0648 23.7821 21.9822 23.9059 21.8592C26.1707 19.5945 28.4363 17.3314 30.6985 15.0641C30.9849 14.7777 30.9815 14.4695 30.6977 14.178C30.258 13.7274 29.8125 13.2811 29.3602 12.8422C29.0705 12.5609 28.7656 12.5652 28.475 12.8549C26.2153 15.1096 23.9581 17.3676 21.7034 19.6265C21.3985 19.9314 21.4019 20.2228 21.7051 20.5319C22.1389 20.9741 22.5802 21.4087 23.0182 21.8475C23.1403 21.9704 23.2776 22.0614 23.4595 22.0546Z" fill="#3E3E3E"/>
<path d="M25.1606 31.6199C22.8411 31.6199 20.5207 31.6199 18.2012 31.6199C17.5813 31.6199 17.4322 31.4186 17.6074 30.8248C17.8289 30.0718 18.0479 29.318 18.2686 28.5651C18.496 27.7885 19.003 27.4061 19.8141 27.4061C23.3936 27.4053 26.9731 27.4053 30.5526 27.4061C31.33 27.4061 31.8454 27.7877 32.0636 28.5263C32.3011 29.329 32.5352 30.1325 32.7668 30.9377C32.8999 31.4 32.7222 31.6199 32.2143 31.6199C29.8636 31.6207 27.5121 31.6199 25.1606 31.6199ZM18.544 30.7136C18.6038 30.7305 18.6231 30.7414 18.6433 30.7414C22.9598 30.7423 27.2754 30.7414 31.5919 30.7473C31.7932 30.7473 31.7865 30.6656 31.7444 30.525C31.5852 29.9935 31.4277 29.4612 31.2693 28.9298C31.0967 28.3486 31.0066 28.2804 30.4103 28.2804C26.9133 28.2804 23.4163 28.2804 19.9193 28.2804C19.825 28.2804 19.7298 28.2804 19.6363 28.2871C19.43 28.3006 19.2557 28.3983 19.1942 28.5895C18.9659 29.2928 18.7587 30.0045 18.544 30.7136Z" fill="#3E3E3E"/>
</svg>
