<svg width="30" height="31" fill="none" xmlns="http://www.w3.org/2000/svg"><path d="M3 11.498c.39.39.51.946.375 1.47a12.12 12.12 0 00.15 6.57c1.32 4.366 5.16 7.65 9.66 8.325 8.28 1.215 15.285-6.09 13.545-14.43-.975-4.694-4.845-8.414-9.555-9.24a12.254 12.254 0 00-5.19.196c-.525.135-1.095 0-1.47-.375-.84-.84-.42-2.235.705-2.535 2.205-.57 4.59-.66 7.05-.135 5.97 1.29 10.635 6.27 11.55 12.3 1.56 10.214-7.23 18.87-17.46 17.13C6.345 29.737 1.47 24.983.3 18.997a15.4 15.4 0 01.18-6.795c.3-1.124 1.695-1.53 2.52-.704zm4.5-5.25a2.247 2.247 0 01-2.25 2.25A2.247 2.247 0 013 6.249a2.247 2.247 0 012.25-2.25 2.247 2.247 0 012.25 2.25zm7.545 5.235h-.105l-1.74 4.965h3.585l-1.74-4.965zM15 24.998c4.965 0 9-4.035 9-9 0-4.964-4.035-9-9-9s-9 4.035-9 9c0 4.966 4.035 9 9 9zm-5.085-5.055l3.645-9.69A1.54 1.54 0 0115 9.25c.645 0 1.23.405 1.455 1.005l3.645 9.69a.962.962 0 01-.9 1.305.97.97 0 01-.915-.645l-.84-2.415H12.6l-.855 2.43a.956.956 0 01-.915.645.981.981 0 01-.915-1.32z" fill="#2285E0"/></svg>