<svg width="41" height="40" fill="none" xmlns="http://www.w3.org/2000/svg"><path d="M39.758 39.257A2.423 2.423 0 0137.98 40c-.69 0-1.282-.248-1.777-.743l-7.734-7.742c-3.125 2.32-6.615 3.48-10.469 3.48-2.37 0-4.635-.463-6.797-1.388-2.161-.925-4.023-2.17-5.586-3.734-1.562-1.564-2.806-3.421-3.73-5.572A17.046 17.046 0 01.5 17.498c0-2.386.462-4.66 1.387-6.824.924-2.163 2.168-4.02 3.73-5.571 1.563-1.551 3.425-2.79 5.586-3.715A17.093 17.093 0 0118 0c2.37 0 4.635.463 6.797 1.388 2.161.925 4.023 2.164 5.586 3.715 1.562 1.55 2.806 3.408 3.73 5.572a17.138 17.138 0 011.387 6.803c0 3.884-1.159 7.377-3.477 10.479l7.735 7.742c.495.495.742 1.088.742 1.779 0 .69-.247 1.284-.742 1.78zM18 5.005c-2.266 0-4.355.554-6.27 1.662a12.313 12.313 0 00-4.55 4.555 12.285 12.285 0 00-1.68 6.276c0 2.254.56 4.346 1.68 6.275a12.312 12.312 0 004.55 4.555c1.915 1.108 4.004 1.662 6.27 1.662s4.355-.554 6.27-1.662a12.312 12.312 0 004.55-4.555 12.284 12.284 0 001.68-6.275c0-2.255-.56-4.347-1.68-6.276a12.313 12.313 0 00-4.55-4.555C22.355 5.559 20.266 5.005 18 5.005z" fill="#2285E0"/></svg>