<svg width="47" height="32" viewBox="0 0 47 32" fill="none" xmlns="http://www.w3.org/2000/svg">
<path d="M0.944336 2.42628C0.95876 2.42147 0.982801 2.42147 0.986407 2.41306C1.5117 1.00187 2.58992 0.631641 4.00592 0.634045C17.4495 0.659288 30.8931 0.648469 44.3366 0.648469C45.7574 0.648469 46.7167 1.36128 46.9595 2.60418C46.9967 2.7929 46.9979 2.99124 46.9979 3.18476C46.9991 11.7264 47.0003 20.2693 46.9991 28.811C46.9991 30.3688 46.0075 31.3641 44.4424 31.3641C30.8041 31.3665 17.1658 31.3665 3.52751 31.3641C2.23292 31.3641 1.46482 30.8148 1.02487 29.5947C1.01165 29.5574 0.971983 29.5298 0.944336 29.4973C0.944336 20.4748 0.944336 11.4512 0.944336 2.42628ZM2.76181 3.57062C2.76181 11.8262 2.76181 20.0109 2.76181 28.2592C6.02174 24.2336 9.23598 20.2645 12.4502 16.2954C12.5536 16.168 12.6534 16.0333 12.7772 15.9275C13.0524 15.6907 13.371 15.6559 13.7003 15.7965C14.0369 15.9396 14.204 16.2184 14.2256 16.5706C14.2437 16.8723 14.0754 17.1055 13.8915 17.3315C10.7121 21.2538 7.5363 25.1784 4.36052 29.1031C4.24392 29.2473 4.13574 29.3964 4.01434 29.5562C17.3413 29.5562 30.6238 29.5562 43.9508 29.5562C42.9014 28.2592 41.8845 27.0031 40.8688 25.747C38.5969 22.9402 36.3263 20.1335 34.052 17.3279C33.8392 17.0647 33.6565 16.799 33.7347 16.436C33.8104 16.0814 34.0232 15.8374 34.3693 15.7496C34.8153 15.6355 35.135 15.8422 35.4151 16.1884C38.3697 19.8486 41.3315 23.504 44.2922 27.1606C44.577 27.5128 44.8643 27.8626 45.1901 28.2628C45.1901 19.9928 45.1901 11.8082 45.1901 3.57302C45.0302 3.69082 44.9112 3.77737 44.7946 3.86512C38.7556 8.39319 32.7165 12.9225 26.6775 17.4505C24.9358 18.7559 23.0305 18.7619 21.2984 17.4637C16.4205 13.8084 11.5451 10.1518 6.66843 6.49517C5.37744 5.52994 4.08646 4.5635 2.76181 3.57062ZM4.23791 2.44912C4.37134 2.5549 4.44707 2.6162 4.5252 2.6751C10.5017 7.15749 16.477 11.6411 22.4548 16.1223C23.4356 16.8579 24.5379 16.8387 25.5584 16.073C31.5109 11.6098 37.4622 7.14668 43.4123 2.68111C43.494 2.61981 43.6346 2.59216 43.6274 2.45032C30.5168 2.44912 17.4146 2.44912 4.23791 2.44912Z" fill="#2285E0"/>
</svg>
