<svg width="15" height="12" viewBox="0 0 15 12" fill="none" xmlns="http://www.w3.org/2000/svg">
<path d="M12.8333 11.3333H2.16668C1.81305 11.3333 1.47392 11.1929 1.22387 10.9428C0.973819 10.6928 0.833344 10.3536 0.833344 10V1.94201C0.848299 1.59853 0.995349 1.27411 1.2438 1.03647C1.49224 0.798834 1.82288 0.666347 2.16668 0.666672H12.8333C13.187 0.666672 13.5261 0.807148 13.7762 1.0572C14.0262 1.30725 14.1667 1.64638 14.1667 2.00001V10C14.1667 10.3536 14.0262 10.6928 13.7762 10.9428C13.5261 11.1929 13.187 11.3333 12.8333 11.3333ZM2.16668 3.24534V10H12.8333V3.24534L7.50001 6.80001L2.16668 3.24534ZM2.70001 2.00001L7.50001 5.20001L12.3 2.00001H2.70001Z" fill="#2285E0"/>
</svg>
