<svg width="46" height="51" viewBox="0 0 46 51" fill="none" xmlns="http://www.w3.org/2000/svg">
<path d="M23 20.5156C26.0214 20.5156 28.25 18.3923 28.25 15.5078C28.25 12.6233 26.0214 10.5 23 10.5C19.9813 10.5 17.75 12.6233 17.75 15.5078C17.75 18.3923 19.9813 20.5156 23 20.5156ZM23 23.0195C17.2014 23.0195 12.5 27.0558 12.5 32.0335V33H33.5V32.0335C33.5 27.0558 28.7986 23.0195 23 23.0195Z" fill="#29C4A8"/>
<path d="M40.5 0H5.5C2.7425 0 0.5 2.28735 0.5 5.1V38.25C0.5 41.0626 2.7425 43.35 5.5 43.35H15.5L23 51L30.5 43.35H40.5C43.2575 43.35 45.5 41.0626 45.5 38.25V5.1C45.5 2.28735 43.2575 0 40.5 0ZM28 38.25L23 43.35L18 38.25H5.5V5.1H40.5L40.505 38.25H28Z" fill="#29C4A8"/>
</svg>
