<svg width="21" height="22" viewBox="0 0 21 22" fill="none" xmlns="http://www.w3.org/2000/svg">
<path d="M5 11.9985C4.80222 11.9985 4.60888 12.0571 4.44443 12.167C4.27998 12.2769 4.15181 12.4331 4.07612 12.6158C4.00043 12.7985 3.98063 12.9996 4.01921 13.1936C4.0578 13.3876 4.15304 13.5657 4.29289 13.7056C4.43275 13.8454 4.61093 13.9407 4.80491 13.9793C4.99889 14.0179 5.19996 13.9981 5.38268 13.9224C5.56541 13.8467 5.72159 13.7185 5.83147 13.5541C5.94135 13.3896 6 13.1963 6 12.9985C6 12.7333 5.89464 12.4789 5.70711 12.2914C5.51957 12.1038 5.26522 11.9985 5 11.9985ZM17.76 8.10849L16.41 4.04849C16.202 3.4601 15.8157 2.95122 15.3048 2.59274C14.794 2.23425 14.1841 2.044 13.56 2.04848H7.66C7.39478 2.04848 7.14043 2.15384 6.95289 2.34138C6.76536 2.52891 6.66 2.78327 6.66 3.04849C6.66 3.3137 6.76536 3.56806 6.95289 3.75559C7.14043 3.94313 7.39478 4.04849 7.66 4.04849H13.56C13.7793 4.03775 13.9961 4.09951 14.1768 4.22421C14.3575 4.34891 14.4922 4.52964 14.56 4.73849L15.61 7.99849H13.66C13.3948 7.99849 13.1404 8.10384 12.9529 8.29138C12.7654 8.47892 12.66 8.73327 12.66 8.99849C12.66 9.2637 12.7654 9.51806 12.9529 9.70559C13.1404 9.89313 13.3948 9.99849 13.66 9.99849H17C17.2652 9.99849 17.5196 10.1038 17.7071 10.2914C17.8946 10.4789 18 10.7333 18 10.9985V14.3385C18 14.6037 18.1054 14.8581 18.2929 15.0456C18.4804 15.2331 18.7348 15.3385 19 15.3385C19.2652 15.3385 19.5196 15.2331 19.7071 15.0456C19.8946 14.8581 20 14.6037 20 14.3385V10.9985C19.9973 10.3372 19.7763 9.69542 19.3712 9.17279C18.9661 8.65015 18.3997 8.276 17.76 8.10849ZM1.76 1.28848C1.5717 1.09355 1.31367 0.981404 1.04268 0.976716C0.771688 0.972027 0.509934 1.07518 0.315 1.26349C0.120066 1.45179 0.00791922 1.70982 0.00323081 1.98081C-0.0014576 2.2518 0.101696 2.51355 0.29 2.70849L3.11 5.51849L2.24 8.10849C1.60033 8.276 1.03392 8.65015 0.628829 9.17279C0.223743 9.69542 0.00267662 10.3372 0 10.9985V14.9985C0.00173951 15.6174 0.194879 16.2207 0.552938 16.7256C0.910998 17.2304 1.41645 17.6122 2 17.8185V18.9985C2 19.2637 2.10536 19.5181 2.29289 19.7056C2.48043 19.8931 2.73478 19.9985 3 19.9985C3.26522 19.9985 3.51957 19.8931 3.70711 19.7056C3.89464 19.5181 4 19.2637 4 18.9985V17.9985H15.59L16 18.4085V18.9985C16 19.2637 16.1054 19.5181 16.2929 19.7056C16.4804 19.8931 16.7348 19.9985 17 19.9985C17.1622 19.9969 17.321 19.952 17.46 19.8685L18.29 20.7085C18.383 20.8022 18.4936 20.8766 18.6154 20.9274C18.7373 20.9781 18.868 21.0043 19 21.0043C19.132 21.0043 19.2627 20.9781 19.3846 20.9274C19.5064 20.8766 19.617 20.8022 19.71 20.7085C19.8037 20.6155 19.8781 20.5049 19.9289 20.3831C19.9797 20.2612 20.0058 20.1305 20.0058 19.9985C20.0058 19.8665 19.9797 19.7358 19.9289 19.6139C19.8781 19.4921 19.8037 19.3815 19.71 19.2885L1.76 1.28848ZM4.76 7.09849L5.66 7.99849H4.39L4.76 7.09849ZM3 15.9985C2.73478 15.9985 2.48043 15.8931 2.29289 15.7056C2.10536 15.5181 2 15.2637 2 14.9985V10.9985C2 10.7333 2.10536 10.4789 2.29289 10.2914C2.48043 10.1038 2.73478 9.99849 3 9.99849H7.59L9.59 11.9985H9C8.73478 11.9985 8.48043 12.1038 8.29289 12.2914C8.10536 12.4789 8 12.7333 8 12.9985C8 13.2637 8.10536 13.5181 8.29289 13.7056C8.48043 13.8931 8.73478 13.9985 9 13.9985H11C11.1622 13.9969 11.321 13.952 11.46 13.8685L13.59 15.9985H3Z" fill="#2285E0"/>
</svg>
