<svg width="25" height="24" fill="none" xmlns="http://www.w3.org/2000/svg"><path fill-rule="evenodd" clip-rule="evenodd" d="M12.487 24c6.627 0 12-5.373 12-12s-5.373-12-12-12c-6.628 0-12 5.373-12 12s5.372 12 12 12zM8.952 8.742c0 1.892 1.6 3.49 3.525 3.49l.012.001a3.503 3.503 0 003.514-3.49c0-1.958-1.534-3.557-3.525-3.557-1.926 0-3.526 1.6-3.526 3.556zm2.09.001c0-.816.62-1.501 1.435-1.501.85 0 1.437.684 1.437 1.501 0 .815-.588 1.435-1.436 1.435-.816 0-1.436-.62-1.436-1.435zm4.83 8.318l-1.99-1.924c.75-.228 1.469-.522 2.088-.914.457-.261.589-.913.294-1.403-.293-.489-.913-.619-1.435-.293a4.51 4.51 0 01-4.7 0c-.523-.326-1.11-.196-1.436.293-.261.49-.164 1.142.326 1.403a9.19 9.19 0 002.087.913L9.082 17.06c-.391.423-.391 1.044 0 1.435.23.195.49.293.719.293.294 0 .556-.097.751-.293l1.926-1.957 1.99 1.957c.327.423.98.423 1.404 0 .392-.391.392-1.012 0-1.435z" fill="#9FB7D3"/></svg>