<svg width="80" height="80" fill="none" xmlns="http://www.w3.org/2000/svg"><path d="M45.604 33.692a1.094 1.094 0 00.147-.99l-.805-2.366c-.58-1.706-2.447-3.043-4.25-3.043H25.33c-1.808 0-3.665 1.346-4.226 3.065l-.77 2.357a1.094 1.094 0 001.04 1.434h23.341a1.093 1.093 0 00.89-.457zm-22.722-1.73l.301-.924c.266-.815 1.29-1.558 2.147-1.558h15.366c.863 0 1.901.744 2.179 1.56l.312.921H22.882zm1.026 4.093a1.094 1.094 0 100 2.187h18.147a1.093 1.093 0 100-2.187H23.908zM57.1 38.836h-5.217a1.094 1.094 0 00-1.094 1.094v5.216a1.094 1.094 0 001.094 1.094h1.16a1.094 1.094 0 100-2.188h-.066v-3.029h3.086a1.094 1.094 0 002.13-.348v-.745a1.093 1.093 0 00-1.093-1.094zM50.79 55.29a1.094 1.094 0 001.093 1.095H57.1a1.094 1.094 0 001.093-1.094v-5.217a1.094 1.094 0 00-1.093-1.093h-5.217a1.094 1.094 0 00-1.094 1.093v5.217zm2.187-4.122h3.029v3.03h-3.03v-3.03zM50.79 65.435a1.094 1.094 0 001.093 1.094h1.16a1.094 1.094 0 000-2.187h-.066v-3.03h3.03a1.093 1.093 0 102.187-.026v-1.067a1.094 1.094 0 00-1.094-1.094h-5.217a1.094 1.094 0 00-1.094 1.094v5.216z" fill="#DBE7EC"/><path d="M61.206 40.188a1.092 1.092 0 00-1.547 0l-3.252 3.253-.997-.996a1.092 1.092 0 00-1.867.773 1.095 1.095 0 00.32.774l1.77 1.77a1.095 1.095 0 001.547 0l4.026-4.027a1.094 1.094 0 000-1.547zM59.66 60.633l-3.253 3.253-.997-.996a1.096 1.096 0 00-1.784.355 1.095 1.095 0 00.237 1.192l1.77 1.77a1.093 1.093 0 001.547 0l4.027-4.027a1.094 1.094 0 10-1.547-1.547zM48.206 22.775a1.094 1.094 0 002.187 0 6.134 6.134 0 10-12.268 0 1.093 1.093 0 102.188 0 3.947 3.947 0 017.893 0zM13.313 28.46a3.614 3.614 0 100 7.228 3.614 3.614 0 000-7.227zm0 5.04a1.426 1.426 0 110-2.851 1.426 1.426 0 010 2.852zm49.647 9.04a1.094 1.094 0 001.095 1.093h6.955a1.094 1.094 0 100-2.188h-6.955a1.093 1.093 0 00-1.094 1.094zm8.05 9.05h-6.955a1.094 1.094 0 000 2.187h6.955a1.094 1.094 0 100-2.187zm0 10.14h-6.955a1.094 1.094 0 100 2.188h6.955a1.094 1.094 0 000-2.188z" fill="#DBE7EC"/><path d="M58.33 17.178c-1.162 0-3.212-.007-4.254-.011l-1.909-3.519c-1.406-2.522-3.464-5.418-6.92-5.418H21.046c-2.81 0-5.296 1.928-7.003 5.428l-1.99 3.526a2698.51 2698.51 0 00-4.294-.006c-2.094 0-3.8 1.057-4.344 2.693a9.226 9.226 0 00-.444 2.238 1.093 1.093 0 001.092 1.147h.001l2.483-.004c-1.125 1.07-1.827 2.657-1.827 4.456 0 .046.002.091.008.137l1.42 11.213A3.531 3.531 0 008.9 42.422v3.42a2.313 2.313 0 002.309 2.31h3.692a2.313 2.313 0 002.309-2.31v-3.334h29.744a1.094 1.094 0 100-2.187H9.671a1.339 1.339 0 01-1.337-1.338 1.04 1.04 0 00-.009-.137L6.907 27.643c.029-2.185 1.506-3.521 2.992-3.622.053.008.107.013.161.013h45.872l.024.001c1.967 0 3.194 1.859 3.224 3.606l-.094.718a1.094 1.094 0 002.168.287l.105-.794c.006-.048.01-.096.01-.144a6.055 6.055 0 00-1.898-4.45h2.555a1.092 1.092 0 001.092-1.147 9.239 9.239 0 00-.444-2.239c-.545-1.637-2.25-2.694-4.344-2.694zm-47.242 25.33h3.936v3.334a.122.122 0 01-.122.123H11.21a.122.122 0 01-.122-.123v-3.334zM9.865 21.061l-4.522.006c.04-.16.088-.33.145-.504.24-.716 1.151-1.197 2.27-1.197l3.061.003-.954 1.692zm2.068.786l4.03-7.143a.93.93 0 00.032-.06c.765-1.578 2.439-4.226 5.049-4.226h24.203c1.832 0 3.33 1.285 5.003 4.285l3.875 7.143H11.933zm44.261-.776l-.929-1.713c1.028.004 2.26.007 3.064.007 1.119 0 2.032.481 2.27 1.197.058.174.106.344.146.506l-4.55.003z" fill="#DBE7EC"/><path d="M54.552 30.302h-3.945a4.751 4.751 0 00-4.746 4.746v31.973a4.751 4.751 0 004.746 4.746h21.678a4.751 4.751 0 004.746-4.746V35.048a4.751 4.751 0 00-4.746-4.746H68.34a3.78 3.78 0 00-3.667-2.88h-6.454a3.78 3.78 0 00-3.667 2.88zm13.747 2.188h3.986a2.561 2.561 0 012.558 2.558v31.973a2.561 2.561 0 01-2.558 2.558H50.607a2.56 2.56 0 01-2.558-2.558V35.048a2.561 2.561 0 012.558-2.558h3.986a3.781 3.781 0 003.626 2.726h6.454a3.78 3.78 0 003.626-2.726zm-2.038-1.293v.244a1.59 1.59 0 01-1.588 1.588h-6.454a1.59 1.59 0 01-1.588-1.588v-.244a1.59 1.59 0 011.588-1.588h6.454a1.589 1.589 0 011.588 1.588z" fill="#DBE7EC"/></svg>