<svg width="80" height="80" viewBox="0 0 80 80" fill="none" xmlns="http://www.w3.org/2000/svg">
<path d="M45.6043 33.6919C45.7055 33.5505 45.7716 33.387 45.797 33.215C45.8225 33.043 45.8065 32.8674 45.7505 32.7028L44.9459 30.3364C44.3654 28.6297 42.4987 27.293 40.6959 27.293H25.3298C23.5215 27.293 21.6654 28.6394 21.1038 30.3584L20.3343 32.7155C20.2807 32.8797 20.2667 33.0542 20.2935 33.2249C20.3204 33.3955 20.3872 33.5574 20.4887 33.6972C20.5901 33.837 20.7232 33.9509 20.8771 34.0293C21.031 34.1078 21.2013 34.1487 21.374 34.1487H44.7151C44.8889 34.1487 45.0603 34.1073 45.2149 34.0278C45.3696 33.9484 45.5031 33.8332 45.6043 33.6919V33.6919ZM22.8818 31.9612L23.1834 31.0375C23.449 30.2227 24.4726 29.4805 25.3298 29.4805H40.696C41.5585 29.4805 42.5971 30.2242 42.8748 31.0408L43.1873 31.9612H22.8818Z" fill="#DBE7EC"/>
<path d="M23.9082 36.0547C23.6181 36.0547 23.3399 36.1699 23.1348 36.375C22.9297 36.5802 22.8145 36.8584 22.8145 37.1484C22.8145 37.4385 22.9297 37.7167 23.1348 37.9218C23.3399 38.127 23.6181 38.2422 23.9082 38.2422H42.0548C42.3449 38.2422 42.6231 38.127 42.8282 37.9218C43.0333 37.7167 43.1485 37.4385 43.1485 37.1484C43.1485 36.8584 43.0333 36.5802 42.8282 36.375C42.6231 36.1699 42.3449 36.0547 42.0548 36.0547H23.9082Z" fill="#DBE7EC"/>
<path d="M57.0997 38.8359H51.8828C51.5927 38.8359 51.3145 38.9512 51.1094 39.1563C50.9043 39.3614 50.7891 39.6396 50.7891 39.9297V45.1463C50.7891 45.4363 50.9043 45.7145 51.1094 45.9197C51.3145 46.1248 51.5927 46.24 51.8828 46.24H53.0422C53.3323 46.24 53.6105 46.1248 53.8156 45.9197C54.0207 45.7145 54.1359 45.4363 54.1359 45.1463C54.1359 44.8562 54.0207 44.578 53.8156 44.3729C53.6105 44.1677 53.3323 44.0525 53.0422 44.0525H52.9766V41.0234H56.0628C56.1453 41.2696 56.3128 41.4784 56.5351 41.6125C56.7575 41.7465 57.0203 41.7971 57.2765 41.7552C57.5328 41.7133 57.7657 41.5815 57.9337 41.3836C58.1018 41.1856 58.1939 40.9343 58.1936 40.6747V39.9297C58.1936 39.786 58.1653 39.6438 58.1103 39.5111C58.0554 39.3784 57.9748 39.2578 57.8732 39.1562C57.7716 39.0547 57.651 38.9741 57.5183 38.9192C57.3856 38.8642 57.2433 38.8359 57.0997 38.8359V38.8359Z" fill="#DBE7EC"/>
<path d="M50.7891 55.2909C50.7891 55.581 50.9043 55.8592 51.1094 56.0643C51.3145 56.2694 51.5927 56.3847 51.8828 56.3847H57.0997C57.3898 56.3847 57.668 56.2694 57.8731 56.0643C58.0782 55.8592 58.1934 55.581 58.1934 55.2909V50.0742C58.1934 49.7841 58.0782 49.5059 57.8731 49.3008C57.668 49.0957 57.3898 48.9805 57.0997 48.9805H51.8828C51.5927 48.9805 51.3145 49.0957 51.1094 49.3008C50.9043 49.5059 50.7891 49.7841 50.7891 50.0742V55.2909ZM52.9766 51.168H56.0059V54.1972H52.9766V51.168Z" fill="#DBE7EC"/>
<path d="M50.7891 65.4353C50.7891 65.7254 50.9043 66.0036 51.1094 66.2087C51.3145 66.4138 51.5927 66.5291 51.8828 66.5291H53.0423C53.3324 66.5291 53.6106 66.4138 53.8157 66.2087C54.0209 66.0036 54.1361 65.7254 54.1361 65.4353C54.1361 65.1452 54.0209 64.867 53.8157 64.6619C53.6106 64.4568 53.3324 64.3416 53.0423 64.3416H52.9766V61.3125H56.0063C56.0098 61.6026 56.1284 61.8794 56.3361 62.082C56.5437 62.2846 56.8233 62.3964 57.1134 62.3929C57.4035 62.3893 57.6802 62.2707 57.8829 62.0631C58.0855 61.8555 58.1973 61.5759 58.1938 61.2858V60.2187C58.1938 59.9287 58.0785 59.6505 57.8734 59.4453C57.6683 59.2402 57.3901 59.125 57.1 59.125H51.8828C51.5927 59.125 51.3145 59.2402 51.1094 59.4453C50.9043 59.6505 50.7891 59.9287 50.7891 60.2187V65.4353Z" fill="#DBE7EC"/>
<path d="M61.206 40.1876C61.1044 40.086 60.9839 40.0054 60.8511 39.9505C60.7184 39.8955 60.5762 39.8672 60.4326 39.8672C60.2889 39.8672 60.1467 39.8955 60.014 39.9505C59.8813 40.0054 59.7607 40.086 59.6591 40.1876L56.4066 43.4412L55.4102 42.4448C55.3086 42.3432 55.1881 42.2626 55.0554 42.2077C54.9227 42.1527 54.7804 42.1244 54.6368 42.1244C54.4931 42.1244 54.3509 42.1527 54.2182 42.2077C54.0855 42.2626 53.9649 42.3432 53.8633 42.4448C53.7618 42.5463 53.6812 42.6669 53.6262 42.7996C53.5713 42.9323 53.543 43.0746 53.543 43.2182C53.543 43.3618 53.5713 43.5041 53.6262 43.6368C53.6812 43.7695 53.7618 43.8901 53.8633 43.9916L55.633 45.7613C55.7346 45.8629 55.8552 45.9435 55.9879 45.9985C56.1206 46.0534 56.2628 46.0817 56.4065 46.0817C56.5501 46.0817 56.6923 46.0534 56.825 45.9985C56.9578 45.9435 57.0783 45.8629 57.1799 45.7613L61.2065 41.7346C61.308 41.633 61.3886 41.5124 61.4435 41.3797C61.4985 41.2469 61.5267 41.1047 61.5267 40.961C61.5267 40.8173 61.4983 40.6751 61.4433 40.5424C61.3883 40.4097 61.3076 40.2891 61.206 40.1876V40.1876Z" fill="#DBE7EC"/>
<path d="M59.6591 60.6329L56.4066 63.8861L55.4102 62.8897C55.3086 62.7882 55.1881 62.7076 55.0554 62.6526C54.9226 62.5977 54.7804 62.5694 54.6368 62.5694C54.4931 62.5694 54.3509 62.5977 54.2182 62.6526C54.0855 62.7076 53.9649 62.7882 53.8633 62.8897C53.7618 62.9913 53.6812 63.1119 53.6262 63.2446C53.5713 63.3773 53.543 63.5195 53.543 63.6632C53.543 63.8068 53.5713 63.9491 53.6262 64.0818C53.6812 64.2145 53.7618 64.335 53.8633 64.4366L55.633 66.2063C55.7346 66.3079 55.8552 66.3885 55.9879 66.4434C56.1206 66.4984 56.2628 66.5267 56.4065 66.5267C56.5501 66.5267 56.6923 66.4984 56.825 66.4434C56.9577 66.3885 57.0783 66.3079 57.1799 66.2063L61.2066 62.1797C61.4117 61.9746 61.527 61.6964 61.527 61.4063C61.527 61.1162 61.4117 60.838 61.2066 60.6329C61.0015 60.4277 60.7233 60.3125 60.4332 60.3125C60.1431 60.3125 59.8649 60.4277 59.6597 60.6329H59.6591Z" fill="#DBE7EC"/>
<path d="M48.2056 22.7747C48.2056 23.0648 48.3209 23.343 48.526 23.5481C48.7311 23.7532 49.0093 23.8684 49.2994 23.8684C49.5895 23.8684 49.8677 23.7532 50.0728 23.5481C50.2779 23.343 50.3931 23.0648 50.3931 22.7747C50.3931 21.1478 49.7469 19.5876 48.5965 18.4373C47.4461 17.2869 45.8859 16.6406 44.2591 16.6406C42.6322 16.6406 41.072 17.2869 39.9216 18.4373C38.7713 19.5876 38.125 21.1478 38.125 22.7747C38.125 23.0648 38.2402 23.343 38.4454 23.5481C38.6505 23.7532 38.9287 23.8684 39.2188 23.8684C39.5088 23.8684 39.787 23.7532 39.9921 23.5481C40.1973 23.343 40.3125 23.0648 40.3125 22.7747C40.3125 21.728 40.7283 20.7242 41.4684 19.984C42.2085 19.2439 43.2124 18.8281 44.2591 18.8281C45.3058 18.8281 46.3096 19.2439 47.0497 19.984C47.7898 20.7242 48.2056 21.728 48.2056 22.7747V22.7747Z" fill="#DBE7EC"/>
<path d="M13.313 28.4609C12.5982 28.4609 11.8996 28.6729 11.3053 29.07C10.711 29.467 10.2478 30.0314 9.9743 30.6918C9.70078 31.3521 9.62922 32.0787 9.76866 32.7797C9.90809 33.4807 10.2523 34.1246 10.7577 34.63C11.2631 35.1354 11.907 35.4796 12.608 35.619C13.309 35.7584 14.0356 35.6869 14.6959 35.4134C15.3562 35.1398 15.9206 34.6767 16.3177 34.0824C16.7148 33.4881 16.9267 32.7894 16.9267 32.0747C16.9257 31.1166 16.5446 30.198 15.8671 29.5205C15.1896 28.843 14.2711 28.462 13.313 28.4609ZM13.313 33.5008C13.0309 33.5008 12.7551 33.4171 12.5206 33.2604C12.286 33.1037 12.1032 32.8809 11.9953 32.6203C11.8873 32.3597 11.8591 32.0729 11.9141 31.7962C11.9692 31.5196 12.105 31.2654 12.3045 31.066C12.504 30.8665 12.7581 30.7307 13.0348 30.6757C13.3115 30.6207 13.5983 30.6489 13.8589 30.7569C14.1195 30.8649 14.3422 31.0477 14.4989 31.2823C14.6556 31.5168 14.7393 31.7926 14.7392 32.0747C14.7388 32.4528 14.5883 32.8153 14.321 33.0826C14.0536 33.3499 13.6911 33.5002 13.313 33.5006V33.5008Z" fill="#DBE7EC"/>
<path d="M62.9609 42.5391C62.9609 42.8291 63.0762 43.1073 63.2813 43.3125C63.4864 43.5176 63.7646 43.6328 64.0547 43.6328H71.0103C71.3004 43.6328 71.5786 43.5176 71.7837 43.3125C71.9888 43.1073 72.1041 42.8291 72.1041 42.5391C72.1041 42.249 71.9888 41.9708 71.7837 41.7657C71.5786 41.5605 71.3004 41.4453 71.0103 41.4453H64.0547C63.7646 41.4453 63.4864 41.5605 63.2813 41.7657C63.0762 41.9708 62.9609 42.249 62.9609 42.5391V42.5391Z" fill="#DBE7EC"/>
<path d="M71.0103 51.5898H64.0547C63.7646 51.5898 63.4864 51.7051 63.2813 51.9102C63.0762 52.1153 62.9609 52.3935 62.9609 52.6836C62.9609 52.9737 63.0762 53.2519 63.2813 53.457C63.4864 53.6621 63.7646 53.7773 64.0547 53.7773H71.0103C71.3004 53.7773 71.5786 53.6621 71.7837 53.457C71.9888 53.2519 72.1041 52.9737 72.1041 52.6836C72.1041 52.3935 71.9888 52.1153 71.7837 51.9102C71.5786 51.7051 71.3004 51.5898 71.0103 51.5898Z" fill="#DBE7EC"/>
<path d="M71.0103 61.7305H64.0547C63.7646 61.7305 63.4864 61.8457 63.2813 62.0508C63.0762 62.2559 62.9609 62.5341 62.9609 62.8242C62.9609 63.1143 63.0762 63.3925 63.2813 63.5976C63.4864 63.8027 63.7646 63.918 64.0547 63.918H71.0103C71.3004 63.918 71.5786 63.8027 71.7837 63.5976C71.9888 63.3925 72.1041 63.1143 72.1041 62.8242C72.1041 62.5341 71.9888 62.2559 71.7837 62.0508C71.5786 61.8457 71.3004 61.7305 71.0103 61.7305V61.7305Z" fill="#DBE7EC"/>
<path d="M58.3299 17.1778C57.1681 17.1778 55.1178 17.1706 54.0764 17.1667L52.1675 13.648C50.7613 11.1258 48.7028 8.23047 45.2477 8.23047H21.0446C18.2346 8.23047 15.7489 10.1575 14.0424 13.6581L12.0524 17.1838C11.0096 17.1817 8.92736 17.1778 7.75768 17.1778C5.66393 17.1778 3.95861 18.2348 3.41392 19.8708C3.17389 20.5957 3.02478 21.3476 2.97002 22.1092C2.96289 22.2571 2.98585 22.4048 3.0375 22.5435C3.08915 22.6822 3.16841 22.809 3.27049 22.9162C3.37258 23.0234 3.49535 23.1087 3.63139 23.1671C3.76742 23.2254 3.91388 23.2555 4.06189 23.2556H4.0633L6.54564 23.2523C5.42064 24.3228 4.71861 25.9086 4.71861 27.7077C4.71858 27.7536 4.72145 27.7995 4.72721 27.845L6.14674 39.0581C6.16476 39.8457 6.44561 40.6046 6.94462 41.2142C7.44363 41.8238 8.13214 42.249 8.90064 42.4222V45.8425C8.90143 46.4548 9.14498 47.0417 9.5779 47.4747C10.0108 47.9076 10.5978 48.1512 11.21 48.152H14.9016C15.5138 48.1512 16.1008 47.9076 16.5337 47.4747C16.9666 47.0417 17.2102 46.4548 17.211 45.8425V42.5081H46.955C47.2451 42.5081 47.5233 42.3929 47.7284 42.1878C47.9335 41.9827 48.0488 41.7045 48.0488 41.4144C48.0488 41.1243 47.9335 40.8461 47.7284 40.641C47.5233 40.4359 47.2451 40.3206 46.955 40.3206H9.67127C9.31664 40.3202 8.97666 40.1792 8.72591 39.9284C8.47517 39.6776 8.33414 39.3376 8.33377 38.983C8.33375 38.9371 8.33083 38.8912 8.32502 38.8456L6.90689 27.6425C6.9358 25.458 8.41252 24.1217 9.89877 24.0211C9.95223 24.0294 10.0062 24.0338 10.0603 24.0341H55.9321C55.9402 24.0341 55.9477 24.0353 55.9563 24.0353C57.9228 24.0353 59.1497 25.8936 59.1805 27.6406L59.0857 28.3594C59.0477 28.6469 59.1255 28.9378 59.3019 29.168C59.4784 29.3982 59.739 29.5489 60.0266 29.5869C60.0746 29.5933 60.1229 29.5965 60.1713 29.5966C60.4363 29.5962 60.6922 29.4997 60.8914 29.3248C61.0906 29.15 61.2196 28.9087 61.2542 28.6459L61.3592 27.8517C61.3655 27.8042 61.3686 27.7564 61.3686 27.7084C61.3752 26.8759 61.2101 26.0509 60.8835 25.2851C60.557 24.5192 60.0761 23.8289 59.4708 23.2572H62.026C62.174 23.2572 62.3205 23.2271 62.4566 23.1687C62.5927 23.1104 62.7155 23.025 62.8176 22.9178C62.9197 22.8106 62.999 22.6838 63.0507 22.5451C63.1023 22.4063 63.1253 22.2585 63.1181 22.1106C63.0632 21.3491 62.9141 20.5972 62.6742 19.8723C62.1289 18.2348 60.4238 17.1778 58.3299 17.1778ZM11.0881 42.5081H15.0235V45.8425C15.0235 45.8748 15.0106 45.9059 14.9878 45.9287C14.9649 45.9516 14.9339 45.9645 14.9016 45.9645H11.21C11.1777 45.9645 11.1467 45.9516 11.1238 45.9287C11.101 45.9059 11.0881 45.8748 11.0881 45.8425V42.5081ZM9.86471 21.0613L5.34283 21.067C5.38268 20.9064 5.43064 20.7366 5.48846 20.5631C5.72721 19.847 6.63908 19.3659 7.75768 19.3659C8.55924 19.3659 9.78893 19.3678 10.8192 19.3695L9.86471 21.0613ZM11.9331 21.8467L15.9635 14.7041C15.9747 14.6842 15.9852 14.6641 15.9947 14.6439C16.7603 13.0658 18.4336 10.418 21.0438 10.418H45.2469C47.0788 10.418 48.5771 11.7025 50.2502 14.7025L54.1252 21.8461L11.9331 21.8467ZM56.1941 21.0708L55.265 19.3581C56.293 19.3616 57.5244 19.365 58.3294 19.365C59.448 19.365 60.3606 19.8461 60.5986 20.5622C60.6566 20.7363 60.7047 20.9059 60.7447 21.0683L56.1941 21.0708Z" fill="#DBE7EC"/>
<path d="M54.5518 30.3025H50.6071C49.3489 30.3039 48.1426 30.8044 47.2529 31.6941C46.3632 32.5838 45.8627 33.7901 45.8613 35.0483V67.0211C45.8627 68.2793 46.3632 69.4856 47.2529 70.3753C48.1426 71.265 49.3489 71.7655 50.6071 71.7669H72.2849C73.5431 71.7655 74.7494 71.265 75.6391 70.3753C76.5288 69.4856 77.0293 68.2793 77.0307 67.0211V35.0483C77.0293 33.7901 76.5288 32.5838 75.6391 31.6941C74.7494 30.8044 73.5431 30.3039 72.2849 30.3025H68.3402C68.1389 29.4815 67.6683 28.7517 67.0036 28.2296C66.3388 27.7074 65.5183 27.423 64.673 27.4219H58.219C57.3737 27.423 56.5532 27.7074 55.8885 28.2296C55.2237 28.7517 54.7531 29.4815 54.5518 30.3025ZM68.2988 32.49H72.2849C72.9632 32.4908 73.6134 32.7606 74.093 33.2402C74.5726 33.7198 74.8424 34.37 74.8432 35.0483V67.0211C74.8424 67.6994 74.5727 68.3496 74.0931 68.8292C73.6135 69.3089 72.9632 69.5786 72.2849 69.5794H50.6071C49.9288 69.5786 49.2786 69.3089 48.799 68.8292C48.3193 68.3496 48.0496 67.6994 48.0488 67.0211V35.0483C48.0496 34.37 48.3194 33.7198 48.799 33.2402C49.2786 32.7606 49.9289 32.4908 50.6071 32.49H54.5932C54.8214 33.2754 55.2982 33.9656 55.9519 34.4571C56.6056 34.9487 57.4011 35.215 58.219 35.2161H64.673C65.4909 35.215 66.2864 34.9487 66.9401 34.4571C67.5939 33.9656 68.0706 33.2754 68.2988 32.49V32.49ZM66.2609 31.197V31.4408C66.2604 31.8617 66.0929 32.2653 65.7952 32.563C65.4976 32.8607 65.094 33.0281 64.673 33.0286H58.219C57.798 33.0281 57.3945 32.8606 57.0968 32.563C56.7992 32.2653 56.6318 31.8617 56.6313 31.4408V31.197C56.6318 30.7761 56.7992 30.3725 57.0968 30.0749C57.3945 29.7772 57.798 29.6098 58.219 29.6094H64.673C65.094 29.6098 65.4976 29.7772 65.7952 30.0749C66.0929 30.3725 66.2604 30.7761 66.2609 31.197V31.197Z" fill="#DBE7EC"/>
</svg>
