<svg width="18" height="21" viewBox="0 0 18 21" fill="none" xmlns="http://www.w3.org/2000/svg">
<path d="M9.00078 8.80701C10.2093 8.80701 11.1008 7.95769 11.1008 6.8039C11.1008 5.6501 10.2093 4.80078 9.00078 4.80078C7.79328 4.80078 6.90078 5.6501 6.90078 6.8039C6.90078 7.95769 7.79328 8.80701 9.00078 8.80701ZM9.00078 9.80857C6.68133 9.80857 4.80078 11.4231 4.80078 13.4142V13.8008H13.2008V13.4142C13.2008 11.4231 11.3202 9.80857 9.00078 9.80857Z" fill="#2285E0"/>
<path d="M16 0.601562H2C0.897 0.601562 0 1.5165 0 2.64156V15.9016C0 17.0266 0.897 17.9416 2 17.9416H6L9 21.0016L12 17.9416H16C17.103 17.9416 18 17.0266 18 15.9016V2.64156C18 1.5165 17.103 0.601562 16 0.601562ZM11 15.9016L9 17.9416L7 15.9016H2V2.64156H16L16.002 15.9016H11Z" fill="#2285E0"/>
</svg>
