<svg width="20" height="22" viewBox="0 0 20 22" fill="none" xmlns="http://www.w3.org/2000/svg">
<path d="M6.5 17H8V21.5H6.5V17Z" fill="#2285E0"/>
<path d="M14.75 14H4.25C3.65345 13.9994 3.0815 13.7622 2.65967 13.3403C2.23784 12.9185 2.0006 12.3466 2 11.75V3.5H0.5V11.75C0.501191 12.7442 0.896661 13.6973 1.59966 14.4003C2.30267 15.1033 3.2558 15.4988 4.25 15.5H14.75C15.2964 15.5024 15.8355 15.6256 16.3287 15.8608L11.75 20.4395L12.8105 21.5L17.5408 16.7698C18.1552 17.4501 18.4968 18.3333 18.5 19.25V21.5H20V19.25C19.9984 17.8581 19.4448 16.5237 18.4606 15.5394C17.4763 14.5552 16.1419 14.0016 14.75 14Z" fill="#2285E0"/>
<path d="M17.956 2.02889L12.706 0.528887C12.5712 0.490371 12.4283 0.490371 12.2935 0.528887L7.04348 2.02889C6.85661 2.08241 6.69783 2.2064 6.60059 2.37471C6.50335 2.54302 6.47526 2.74252 6.52223 2.93114L7.24973 5.84189V7.24964C7.24973 7.93908 7.38553 8.62177 7.64936 9.25873C7.9132 9.89568 8.29991 10.4744 8.78742 10.9619C9.27493 11.4495 9.85368 11.8362 10.4906 12.1C11.1276 12.3638 11.8103 12.4996 12.4997 12.4996C13.1892 12.4996 13.8719 12.3638 14.5088 12.1C15.1458 11.8362 15.7245 11.4495 16.212 10.9619C16.6995 10.4744 17.0863 9.89568 17.3501 9.25873C17.6139 8.62177 17.7497 7.93908 17.7497 7.24964V5.84189L18.4772 2.93189C18.5244 2.74316 18.4964 2.54348 18.3992 2.37499C18.3019 2.20651 18.143 2.08241 17.956 2.02889ZM12.4997 2.02964L16.846 3.27164L16.4147 4.99964H13.2497V3.49964H11.7497V4.99964H8.58548L8.15348 3.27164L12.4997 2.02964ZM12.4997 10.9996C11.5055 10.9984 10.5524 10.603 9.8494 9.89997C9.14639 9.19697 8.75092 8.24383 8.74973 7.24964V6.49964H16.2497V7.24964C16.2485 8.24383 15.8531 9.19697 15.1501 9.89997C14.4471 10.603 13.4939 10.9984 12.4997 10.9996Z" fill="#2285E0"/>
</svg>
