<svg width="45" height="44" viewBox="0 0 45 44" fill="none" xmlns="http://www.w3.org/2000/svg">
<rect x="0.25" width="44" height="44" rx="5" fill="#2285E0"/>
<path d="M22.2498 21.807C23.4584 21.807 24.3498 20.9577 24.3498 19.8039C24.3498 18.6501 23.4584 17.8008 22.2498 17.8008C21.0423 17.8008 20.1498 18.6501 20.1498 19.8039C20.1498 20.9577 21.0423 21.807 22.2498 21.807ZM22.2498 22.8086C19.9304 22.8086 18.0498 24.4231 18.0498 26.4142V26.8008H26.4498V26.4142C26.4498 24.4231 24.5693 22.8086 22.2498 22.8086Z" fill="white"/>
<path d="M29.25 13.6016H15.25C14.147 13.6016 13.25 14.5165 13.25 15.6416V28.9016C13.25 30.0266 14.147 30.9416 15.25 30.9416H19.25L22.25 34.0016L25.25 30.9416H29.25C30.353 30.9416 31.25 30.0266 31.25 28.9016V15.6416C31.25 14.5165 30.353 13.6016 29.25 13.6016ZM24.25 28.9016L22.25 30.9416L20.25 28.9016H15.25V15.6416H29.25L29.252 28.9016H24.25Z" fill="white"/>
</svg>
