<svg width="18" height="20" viewBox="0 0 18 20" fill="none" xmlns="http://www.w3.org/2000/svg">
<path d="M17 20H1C0.734784 20 0.48043 19.8946 0.292893 19.7071C0.105357 19.5196 0 19.2652 0 19V1C0 0.734784 0.105357 0.48043 0.292893 0.292893C0.48043 0.105357 0.734784 0 1 0C1 0 5.87581 0 9 0C12.1242 0 17 0 17 0C17.2652 0 17.5196 0.105357 17.7071 0.292893C17.8946 0.48043 18 0.734784 18 1V9V19C18 19.2652 17.8946 19.5196 17.7071 19.7071C17.5196 19.8946 17.2652 20 17 20ZM16 18V9V2H9H2V18H16ZM5 15H13V16H5V15Z" fill="#2285E0"/>
<path d="M9.47 13H8.525C8.30222 13 8.08856 12.9115 7.93103 12.754C7.7735 12.5964 7.685 12.3828 7.685 12.16V11.615C7.68229 11.5829 7.67051 11.5522 7.65104 11.5265C7.63156 11.5009 7.60519 11.4813 7.575 11.47C7.54441 11.4504 7.50883 11.44 7.4725 11.44C7.43617 11.44 7.40059 11.4504 7.37 11.47L7 11.87C6.92239 11.9482 6.83008 12.0102 6.72839 12.0525C6.6267 12.0948 6.51765 12.1166 6.4075 12.1166C6.29735 12.1166 6.1883 12.0948 6.08661 12.0525C5.98492 12.0102 5.89261 11.9482 5.815 11.87L5.13 11.2C5.05071 11.1225 4.98774 11.03 4.9448 10.9278C4.90186 10.8256 4.87983 10.7158 4.88 10.605C4.88032 10.3783 4.97017 10.1608 5.13 10L5.5 9.63C5.51786 9.60246 5.52737 9.57033 5.52737 9.5375C5.52737 9.50467 5.51786 9.47254 5.5 9.445C5.47 9.37 5.42 9.315 5.35 9.315H4.84C4.61676 9.31368 4.40311 9.22407 4.24572 9.06574C4.08834 8.90742 4 8.69324 4 8.47V7.525C4 7.30222 4.0885 7.08856 4.24603 6.93103C4.40356 6.7735 4.61722 6.685 4.84 6.685H5.385C5.41711 6.68229 5.44779 6.67051 5.47346 6.65104C5.49913 6.63156 5.51874 6.60519 5.53 6.575C5.5496 6.54441 5.56002 6.50883 5.56002 6.4725C5.56002 6.43617 5.5496 6.40059 5.53 6.37L5.13 6C5.05184 5.92239 4.98981 5.83008 4.94748 5.72839C4.90515 5.6267 4.88336 5.51765 4.88336 5.4075C4.88336 5.29735 4.90515 5.1883 4.94748 5.08661C4.98981 4.98492 5.05184 4.89261 5.13 4.815L5.8 4.13C5.8767 4.05109 5.96841 3.98831 6.06974 3.94538C6.17106 3.90244 6.27995 3.88021 6.39 3.88C6.50312 3.8795 6.61523 3.90133 6.71991 3.94423C6.82458 3.98713 6.91976 4.05026 7 4.13L7.37 4.5C7.39754 4.51786 7.42967 4.52737 7.4625 4.52737C7.49533 4.52737 7.52746 4.51786 7.555 4.5C7.63 4.47 7.685 4.42 7.685 4.35V3.84C7.68632 3.61676 7.77593 3.40311 7.93426 3.24572C8.09258 3.08834 8.30676 3 8.53 3H9.5C9.72278 3 9.93644 3.0885 10.094 3.24603C10.2515 3.40356 10.34 3.61722 10.34 3.84V4.385C10.3427 4.41711 10.3545 4.44779 10.374 4.47346C10.3934 4.49913 10.4198 4.51874 10.45 4.53C10.4806 4.5496 10.5162 4.56002 10.5525 4.56002C10.5888 4.56002 10.6244 4.5496 10.655 4.53L11 4.13C11.0776 4.05184 11.1699 3.98981 11.2716 3.94748C11.3733 3.90515 11.4824 3.88336 11.5925 3.88336C11.7026 3.88336 11.8117 3.90515 11.9134 3.94748C12.0151 3.98981 12.1074 4.05184 12.185 4.13L12.87 4.8C12.9491 4.87763 13.0119 4.97022 13.0548 5.07237C13.0977 5.17452 13.1199 5.2842 13.12 5.395C13.1224 5.50765 13.1014 5.61957 13.0584 5.7237C13.0154 5.82784 12.9512 5.92191 12.87 6L12.5 6.37C12.4821 6.39754 12.4726 6.42967 12.4726 6.4625C12.4726 6.49533 12.4821 6.52746 12.5 6.555C12.53 6.63 12.58 6.685 12.65 6.685H13.195C13.4121 6.69529 13.6169 6.78884 13.7668 6.9462C13.9167 7.10357 14.0002 7.31265 14 7.53V8.5C14 8.72278 13.9115 8.93644 13.754 9.09397C13.5964 9.2515 13.3828 9.34 13.16 9.34H12.615C12.5829 9.34271 12.5522 9.35449 12.5265 9.37396C12.5009 9.39344 12.4813 9.41981 12.47 9.45C12.4521 9.47754 12.4426 9.50967 12.4426 9.5425C12.4426 9.57533 12.4521 9.60746 12.47 9.635L12.855 10.02C12.9332 10.0976 12.9952 10.1899 13.0375 10.2916C13.0798 10.3933 13.1016 10.5024 13.1016 10.6125C13.1016 10.7226 13.0798 10.8317 13.0375 10.9334C12.9952 11.0351 12.9332 11.1274 12.855 11.205L12.2 11.87C12.1233 11.9489 12.0316 12.0117 11.9303 12.0546C11.8289 12.0976 11.72 12.1198 11.61 12.12C11.3867 12.1171 11.1734 12.0274 11.015 11.87L10.63 11.5C10.6025 11.4821 10.5703 11.4726 10.5375 11.4726C10.5047 11.4726 10.4725 11.4821 10.445 11.5C10.37 11.53 10.315 11.58 10.315 11.65V12.195C10.3047 12.4121 10.2112 12.6169 10.0538 12.7668C9.89643 12.9167 9.68735 13.0002 9.47 13ZM8.685 12H9.315V11.615C9.31713 11.3844 9.38763 11.1597 9.51759 10.9692C9.64754 10.7787 9.83109 10.6311 10.045 10.545C10.2598 10.4511 10.4977 10.4233 10.7283 10.4652C10.9589 10.507 11.1719 10.6166 11.34 10.78L11.61 11.05L12.05 10.61L11.78 10.335C11.6177 10.1694 11.5082 9.95938 11.4654 9.73148C11.4227 9.50358 11.4487 9.26812 11.54 9.055C11.6269 8.84202 11.7748 8.65953 11.9652 8.53051C12.1557 8.40149 12.38 8.33172 12.61 8.33H13V7.685H12.615C12.3844 7.68287 12.1597 7.61237 11.9692 7.48241C11.7787 7.35246 11.6311 7.16891 11.545 6.955C11.4511 6.74021 11.4233 6.50233 11.4652 6.27169C11.507 6.04105 11.6166 5.8281 11.78 5.66L12.05 5.39L11.61 4.95L11.335 5.22C11.1669 5.37358 10.9583 5.47592 10.734 5.51498C10.5096 5.55403 10.2788 5.52816 10.0687 5.44043C9.85852 5.35269 9.67782 5.20674 9.54784 5.01976C9.41786 4.83277 9.34402 4.61254 9.335 4.385V4H8.685V4.385C8.68287 4.61557 8.61237 4.84033 8.48241 5.03081C8.35246 5.22128 8.16891 5.36891 7.955 5.455C7.74021 5.54889 7.50233 5.57667 7.27169 5.53482C7.04105 5.49297 6.8281 5.38337 6.66 5.22L6.39 4.95L5.95 5.39L6.22 5.665C6.37358 5.83314 6.47592 6.04166 6.51498 6.26601C6.55403 6.49036 6.52816 6.72119 6.44043 6.93133C6.35269 7.14148 6.20674 7.32218 6.01976 7.45216C5.83277 7.58214 5.61254 7.65598 5.385 7.665H5V8.295H5.385C5.61557 8.29713 5.84033 8.36763 6.03081 8.49759C6.22128 8.62754 6.36891 8.81109 6.455 9.025C6.54889 9.23978 6.57667 9.47767 6.53482 9.70831C6.49297 9.93895 6.38337 10.1519 6.22 10.32L5.95 10.59L6.39 11.03L6.665 10.76C6.83314 10.6064 7.04166 10.5041 7.26601 10.465C7.49036 10.426 7.72119 10.4518 7.93133 10.5396C8.14148 10.6273 8.32218 10.7733 8.45216 10.9602C8.58214 11.1472 8.65598 11.3675 8.665 11.595L8.685 12Z" fill="#2285E0"/>
<path d="M9 10C8.60444 10 8.21776 9.8827 7.88886 9.66294C7.55996 9.44318 7.30362 9.13082 7.15224 8.76537C7.00087 8.39991 6.96126 7.99778 7.03843 7.60982C7.1156 7.22186 7.30608 6.86549 7.58579 6.58579C7.86549 6.30608 8.22186 6.1156 8.60982 6.03843C8.99778 5.96126 9.39991 6.00087 9.76537 6.15224C10.1308 6.30362 10.4432 6.55996 10.6629 6.88886C10.8827 7.21776 11 7.60444 11 8C11 8.53043 10.7893 9.03914 10.4142 9.41421C10.0391 9.78929 9.53043 10 9 10ZM9 7.14286C8.83047 7.14286 8.66475 7.19313 8.5238 7.28731C8.38284 7.3815 8.27298 7.51536 8.2081 7.67199C8.14323 7.82861 8.12625 8.00095 8.15933 8.16722C8.1924 8.33349 8.27404 8.48622 8.39391 8.60609C8.51378 8.72597 8.66651 8.8076 8.83278 8.84067C8.99905 8.87375 9.17139 8.85677 9.32801 8.7919C9.48464 8.72702 9.6185 8.61716 9.71269 8.4762C9.80687 8.33525 9.85714 8.16953 9.85714 8C9.85714 7.77267 9.76684 7.55465 9.60609 7.39391C9.44535 7.23316 9.22733 7.14286 9 7.14286Z" fill="#2285E0"/>
</svg>
