<svg width="24" height="24" viewBox="0 0 24 24" fill="none" xmlns="http://www.w3.org/2000/svg">
<circle cx="12" cy="12" r="12" fill="#EE4545"/>
<path fill-rule="evenodd" clip-rule="evenodd" d="M10.2141 7.68856C10.7803 7.45403 11.3872 7.33332 12 7.33332C12.6128 7.33332 13.2197 7.45403 13.7859 7.68856C14.352 7.92307 14.8664 8.26682 15.2999 8.70016C15.7332 9.1335 16.0769 9.64795 16.3115 10.2141C16.546 10.7803 16.6667 11.3872 16.6667 12C16.6667 12.6128 16.546 13.2197 16.3115 13.7859C16.1624 14.1455 15.9695 14.4842 15.7374 14.7946L9.2054 8.2626C9.51576 8.03054 9.85451 7.83751 10.2141 7.68856ZM8.26259 9.20539C7.66286 10.0074 7.33332 10.9867 7.33332 12C7.33332 13.2377 7.82498 14.4247 8.70016 15.2999C9.57533 16.175 10.7623 16.6667 12 16.6667C13.0133 16.6667 13.9926 16.3372 14.7946 15.7374L8.26259 9.20539ZM12 6C11.2121 6 10.4319 6.1552 9.7039 6.45672C8.97595 6.75826 8.31451 7.2002 7.75736 7.75736C6.63214 8.88258 6 10.4087 6 12C6 13.5913 6.63214 15.1175 7.75736 16.2426C8.88258 17.3678 10.4087 18 12 18C13.5913 18 15.1175 17.3678 16.2426 16.2426C16.7998 15.6854 17.2417 15.024 17.5433 14.2961C17.8448 13.5681 18 12.7879 18 12C18 11.2121 17.8448 10.4319 17.5433 9.7039C17.2417 8.97595 16.7998 8.31451 16.2426 7.75736C15.6854 7.2002 15.024 6.75826 14.2961 6.45672C13.5681 6.1552 12.7879 6 12 6Z" fill="white"/>
</svg>
