<svg width="80" height="80" viewBox="0 0 80 80" fill="none" xmlns="http://www.w3.org/2000/svg">
<path d="M9.31412 43.123C9.31177 42.1096 9.70165 41.1346 10.4021 40.4022L25.8466 28.0811L24.4824 26.3711L8.9824 38.7359C8.94787 38.7634 8.9151 38.793 8.88427 38.8245C7.75419 39.9694 7.12221 41.5143 7.12599 43.123V67.4H9.31349L9.31412 43.123Z" fill="#DBE7EC"/>
<path d="M28.9727 64.7389C30.3859 64.4808 31.664 63.7357 32.5848 62.633C33.5057 61.5304 34.0111 60.1399 34.0131 58.7033V52.4766H31.8256V58.7033C31.8244 59.7496 31.4082 60.7528 30.6683 61.4927C29.9284 62.2325 28.9253 62.6487 27.8789 62.6498C27.5888 62.6498 27.3106 62.7651 27.1055 62.9702C26.9004 63.1753 26.7852 63.4535 26.7852 63.7436V67.3998H28.9727V64.7389Z" fill="#DBE7EC"/>
<path d="M32.2486 76.2948V68.9609C32.2478 68.2567 31.9677 67.5815 31.4697 67.0836C30.9718 66.5856 30.2966 66.3055 29.5923 66.3047H5.625C4.92076 66.3055 4.24559 66.5856 3.74762 67.0836C3.24964 67.5815 2.96954 68.2567 2.96875 68.9609V76.2948C2.96954 76.9991 3.24964 77.6743 3.74762 78.1722C4.24559 78.6702 4.92076 78.9503 5.625 78.9511H29.5923C30.2966 78.9503 30.9718 78.6702 31.4697 78.1722C31.9677 77.6743 32.2478 76.9991 32.2486 76.2948V76.2948ZM5.15625 76.2948V68.9609C5.15625 68.8366 5.20564 68.7174 5.29354 68.6295C5.38145 68.5416 5.50068 68.4922 5.625 68.4922H29.5923C29.7167 68.4922 29.8359 68.5416 29.9238 68.6295C30.0117 68.7174 30.0611 68.8366 30.0611 68.9609V76.2948C30.0611 76.4192 30.0117 76.5384 29.9238 76.6263C29.8359 76.7142 29.7167 76.7636 29.5923 76.7636H5.625C5.50068 76.7636 5.38145 76.7142 5.29354 76.6263C5.20564 76.5384 5.15625 76.4192 5.15625 76.2948Z" fill="#DBE7EC"/>
<path d="M9.54395 69.7077C8.93882 69.6953 8.34372 69.8633 7.83451 70.1905C7.3253 70.5177 6.92506 70.9891 6.68484 71.5446C6.44461 72.1001 6.37529 72.7146 6.4857 73.3097C6.59611 73.9048 6.88125 74.4535 7.30477 74.8859C7.72829 75.3183 8.27099 75.6148 8.86367 75.7375C9.45635 75.8602 10.0721 75.8036 10.6325 75.575C11.1929 75.3463 11.6725 74.9559 12.0102 74.4536C12.3478 73.9513 12.5282 73.3598 12.5283 72.7545C12.5357 71.955 12.2256 71.1853 11.6661 70.6141C11.1066 70.0429 10.3434 69.7169 9.54395 69.7077V69.7077ZM9.54395 73.6139C9.3712 73.627 9.19853 73.5877 9.04845 73.5012C8.89838 73.4146 8.77786 73.2849 8.70261 73.1288C8.62737 72.9728 8.6009 72.7977 8.62665 72.6264C8.6524 72.4551 8.72917 72.2955 8.84696 72.1685C8.96475 72.0414 9.11809 71.9529 9.28697 71.9143C9.45586 71.8757 9.63245 71.8889 9.79372 71.9522C9.95499 72.0154 10.0934 72.1258 10.191 72.269C10.2886 72.4121 10.3408 72.5813 10.3408 72.7545C10.3486 72.9741 10.2691 73.1877 10.1198 73.3488C9.97046 73.5099 9.76342 73.6052 9.54395 73.6141V73.6139Z" fill="#DBE7EC"/>
<path d="M64.8793 36.4339C64.2799 36.4344 63.6813 36.4788 63.0884 36.5669V15.603C63.0884 15.4593 63.0601 15.3171 63.0051 15.1844C62.9502 15.0517 62.8696 14.9311 62.7681 14.8295L49.3055 1.36719C49.204 1.26563 49.0834 1.18507 48.9507 1.13011C48.818 1.07515 48.6758 1.04686 48.5321 1.04688H28.5315C27.3492 1.0482 26.2157 1.51845 25.3797 2.35447C24.5438 3.19048 24.0735 4.32397 24.0723 5.50625V39.0158H26.2598V5.50625C26.2604 4.90393 26.4999 4.32645 26.9258 3.90053C27.3517 3.47461 27.9292 3.23504 28.5315 3.23438H47.4377V12.2373C47.4391 13.4196 47.9093 14.5531 48.7453 15.3891C49.5813 16.2251 50.7148 16.6954 51.8971 16.6967H60.9002V37.103C58.0621 38.0842 55.6883 40.0824 54.2374 42.7117C52.7866 45.341 52.3617 48.4146 53.0448 51.3389H28.5315C27.9292 51.3382 27.3517 51.0987 26.9258 50.6728C26.4999 50.2468 26.2604 49.6694 26.2598 49.067V46.1608H24.0723V49.067C24.0735 50.2493 24.5438 51.3828 25.3797 52.2188C26.2157 53.0548 27.3492 53.5251 28.5315 53.5264H53.7815C54.6709 55.5243 56.0831 57.245 57.869 58.5072C59.6549 59.7694 61.7483 60.5262 63.9284 60.6977C66.1086 60.8693 68.2946 60.4493 70.256 59.482C72.2173 58.5147 73.8812 57.0359 75.0722 55.2018C76.2632 53.3677 76.9371 51.2461 77.0228 49.0609C77.1085 46.8757 76.6028 44.7078 75.5592 42.786C74.5155 40.8643 72.9725 39.2598 71.093 38.1418C69.2134 37.0239 67.067 36.4339 64.8801 36.4342L64.8793 36.4339ZM51.8977 14.5092C51.2954 14.5086 50.7179 14.269 50.292 13.8431C49.8661 13.4172 49.6265 12.8397 49.6259 12.2373V4.78109L59.354 14.5092H51.8977ZM64.8793 58.5506C62.9085 58.5506 60.9819 57.9662 59.3432 56.8713C57.7045 55.7763 56.4273 54.22 55.6731 52.3992C54.9189 50.5784 54.7216 48.5748 55.1061 46.6419C55.4906 44.7089 56.4397 42.9334 57.8333 41.5398C59.2269 40.1462 61.0024 39.1972 62.9354 38.8127C64.8684 38.4282 66.8719 38.6256 68.6927 39.3798C70.5135 40.134 72.0698 41.4113 73.1647 43.05C74.2596 44.6887 74.844 46.6153 74.844 48.5861C74.841 51.228 73.7902 53.7607 71.9221 55.6288C70.054 57.4969 67.5212 58.5477 64.8793 58.5506V58.5506Z" fill="#DBE7EC"/>
<path d="M45.7902 29.4375H38.1973C37.9072 29.4375 37.629 29.5527 37.4239 29.7579C37.2188 29.963 37.1035 30.2412 37.1035 30.5312C37.1035 30.8213 37.2188 31.0995 37.4239 31.3046C37.629 31.5098 37.9072 31.625 38.1973 31.625H45.791C46.0811 31.625 46.3593 31.5098 46.5644 31.3046C46.7695 31.0995 46.8848 30.8213 46.8848 30.5312C46.8848 30.2412 46.7695 29.963 46.5644 29.7579C46.3593 29.5527 46.0811 29.4375 45.791 29.4375H45.7902Z" fill="#DBE7EC"/>
<path d="M53.2316 40.5742C53.2316 40.2841 53.1163 40.0059 52.9112 39.8008C52.7061 39.5957 52.4279 39.4805 52.1378 39.4805H34.8438C34.5537 39.4805 34.2755 39.5957 34.0704 39.8008C33.8652 40.0059 33.75 40.2841 33.75 40.5742C33.75 40.8643 33.8652 41.1425 34.0704 41.3476C34.2755 41.5527 34.5537 41.668 34.8438 41.668H52.1378C52.4279 41.668 52.7061 41.5527 52.9112 41.3476C53.1163 41.1425 53.2316 40.8643 53.2316 40.5742Z" fill="#DBE7EC"/>
<path d="M45.7744 46.125C45.7744 45.8349 45.6591 45.5567 45.454 45.3516C45.2489 45.1465 44.9707 45.0312 44.6806 45.0312H34.8438C34.5537 45.0313 34.2755 45.1465 34.0704 45.3516C33.8652 45.5567 33.75 45.8349 33.75 46.125C33.75 46.4151 33.8652 46.6933 34.0704 46.8984C34.2755 47.1035 34.5537 47.2188 34.8438 47.2188H44.6809C44.971 47.2187 45.2491 47.1034 45.4541 46.8983C45.6592 46.6932 45.7744 46.415 45.7744 46.125V46.125Z" fill="#DBE7EC"/>
<path d="M44.5293 25.5625C44.8194 25.5625 45.0976 25.4473 45.3027 25.2421C45.5078 25.037 45.623 24.7588 45.623 24.4687C45.623 24.0637 45.784 23.6752 46.0704 23.3888C46.3568 23.1023 46.7453 22.9414 47.1504 22.9414C47.5555 22.9414 47.944 23.1023 48.2304 23.3888C48.5168 23.6752 48.6777 24.0637 48.6777 24.4687C48.6777 24.7588 48.793 25.037 48.9981 25.2421C49.2032 25.4473 49.4814 25.5625 49.7715 25.5625C50.0616 25.5625 50.3398 25.4473 50.5449 25.2421C50.75 25.037 50.8652 24.7588 50.8652 24.4687C50.8652 23.4835 50.4739 22.5386 49.7772 21.842C49.0805 21.1453 48.1356 20.7539 47.1504 20.7539C46.1652 20.7539 45.2203 21.1453 44.5236 21.842C43.8269 22.5386 43.4355 23.4835 43.4355 24.4687C43.4355 24.7588 43.5508 25.037 43.7559 25.2421C43.961 25.4473 44.2392 25.5625 44.5293 25.5625V25.5625Z" fill="#DBE7EC"/>
<path d="M30.1953 29.8492C30.1953 30.3934 30.3567 30.9254 30.659 31.3779C30.9614 31.8304 31.3911 32.1831 31.8939 32.3913C32.3967 32.5996 32.9499 32.6541 33.4837 32.5479C34.0174 32.4417 34.5077 32.1797 34.8925 31.7949C35.2773 31.4101 35.5394 30.9198 35.6456 30.386C35.7517 29.8523 35.6972 29.299 35.489 28.7962C35.2807 28.2935 34.9281 27.8637 34.4756 27.5614C34.0231 27.259 33.4911 27.0977 32.9469 27.0977C32.2174 27.0985 31.518 27.3886 31.0021 27.9045C30.4863 28.4203 30.1961 29.1197 30.1953 29.8492ZM33.5109 29.8492C33.5109 29.9608 33.4779 30.0698 33.4159 30.1626C33.3539 30.2554 33.2658 30.3277 33.1627 30.3703C33.0597 30.413 32.9462 30.4242 32.8368 30.4024C32.7274 30.3807 32.6269 30.327 32.548 30.2481C32.4691 30.1692 32.4154 30.0687 32.3937 29.9593C32.3719 29.8498 32.3831 29.7364 32.4257 29.6334C32.4684 29.5303 32.5407 29.4422 32.6335 29.3802C32.7263 29.3182 32.8353 29.2852 32.9469 29.2852C33.0964 29.2853 33.2398 29.3448 33.3455 29.4505C33.4513 29.5563 33.5108 29.6997 33.5109 29.8492V29.8492Z" fill="#DBE7EC"/>
<path d="M51.0397 32.6008C51.5839 32.6008 52.1158 32.4394 52.5683 32.1371C53.0208 31.8347 53.3735 31.405 53.5818 30.9022C53.79 30.3994 53.8445 29.8462 53.7383 29.3124C53.6322 28.7787 53.3701 28.2884 52.9853 27.9036C52.6005 27.5188 52.1102 27.2567 51.5764 27.1505C51.0427 27.0444 50.4895 27.0988 49.9867 27.3071C49.4839 27.5154 49.0542 27.868 48.7518 28.3205C48.4495 28.773 48.2881 29.305 48.2881 29.8492C48.289 30.5787 48.5791 31.2781 49.095 31.7939C49.6108 32.3097 50.3102 32.5999 51.0397 32.6008V32.6008ZM51.0397 29.2852C51.1512 29.2852 51.2603 29.3182 51.353 29.3802C51.4458 29.4422 51.5181 29.5303 51.5608 29.6334C51.6035 29.7364 51.6146 29.8498 51.5929 29.9593C51.5711 30.0687 51.5174 30.1692 51.4385 30.2481C51.3596 30.327 51.2591 30.3807 51.1497 30.4024C51.0403 30.4242 50.9269 30.413 50.8238 30.3703C50.7207 30.3276 50.6326 30.2554 50.5706 30.1626C50.5087 30.0698 50.4756 29.9608 50.4756 29.8492C50.4758 29.6997 50.5352 29.5563 50.641 29.4505C50.7467 29.3448 50.8901 29.2853 51.0397 29.2852Z" fill="#DBE7EC"/>
<path d="M64.8791 44.2244C65.3042 44.2249 65.7117 44.3939 66.0123 44.6945C66.3129 44.9951 66.482 45.4026 66.4825 45.8277C66.4825 46.1177 66.5978 46.3959 66.8029 46.6011C67.008 46.8062 67.2862 46.9214 67.5763 46.9214C67.8663 46.9214 68.1445 46.8062 68.3497 46.6011C68.5548 46.3959 68.67 46.1177 68.67 45.8277C68.669 45.0134 68.4063 44.2211 67.9207 43.5676C67.435 42.914 66.7522 42.4339 65.9728 42.1981V41.6484C65.9728 41.3584 65.8576 41.0802 65.6525 40.875C65.4474 40.6699 65.1692 40.5547 64.8791 40.5547C64.589 40.5547 64.3108 40.6699 64.1057 40.875C63.9006 41.0802 63.7853 41.3584 63.7853 41.6484V42.1981C62.9143 42.4605 62.1667 43.0273 61.6789 43.7952C61.1912 44.563 60.9958 45.4806 61.1284 46.3806C61.2611 47.2805 61.7129 48.1028 62.4015 48.6972C63.09 49.2917 63.9694 49.6187 64.8791 49.6186C65.3043 49.6162 65.713 49.7828 66.0153 50.0817C66.3177 50.3807 66.4889 50.7875 66.4913 51.2127C66.4937 51.6378 66.3271 52.0465 66.0281 52.3489C65.7292 52.6512 65.3224 52.8224 64.8972 52.8248C64.8911 52.8248 64.8852 52.8239 64.8791 52.8239C64.873 52.8239 64.8669 52.8247 64.8608 52.8248C64.4389 52.8197 64.0361 52.6487 63.7394 52.3487C63.4427 52.0488 63.276 51.6441 63.2755 51.2222C63.2755 50.9321 63.1603 50.6539 62.9551 50.4488C62.75 50.2437 62.4718 50.1284 62.1817 50.1284C61.8917 50.1284 61.6135 50.2437 61.4083 50.4488C61.2032 50.6539 61.088 50.9321 61.088 51.2222C61.089 52.0364 61.3517 52.8288 61.8374 53.4823C62.3231 54.1358 63.006 54.6159 63.7853 54.8517V55.5236C63.7853 55.8137 63.9006 56.0919 64.1057 56.297C64.3108 56.5021 64.589 56.6173 64.8791 56.6173C65.1692 56.6173 65.4474 56.5021 65.6525 56.297C65.8576 56.0919 65.9728 55.8137 65.9728 55.5236V54.8517C66.8438 54.5892 67.5913 54.0224 68.079 53.2546C68.5667 52.4867 68.762 51.5691 68.6294 50.6692C68.4967 49.7694 68.0449 48.9471 67.3565 48.3527C66.668 47.7582 65.7887 47.4311 64.8791 47.4311C64.6672 47.4332 64.457 47.3933 64.2606 47.3136C64.0642 47.234 63.8855 47.1162 63.735 46.9671C63.5844 46.818 63.4648 46.6405 63.3833 46.4449C63.3017 46.2493 63.2597 46.0395 63.2597 45.8276C63.2597 45.6157 63.3017 45.4058 63.3833 45.2103C63.4648 45.0147 63.5844 44.8372 63.735 44.6881C63.8855 44.539 64.0642 44.4212 64.2606 44.3415C64.457 44.2619 64.6672 44.222 64.8791 44.2241V44.2244Z" fill="#DBE7EC"/>
<path d="M14.3968 47.3975C14.5769 47.6249 14.8399 47.7714 15.1281 47.8049C15.4162 47.8383 15.7058 47.756 15.9332 47.5759L27.2749 38.5956L27.4771 38.7979C27.9802 39.3021 28.2628 39.9853 28.2628 40.6976C28.2628 41.4098 27.9802 42.093 27.4771 42.5972L22.1312 47.9433C21.9416 48.133 21.8282 48.3857 21.8126 48.6534L21.7451 49.8192C21.7438 49.84 21.7432 49.8611 21.7432 49.8825C21.7486 50.7862 21.9545 51.6774 22.346 52.4918C22.7615 53.3839 22.9411 54.3676 22.8677 55.3489C22.7943 56.3301 22.4704 57.2762 21.927 58.0965C21.8072 58.2762 21.7432 58.4873 21.7432 58.7033V61.2234C21.7432 61.5135 21.8584 61.7917 22.0636 61.9968C22.2687 62.2019 22.5469 62.3172 22.837 62.3172C23.127 62.3172 23.4052 62.2019 23.6104 61.9968C23.8155 61.7917 23.9307 61.5135 23.9307 61.2234V59.0203C24.6022 57.9043 24.9894 56.6405 25.0583 55.3399C25.1272 54.0393 24.8757 52.7417 24.3259 51.5611C24.0762 51.0463 23.9415 50.4835 23.9309 49.9115L23.9724 49.1951L29.0242 44.1434C29.9368 43.2286 30.4493 41.9891 30.4493 40.6969C30.4493 39.4047 29.9368 38.1653 29.0242 37.2504L28.1335 36.3598C27.9438 36.1699 27.691 36.0564 27.423 36.0409C27.1551 36.0254 26.8908 36.1089 26.6804 36.2756L14.5752 45.8603C14.4625 45.9495 14.3685 46.06 14.2985 46.1855C14.2286 46.311 14.184 46.4491 14.1675 46.5919C14.1509 46.7347 14.1626 46.8793 14.202 47.0175C14.2413 47.1557 14.3075 47.2849 14.3968 47.3975Z" fill="#DBE7EC"/>
<path d="M50.7523 38.1934H52.6714C53.1289 38.1929 53.5677 38.0109 53.8912 37.6874C54.2148 37.3638 54.3968 36.9251 54.3973 36.4675V35.052C54.8006 34.8725 55.1454 34.5834 55.3926 34.2177C55.6398 33.8519 55.7794 33.4241 55.7956 32.983L56.5626 27.1798C56.5689 27.1323 56.572 27.0845 56.572 27.0366C56.572 25.323 55.4381 23.8878 53.9314 23.5434L51.7215 19.4694C50.9199 18.0319 49.7343 16.3828 47.6645 16.3828H36.4268C34.7579 16.3828 33.3007 17.4845 32.3206 19.4859L30.0404 23.5266C28.522 23.8587 27.4121 25.2814 27.4121 27.0362C27.4121 27.0822 27.4151 27.128 27.4209 27.1736L28.1552 32.9791C28.1709 33.4271 28.3138 33.8614 28.5673 34.2312C28.8207 34.601 29.1742 34.891 29.5863 35.0673V36.4672C29.5868 36.9248 29.7688 37.3635 30.0924 37.6871C30.416 38.0106 30.8547 38.1926 31.3123 38.1931H33.232C33.6896 38.1926 34.1283 38.0106 34.4518 37.6871C34.7754 37.3635 34.9574 36.9248 34.9579 36.4672V35.2578H49.0259V36.4672C49.0263 36.9249 49.2084 37.3637 49.532 37.6874C49.8557 38.011 50.2946 38.193 50.7523 38.1934V38.1934ZM52.2104 36.0059H51.2138V35.2581H52.2104V36.0059ZM34.2416 20.5325C34.2529 20.5127 34.2634 20.4925 34.2729 20.4722C34.6166 19.762 35.3549 18.5706 36.4262 18.5706H47.6638C48.4004 18.5706 49.0423 19.1581 49.8045 20.5238L51.3992 23.4633H32.5879L34.2416 20.5325ZM32.7706 36.0059H31.774V35.2581H32.7706V36.0059ZM30.5121 33.0706C30.4672 33.0696 30.4245 33.0513 30.3927 33.0195C30.3609 32.9878 30.3426 32.945 30.3415 32.9002C30.3415 32.8542 30.3387 32.8084 30.3329 32.7628L29.6004 26.9766C29.6241 26.3516 30.0149 25.7011 30.6391 25.6461C30.6643 25.6478 30.689 25.6511 30.7145 25.6511H53.2207C53.2248 25.6511 53.2287 25.6511 53.2328 25.6511C53.9221 25.6511 54.3578 26.3258 54.3837 26.9738L53.6192 32.7563C53.6129 32.8038 53.6097 32.8516 53.6096 32.8995C53.6086 32.9444 53.5903 32.9871 53.5585 33.0189C53.5268 33.0506 53.484 33.0689 53.4392 33.07L30.5121 33.0706Z" fill="#DBE7EC"/>
</svg>
