<svg width="80" height="80" fill="none" xmlns="http://www.w3.org/2000/svg"><path d="M9.314 43.123a3.923 3.923 0 011.088-2.72L25.847 28.08l-1.365-1.71-15.5 12.365a1.07 1.07 0 00-.098.089 6.098 6.098 0 00-1.758 4.298V67.4h2.187l.001-24.277zm19.659 21.616a6.144 6.144 0 005.04-6.036v-6.226h-2.187v6.226a3.951 3.951 0 01-3.947 3.947 1.094 1.094 0 00-1.094 1.094V67.4h2.188v-2.661z" fill="#DBE7EC"/><path d="M32.249 76.295V68.96a2.659 2.659 0 00-2.657-2.656H5.625a2.66 2.66 0 00-2.656 2.656v7.334a2.659 2.659 0 002.656 2.656h23.967a2.659 2.659 0 002.657-2.656zm-27.093 0V68.96a.469.469 0 01.469-.469h23.967a.469.469 0 01.47.469v7.334a.469.469 0 01-.47.469H5.625a.469.469 0 01-.469-.47z" fill="#DBE7EC"/><path d="M9.544 69.708a3.047 3.047 0 102.984 3.046 3.019 3.019 0 00-2.984-3.046zm0 3.906a.862.862 0 11.797-.86.83.83 0 01-.797.86zm55.336-37.18c-.6 0-1.199.045-1.792.133V15.603a1.093 1.093 0 00-.32-.774L49.306 1.367a1.093 1.093 0 00-.774-.32h-20a4.464 4.464 0 00-4.46 4.46v33.509h2.188V5.506a2.274 2.274 0 012.271-2.272h18.907v9.003a4.465 4.465 0 004.46 4.46H60.9v20.406a12.14 12.14 0 00-7.855 14.236H28.53a2.275 2.275 0 01-2.271-2.272v-2.906h-2.188v2.906a4.464 4.464 0 004.46 4.46h25.25A12.15 12.15 0 1064.88 36.433zM51.897 14.509a2.274 2.274 0 01-2.272-2.272V4.781l9.728 9.728h-7.456zm12.981 44.042a9.965 9.965 0 119.965-9.965 9.976 9.976 0 01-9.965 9.965z" fill="#DBE7EC"/><path d="M45.79 29.438h-7.593a1.093 1.093 0 100 2.187h7.594a1.093 1.093 0 100-2.188zm7.442 11.136a1.094 1.094 0 00-1.094-1.093H34.844a1.094 1.094 0 100 2.187h17.294a1.094 1.094 0 001.094-1.094zm-7.458 5.551a1.094 1.094 0 00-1.093-1.094h-9.837a1.094 1.094 0 000 2.188h9.837a1.094 1.094 0 001.093-1.094zM44.53 25.563a1.093 1.093 0 001.093-1.094 1.527 1.527 0 013.055 0 1.094 1.094 0 002.187 0 3.714 3.714 0 10-7.43 0 1.094 1.094 0 001.094 1.093zM30.195 29.85a2.752 2.752 0 105.504-.001 2.752 2.752 0 00-5.504 0zm3.316 0a.564.564 0 11-1.128 0 .564.564 0 011.128 0zM51.04 32.6a2.752 2.752 0 100-5.503 2.752 2.752 0 000 5.504zm0-3.315a.564.564 0 110 1.127.564.564 0 010-1.127zm13.84 14.939a1.605 1.605 0 011.603 1.604 1.094 1.094 0 002.187 0 3.797 3.797 0 00-2.697-3.63v-.55a1.094 1.094 0 00-2.188 0v.55a3.79 3.79 0 001.094 7.42 1.603 1.603 0 11.018 3.207l-.018-.001h-.018a1.604 1.604 0 01-1.586-1.602 1.093 1.093 0 10-2.187 0 3.797 3.797 0 002.697 3.63v.672a1.094 1.094 0 002.188 0v-.672a3.791 3.791 0 00-1.094-7.42 1.602 1.602 0 110-3.208zm-50.483 3.174a1.094 1.094 0 001.536.178l11.342-8.98.202.202a2.69 2.69 0 010 3.8l-5.346 5.345c-.19.19-.303.443-.318.71l-.068 1.166-.002.063c.006.904.212 1.795.603 2.61a5.75 5.75 0 01-.419 5.605c-.12.18-.184.39-.184.606v2.52a1.093 1.093 0 102.188 0V59.02a7.955 7.955 0 00.395-7.459 3.947 3.947 0 01-.395-1.65l.041-.716 5.052-5.052a4.88 4.88 0 000-6.893l-.89-.89a1.093 1.093 0 00-1.454-.084L14.575 45.86a1.095 1.095 0 00-.178 1.538z" fill="#DBE7EC"/><path d="M50.752 38.193h1.92a1.728 1.728 0 001.725-1.725v-1.416a2.36 2.36 0 001.399-2.069l.767-5.803c.006-.048.009-.096.009-.143 0-1.714-1.134-3.15-2.64-3.494l-2.21-4.074c-.802-1.437-1.988-3.086-4.058-3.086H36.427c-1.67 0-3.126 1.102-4.106 3.103l-2.28 4.04c-1.519.333-2.629 1.755-2.629 3.51 0 .046.003.092.009.138l.734 5.805a2.36 2.36 0 001.431 2.088v1.4a1.728 1.728 0 001.726 1.726h1.92a1.728 1.728 0 001.726-1.726v-1.21h14.068v1.21a1.728 1.728 0 001.726 1.726zm1.458-2.187h-.996v-.748h.996v.748zM34.242 20.532a.842.842 0 00.03-.06c.345-.71 1.083-1.901 2.154-1.901h11.238c.736 0 1.378.587 2.14 1.953l1.595 2.94H32.588l1.654-2.931zM32.77 36.007h-.997v-.748h.997v.748zm-2.259-2.935a.174.174 0 01-.17-.17.897.897 0 00-.01-.138l-.732-5.786c.024-.625.415-1.276 1.04-1.33.024 0 .049.004.075.004h22.518c.69 0 1.125.675 1.15 1.323l-.764 5.782c-.006.048-.01.096-.01.144a.174.174 0 01-.17.17H30.512z" fill="#DBE7EC"/></svg>