<svg width="19" height="14" viewBox="0 0 19 14" fill="none" xmlns="http://www.w3.org/2000/svg">
<path d="M8.59782 3.53946V0.87394C8.59782 0.642157 8.50298 0.419867 8.33416 0.255971C8.16534 0.0920755 7.93638 0 7.69764 0C7.46149 0.000965373 7.23518 0.0919872 7.06751 0.253443L0.766271 6.37102C0.681899 6.45227 0.614931 6.54892 0.56923 6.65542C0.523529 6.76192 0.5 6.87615 0.5 6.99152C0.5 7.10689 0.523529 7.22112 0.56923 7.32762C0.614931 7.43411 0.681899 7.53077 0.766271 7.61202L7.06751 13.7296C7.19389 13.8499 7.35396 13.9313 7.52774 13.9637C7.70151 13.9961 7.88128 13.9781 8.04456 13.9119C8.20785 13.8457 8.34741 13.7342 8.44582 13.5915C8.54422 13.4487 8.59708 13.2809 8.59782 13.1091V10.3999H9.36297C10.7852 10.3793 12.195 10.6594 13.4945 11.2208C14.794 11.7822 15.9521 12.6114 16.8885 13.6509C17.0013 13.7968 17.1583 13.9047 17.3375 13.9595C17.5167 14.0144 17.7091 14.0134 17.8877 13.9568C18.0694 13.8973 18.2268 13.7829 18.3369 13.6304C18.447 13.4779 18.5041 13.2953 18.4998 13.1091C18.4998 5.13877 11.2263 3.77542 8.59782 3.53946ZM9.36297 8.63453C8.76089 8.6327 8.15938 8.67066 7.56261 8.74814C7.3495 8.77953 7.15507 8.88412 7.01466 9.04289C6.87425 9.20166 6.79718 9.40407 6.79746 9.61334V11.0029L2.67465 6.99152L6.79746 2.98013V4.3697C6.79746 4.60148 6.8923 4.82377 7.06112 4.98767C7.22993 5.15156 7.4589 5.24364 7.69764 5.24364C8.5168 5.24364 14.9981 5.41843 16.4024 10.8631C14.3641 9.40408 11.8953 8.62251 9.36297 8.63453Z" fill="#2285E0"/>
</svg>
