<svg width="20" height="21" viewBox="0 0 20 21" fill="none" xmlns="http://www.w3.org/2000/svg">
<path d="M18.9935 4.90072C18.9769 4.73266 18.9179 4.57157 18.822 4.43253C18.7262 4.29349 18.5966 4.18104 18.4455 4.10572L10.4455 0.105716C10.3065 0.0361955 10.1533 0 9.99798 0C9.84262 0 9.68941 0.0361955 9.55048 0.105716L1.55048 4.10572C1.39975 4.18147 1.27059 4.29405 1.17497 4.43303C1.07935 4.572 1.02036 4.73287 1.00348 4.90072C0.992478 5.00772 0.0424776 15.6677 9.59248 19.9147C9.72008 19.9723 9.85848 20.0021 9.99848 20.0021C10.1385 20.0021 10.2769 19.9723 10.4045 19.9147C19.9545 15.6677 19.0045 5.00872 18.9935 4.90072ZM9.99848 17.8977C3.22948 14.6257 2.90948 7.64272 2.96448 5.63572L9.99848 2.11872L17.0275 5.63372C17.0645 7.62272 16.6995 14.6517 9.99848 17.8977Z" fill="#2285E0"/>
<path d="M8.99997 10.586L6.70697 8.29297L5.29297 9.70697L8.99997 13.414L14.707 7.70697L13.293 6.29297L8.99997 10.586Z" fill="#2285E0"/>
</svg>
