<svg width="18" height="20" viewBox="0 0 18 20" fill="none" xmlns="http://www.w3.org/2000/svg">
<path d="M17 20H1C0.734784 20 0.48043 19.8946 0.292893 19.7071C0.105357 19.5196 0 19.2652 0 19V1C0 0.734784 0.105357 0.48043 0.292893 0.292893C0.48043 0.105357 0.734784 0 1 0C1 0 5.87581 0 9 0C12.1242 0 17 0 17 0C17.2652 0 17.5196 0.105357 17.7071 0.292893C17.8946 0.48043 18 0.734784 18 1V9V19C18 19.2652 17.8946 19.5196 17.7071 19.7071C17.5196 19.8946 17.2652 20 17 20ZM16 18V9V2H9H2V18H16ZM5 15H13V16H5V15Z" fill="#2285E0"/>
<path d="M4 9.74336L7.28571 13L14 6.41593L12.5714 5L7.28571 10.2389L5.42857 8.39823L4 9.74336Z" fill="#2285E0"/>
</svg>
