<svg width="21" height="21" viewBox="0 0 21 21" fill="none" xmlns="http://www.w3.org/2000/svg">
<path d="M10.6667 0.35083C5.15275 0.35083 0.666748 4.83683 0.666748 10.3508V14.4938C0.666748 15.5178 1.56375 16.3508 2.66675 16.3508H3.66675C3.93196 16.3508 4.18632 16.2455 4.37385 16.0579C4.56139 15.8704 4.66675 15.616 4.66675 15.3508V10.2078C4.66675 9.94261 4.56139 9.68826 4.37385 9.50072C4.18632 9.31319 3.93196 9.20783 3.66675 9.20783H2.75875C3.31475 5.33783 6.64475 2.35083 10.6667 2.35083C14.6887 2.35083 18.0187 5.33783 18.5747 9.20783H17.6667C17.4015 9.20783 17.1472 9.31319 16.9596 9.50072C16.7721 9.68826 16.6667 9.94261 16.6667 10.2078V16.3508C16.6667 17.4538 15.7697 18.3508 14.6667 18.3508H12.6667V17.3508H8.66675V20.3508H14.6667C16.8727 20.3508 18.6667 18.5568 18.6667 16.3508C19.7697 16.3508 20.6667 15.5178 20.6667 14.4938V10.3508C20.6667 4.83683 16.1807 0.35083 10.6667 0.35083Z" fill="#2285E0"/>
</svg>
