<svg width="22" height="14" viewBox="0 0 22 14" fill="none" xmlns="http://www.w3.org/2000/svg">
<path d="M4.25 10.25V5.75H6.125V4.25H0.875V5.75H2.75V10.25H4.25Z" fill="#2285E0"/>
<path d="M14.6328 10.25L15.6883 8.62616L16.7438 10.25H18.5328L16.5828 7.25L18.5328 4.25H16.7438L15.6883 5.87384L14.6328 4.25H12.8438L14.7938 7.25L12.8438 10.25H14.6328Z" fill="#2285E0"/>
<path d="M19.625 4.25H21.125V10.25H19.625V4.25Z" fill="#2285E0"/>
<path d="M0.875 0.875H21.125V2.375H0.875V0.875Z" fill="#2285E0"/>
<path d="M0.875 12.125H21.125V13.625H0.875V12.125Z" fill="#2285E0"/>
<path d="M10.3123 9.125L10.6873 10.25H12.2684L10.2683 4.25H8.11433L6.26562 10.25H7.83519L8.18206 9.125H10.3123ZM9.2052 5.80372L9.81228 7.625H8.64402L9.2052 5.80372Z" fill="#2285E0"/>
</svg>
