<svg width="80" height="80" fill="none" xmlns="http://www.w3.org/2000/svg"><path d="M45.87 21.815a6.03 6.03 0 00-1.396 1.983A5.712 5.712 0 0044 26.132a.847.847 0 00.276.614.966.966 0 00.658.254h.007a.987.987 0 00.357-.069.94.94 0 00.3-.192.87.87 0 00.201-.285.825.825 0 00.068-.335c-.009-1.15.47-2.257 1.333-3.077a4.792 4.792 0 013.266-1.293h.035c1.222 0 2.396.453 3.263 1.26.868.806 1.36 1.901 1.369 3.046a.847.847 0 00.276.614.966.966 0 00.657.254h.007a.99.99 0 00.357-.069.941.941 0 00.301-.191.872.872 0 00.2-.285.827.827 0 00.069-.335 5.821 5.821 0 00-1.122-3.375 6.437 6.437 0 00-2.935-2.222 6.912 6.912 0 00-3.758-.32 6.64 6.64 0 00-3.314 1.689zM17 33h-.03c-1.056.003-2.068.375-2.813 1.034-.745.659-1.16 1.55-1.157 2.479.004.928.427 1.817 1.177 2.47.75.655 1.765 1.02 2.822 1.017h.03c1.057-.003 2.07-.375 2.814-1.034.745-.659 1.16-1.55 1.157-2.479-.004-.928-.427-1.817-1.177-2.47-.75-.655-1.765-1.02-2.822-1.017zm.015 5.242H17a2.27 2.27 0 01-.76-.13 2.02 2.02 0 01-.644-.376 1.643 1.643 0 01-.586-1.23 1.64 1.64 0 01.575-1.233 2.13 2.13 0 011.4-.515H17c.26 0 .518.044.76.13.24.087.46.215.644.376.185.161.332.353.432.564a1.56 1.56 0 01.006 1.333 1.743 1.743 0 01-.428.566 2.02 2.02 0 01-.642.38c-.24.088-.497.134-.758.135z" fill="#DBE7EC"/><path d="M69.044 31.225a.982.982 0 00.008-.123 6.56 6.56 0 00-1.583-4.274 5.736 5.736 0 00-.985-.896L70 25.905a.909.909 0 00.663-.295.936.936 0 00.248-.69 10.01 10.01 0 00-.486-2.395c-.564-1.675-2.305-2.752-4.444-2.752h-.047c-1.32.01-3.718.019-4.79.023l-2.182-4.01C57.454 13.09 55.264 10 51.672 10h-.046l-26.337.197c-2.95.022-5.556 2.118-7.338 5.902l-2.217 4.056c-1.069.006-3.495.02-4.831.03-2.16.015-3.907 1.122-4.45 2.819-.248.778-.4 1.585-.452 2.4a.945.945 0 00.255.685.921.921 0 00.664.287h.008l3.46-.03a5.665 5.665 0 00-.954.913 6.66 6.66 0 00-1.485 4.3c0 .04.003.078.008.117L9.593 44.06c.023.848.338 1.661.89 2.298a3.562 3.562 0 002.132 1.188l.03 4.003c.004.6.242 1.175.662 1.598.42.423.988.66 1.58.661h.017l4.017-.03a2.23 2.23 0 001.58-.68c.417-.429.65-1.01.646-1.612l-.029-3.957 11.684-.088c-.04.54-.062 1.081-.062 1.626C32.74 60.609 41.994 70 53.37 70 64.745 70 74 60.61 74 49.067a20.953 20.953 0 00-5.412-14.133l.456-3.71zm-3.098-9.585h.033c1.319 0 2.403.596 2.704 1.49.1.3.183.607.247.917l-5.451.043-1.322-2.431c1.191-.005 2.796-.012 3.79-.019zm-46.372-4.661a.928.928 0 00.026-.052c.847-1.807 2.715-4.84 5.703-4.863l26.336-.197h.034c2.09 0 3.792 1.45 5.684 4.831l4.494 8.26-46.83.35 4.553-8.33zM7.968 24.5c.06-.31.138-.618.234-.92.29-.904 1.38-1.52 2.714-1.53l3.794-.023-1.325 2.426-5.417.047zm10.94 27.411l-4.018.03a.372.372 0 01-.286-.117.407.407 0 01-.12-.289l-.029-3.956 4.822-.037.03 3.957a.42.42 0 01-.116.29.4.4 0 01-.284.122zm14.119-6.338l-19.857.148a1.72 1.72 0 01-1.222-.505 1.772 1.772 0 01-.516-1.233.94.94 0 00-.008-.117L9.788 31.489c.006-2.6 1.751-4.2 3.508-4.317.052.01.104.014.156.015h.007l49.912-.374.023.001h.033a3.49 3.49 0 011.467.332c.46.216.868.53 1.198.92a4.738 4.738 0 011.119 2.991l-.275 2.239a20.473 20.473 0 00-12.54-5.137 20.42 20.42 0 00-12.98 3.845 20.856 20.856 0 00-4.288 4.15l-.017-2.356a.94.94 0 00-.271-.655.913.913 0 00-.649-.271h-.006a.91.91 0 00-.649.278.934.934 0 00-.264.662l.018 2.564a.94.94 0 00.272.656c.172.173.405.27.648.27h.007c.03 0 .06-.002.088-.005a20.994 20.994 0 00-3.278 8.276zm39.133 3.494c0 10.513-8.429 19.066-18.79 19.066-10.361 0-18.79-8.553-18.79-19.066a19.21 19.21 0 015.503-13.483A18.653 18.653 0 0153.37 30c4.983 0 9.763 2.009 13.287 5.584a19.21 19.21 0 015.503 13.483z" fill="#DBE7EC"/><path d="M31.495 33h-.004a.33.33 0 00-.189.066.585.585 0 00-.16.185 1.025 1.025 0 00-.106.275 1.378 1.378 0 00-.036.323l.01 2.315c.001.222.054.435.146.591.093.157.218.245.349.245h.004a.33.33 0 00.189-.066.588.588 0 00.16-.185c.045-.08.081-.172.106-.275.024-.102.037-.212.036-.323l-.01-2.314a1.206 1.206 0 00-.146-.592c-.093-.157-.218-.245-.349-.245zm-4.505 0h-.007c-.13 0-.259.023-.379.066-.12.044-.228.106-.32.185a.844.844 0 00-.211.275.735.735 0 00-.073.323l.02 2.315a.786.786 0 00.293.591c.185.157.436.245.697.245h.007c.13 0 .259-.023.379-.066a1.01 1.01 0 00.32-.185.842.842 0 00.211-.275.734.734 0 00.073-.323l-.02-2.315a.786.786 0 00-.293-.591A1.085 1.085 0 0026.99 33zm40.495 12.724a1.334 1.334 0 00.342-1.709l-2.996-5.114c-.315-.532-.972-.865-1.627-.488L60.13 39.85a12.638 12.638 0 00-2.12-1.246l-.308-3.44a1.302 1.302 0 00-.454-.862 1.268 1.268 0 00-.79-.3H50.61a1.218 1.218 0 00-.839.32c-.23.21-.373.5-.403.813l-.309 3.469a11.34 11.34 0 00-2.13 1.24l-3.09-1.441a.912.912 0 00-.041-.018c-.577-.235-1.28.003-1.562.519l-2.921 5.106a1.327 1.327 0 00.347 1.721l.019.014 2.775 2.003a8.386 8.386 0 00-.002 2.5l-2.907 2.009a1.318 1.318 0 00-.52.812 1.33 1.33 0 00.145.913l2.925 5.11.007.01c.153.272.395.479.684.586a1.11 1.11 0 00.94-.1l3.076-1.436c.665.484 1.375.9 2.12 1.245l.308 3.441a1.301 1.301 0 00.454.862c.222.188.5.294.789.3h5.849c.31.005.609-.11.839-.32.23-.21.374-.5.403-.812l.31-3.47a11.29 11.29 0 002.13-1.241l3.088 1.442.046.02c.574.23 1.276-.008 1.557-.52l2.927-5.112a1.325 1.325 0 00-.346-1.711l-2.597-2.008a8.437 8.437 0 00.002-2.521l2.782-2.008.02-.014zm-4.303.847a.918.918 0 00-.372.88l.03.21a7.33 7.33 0 010 2.678l-.029.203a.934.934 0 00.348.863l2.665 2.06-2.432 4.25-3.137-1.466a.895.895 0 00-.953.124l-.166.138a9.49 9.49 0 01-2.285 1.335l-.188.081a.928.928 0 00-.546.762l-.31 3.472H50.99l-.31-3.472a.928.928 0 00-.546-.762l-.189-.081a10.99 10.99 0 01-2.327-1.367l-.163-.125a.899.899 0 00-.923-.1l-3.128 1.46-2.42-4.227 2.778-1.92.022-.015.176-.13a.918.918 0 00.365-.874l-.03-.216a7.293 7.293 0 01.001-2.671l.03-.21a.933.933 0 00-.372-.88l-2.839-2.049 2.424-4.235 3.138 1.465a.895.895 0 00.952-.124l.166-.138c.697-.55 1.466-1 2.285-1.334l.189-.082a.927.927 0 00.546-.763l.31-3.471h4.817l.31 3.471a.93.93 0 00.17.458c.097.134.227.24.377.305l.188.081c.828.358 1.609.816 2.327 1.367l.163.125a.9.9 0 00.923.1l3.132-1.463 2.484 4.24-2.834 2.047z" fill="#DBE7EC"/><path d="M53.5 41c-4.767 0-8.5 3.514-8.5 8 0 4.486 3.733 8 8.5 8 4.766 0 8.5-3.514 8.5-8 0-4.486-3.734-8-8.5-8zm0 14.203a6.889 6.889 0 01-3.662-1.045 6.3 6.3 0 01-2.427-2.784 5.865 5.865 0 01-.376-3.584 6.1 6.1 0 011.804-3.176 6.729 6.729 0 013.375-1.698 6.975 6.975 0 013.808.353 6.521 6.521 0 012.958 2.285A5.947 5.947 0 0160.09 49a5.82 5.82 0 01-.482 2.384 6.122 6.122 0 01-1.427 2.022 6.566 6.566 0 01-2.148 1.343 6.88 6.88 0 01-2.533.454z" fill="#DBE7EC"/><path d="M53.5 45c-.89 0-1.76.235-2.5.674a4.142 4.142 0 00-1.657 1.795 3.594 3.594 0 00-.257 2.312 3.884 3.884 0 001.232 2.047c.63.56 1.431.94 2.304 1.095a5.025 5.025 0 002.6-.227 4.429 4.429 0 002.02-1.474A3.691 3.691 0 0058 49a3.575 3.575 0 00-.33-1.537 3.958 3.958 0 00-.974-1.304 4.529 4.529 0 00-1.467-.866A4.946 4.946 0 0053.5 45zm0 6.246c-.5 0-.988-.132-1.404-.379a2.326 2.326 0 01-.93-1.008 2.015 2.015 0 01-.144-1.297 2.18 2.18 0 01.692-1.15 2.637 2.637 0 011.293-.614 2.82 2.82 0 011.46.127c.461.17.856.458 1.133.828a2.072 2.072 0 01.241 2.11 2.222 2.222 0 01-.547.732 2.54 2.54 0 01-.823.486 2.776 2.776 0 01-.971.165z" fill="#DBE7EC"/></svg>