<svg width="60" height="61" viewBox="0 0 60 61" fill="none" xmlns="http://www.w3.org/2000/svg">
<path fill-rule="evenodd" clip-rule="evenodd" d="M59.154 11.144L55.8093 10.3547L46.7701 19.3454L41.6501 14.1294L50.4664 4.87709L49.6945 1.47984C47.8315 0.85637 45.8829 0.526431 43.9185 0.501846C41.7756 0.468882 39.6488 0.877723 37.6708 1.70289C35.7609 2.56769 34.0345 3.79082 32.5851 5.30604C30.9717 6.83485 29.6939 8.68272 28.833 10.7322C27.1755 14.811 27.1755 19.3759 28.833 23.4547C19.8934 32.2524 11.0692 41.1666 2.36273 50.1952C1.46223 51.3748 1.03343 52.8461 1.14492 54.3259C1.23279 55.9176 1.94836 57.4094 3.13458 58.4738C3.66631 59.0529 4.30094 59.5333 5.00847 59.8808C5.73745 60.2025 6.52216 60.3869 7.31546 60.4255C8.67049 60.3998 9.96978 59.8851 10.9775 58.98C17.6154 52.7302 30.3339 39.8919 37.5593 32.3682C39.5189 33.2004 41.6244 33.6293 43.7512 33.625C45.8922 33.6233 48.0111 33.1924 49.9827 32.3577C51.9544 31.5229 53.7387 30.3013 55.2304 28.7651C58.2945 25.6392 60.0058 21.4327 59.9945 17.0549C60.044 15.0516 59.76 13.054 59.154 11.144V11.144ZM8.38319 55.9388C8.21814 56.0854 8.01919 56.1886 7.8043 56.239C7.5929 56.2756 7.37678 56.2756 7.16538 56.239C6.94372 56.2052 6.73261 56.1216 6.54789 55.9945C6.34968 55.8785 6.18208 55.7167 6.05905 55.5227C5.45872 54.9093 4.89698 53.7426 5.45872 53.0863C11.3334 46.8365 23.43 34.6202 30.9942 27.1522C31.423 27.7184 31.8947 28.2589 32.4007 28.7651C32.9067 29.2927 33.4513 29.7817 34.0302 30.2278C26.7147 37.7343 14.7853 49.8048 8.38748 55.9388H8.38319ZM56.058 17.0549C56.0666 20.3363 54.7888 23.489 52.4903 25.8397C50.1968 28.0903 47.1121 29.3511 43.8992 29.3511C40.6863 29.3511 37.6016 28.0903 35.308 25.8397C33.627 24.0848 32.4787 21.8886 31.9967 19.5065C31.5146 17.1244 31.7187 14.6543 32.5851 12.3836C33.1618 10.8383 34.0563 9.43123 35.2109 8.25345C36.3654 7.07566 37.7541 6.15338 39.2874 5.54624C40.7431 4.93675 42.306 4.62465 43.8842 4.6283H44.9733L37.1819 12.6624V15.6479L45.3078 23.7378H48.1379L56.058 15.9482V17.0549V17.0549ZM9.69963 24.8831H16.2647L19.2878 27.9586L22.1951 25.0676L19.3435 22.1593V21.9749L19.5879 14.9015L18.6446 13.0271L6.38066 4.9543L3.8464 5.2374L0.283013 8.87915L0 11.4485L7.88148 23.9652L9.69963 24.8874V24.8831ZM5.6474 9.30381L15.57 15.8409L15.4028 20.658H10.7888L4.39099 10.5263L5.6474 9.30381V9.30381ZM36.1142 39.1584L39.0043 36.2716L52.3231 49.9335C53.445 51.1129 54.0706 52.6786 54.0706 54.3066C54.0706 55.9346 53.445 57.5003 52.3231 58.6797C51.4796 59.546 50.3948 60.1382 49.2101 60.3792C48.0254 60.6202 46.7957 60.4988 45.6809 60.0309C44.9694 59.7152 44.3313 59.2551 43.807 58.6797L30.3339 44.9406L33.2455 42.0323L46.6757 55.7329C46.8563 55.9321 47.081 56.0864 47.3318 56.1833C47.8253 56.3838 48.3776 56.3838 48.8712 56.1833C49.1219 56.0862 49.3466 55.932 49.5273 55.7329C49.715 55.5469 49.8611 55.3232 49.9561 55.0766C50.0545 54.8249 50.1068 54.5575 50.1105 54.2873C50.1062 54.0176 50.0554 53.7506 49.9604 53.4981C49.8654 53.2514 49.7193 53.0278 49.5316 52.8418L36.1142 39.1584Z" fill="#29C4A8"/>
</svg>
