<svg width="24" height="24" viewBox="0 0 24 24" fill="none" xmlns="http://www.w3.org/2000/svg">
<path fill-rule="evenodd" clip-rule="evenodd" d="M23.6616 4.25759L22.3237 3.94189L18.708 7.53817L16.66 5.45178L20.1865 1.75084L19.8778 0.391937C19.1326 0.142548 18.3531 0.0105725 17.5674 0.000738362C16.7102 -0.012447 15.8595 0.151089 15.0683 0.481157C14.3043 0.827076 13.6138 1.31633 13.034 1.92241C12.3887 2.53394 11.8776 3.27309 11.5332 4.09288C10.8702 5.72439 10.8702 7.55038 11.5332 9.18189C7.95736 12.7009 4.42769 16.2666 0.945092 19.8781C0.584894 20.3499 0.413371 20.9384 0.457967 21.5304C0.493115 22.167 0.779344 22.7637 1.25383 23.1895C1.46652 23.4212 1.72038 23.6133 2.00339 23.7523C2.29498 23.881 2.60887 23.9548 2.92618 23.9702C3.4682 23.9599 3.98791 23.754 4.39099 23.392C7.04617 20.8921 12.1335 15.7568 15.0237 12.7473C15.8076 13.0801 16.6497 13.2517 17.5005 13.25C18.3569 13.2493 19.2044 13.077 19.9931 12.7431C20.7817 12.4092 21.4955 11.9205 22.0922 11.306C23.3178 10.0557 24.0023 8.37308 23.9978 6.62194C24.0176 5.82063 23.904 5.0216 23.6616 4.25759ZM3.35328 22.1755C3.28726 22.2341 3.20768 22.2754 3.12172 22.2956C3.03716 22.3102 2.95071 22.3102 2.86615 22.2956C2.77749 22.2821 2.69304 22.2487 2.61916 22.1978C2.53987 22.1514 2.47283 22.0867 2.42362 22.0091C2.18349 21.7637 1.95879 21.297 2.18349 21.0345C4.53335 18.5346 9.37202 13.6481 12.3977 10.6609C12.5692 10.8874 12.7579 11.1036 12.9603 11.306C13.1627 11.5171 13.3805 11.7127 13.6121 11.8911C10.6859 14.8937 5.91411 19.7219 3.35499 22.1755H3.35328ZM22.4232 6.62194C22.4266 7.93451 21.9155 9.19561 20.9961 10.1359C20.0787 11.0361 18.8448 11.5404 17.5597 11.5404C16.2745 11.5404 15.0406 11.0361 14.1232 10.1359C13.4508 9.43393 12.9915 8.55544 12.7987 7.60259C12.6059 6.64974 12.6875 5.66171 13.034 4.75345C13.2647 4.13532 13.6225 3.57249 14.0843 3.10138C14.5461 2.63027 15.1017 2.26135 15.7149 2.0185C16.2972 1.7747 16.9224 1.64986 17.5537 1.65132H17.9893L14.8728 4.86498V6.05916L18.1231 9.29513H19.2552L22.4232 6.17927V6.62194ZM3.87985 9.75324H6.50587L7.71511 10.9835L8.87803 9.82702L7.7374 8.66372V8.58994L7.83517 5.76062L7.45782 5.01082L2.55226 1.78172L1.53856 1.89496L0.113205 3.35166L0 4.37941L3.15259 9.38607L3.87985 9.75496V9.75324ZM2.25896 3.52152L6.228 6.13637L6.16111 8.0632H4.31552L1.7564 4.01052L2.25896 3.52152ZM14.4457 15.4634L15.6017 14.3086L20.9292 19.7734C21.378 20.2452 21.6282 20.8715 21.6282 21.5226C21.6282 22.1738 21.378 22.8001 20.9292 23.2719C20.5918 23.6184 20.1579 23.8553 19.6841 23.9517C19.2102 24.0481 18.7183 23.9995 18.2724 23.8124C17.9878 23.6861 17.7325 23.502 17.5228 23.2719L12.1335 17.7762L13.2982 16.6129L18.6703 22.0931C18.7425 22.1728 18.8324 22.2345 18.9327 22.2733C19.1301 22.3535 19.3511 22.3535 19.5485 22.2733C19.6488 22.2345 19.7386 22.1728 19.8109 22.0931C19.886 22.0187 19.9444 21.9293 19.9824 21.8306C20.0218 21.73 20.0427 21.623 20.0442 21.5149C20.0425 21.407 20.0222 21.3002 19.9841 21.1992C19.9462 21.1006 19.8877 21.0111 19.8126 20.9367L14.4457 15.4634Z" fill="#2285E0"/>
</svg>
