<svg width="25" height="24" fill="none" xmlns="http://www.w3.org/2000/svg"><path d="M12.98 0c-6.628 0-12 5.372-12 12s5.372 12 12 12 12-5.372 12-12-5.372-12-12-12zm4.881 9.83c.005.102.006.205.006.305 0 3.125-2.376 6.726-6.723 6.726A6.668 6.668 0 017.52 15.8c.184.022.373.031.564.031a4.734 4.734 0 002.935-1.011 2.37 2.37 0 01-2.208-1.64c.354.067.719.053 1.067-.042a2.366 2.366 0 01-1.897-2.317v-.029a2.37 2.37 0 001.072.296 2.363 2.363 0 01-.732-3.157 6.72 6.72 0 004.872 2.471 2.364 2.364 0 014.027-2.156 4.746 4.746 0 001.5-.574 2.375 2.375 0 01-1.038 1.309 4.75 4.75 0 001.357-.374c-.317.475-.716.89-1.179 1.224z" fill="#9FB7D3"/></svg>