<svg width="25" height="24" fill="none" xmlns="http://www.w3.org/2000/svg"><path d="M12.993 0c-6.627 0-12 5.372-12 12s5.373 12 12 12c6.628 0 12-5.372 12-12s-5.372-12-12-12zm4.615 13.539s1.061 1.047 1.323 1.534c.007.01.011.02.014.024.106.18.13.318.078.422-.087.172-.387.257-.49.265h-1.875c-.13 0-.402-.034-.732-.261-.254-.178-.504-.47-.748-.753-.364-.422-.679-.787-.996-.787a.38.38 0 00-.119.018c-.24.078-.547.42-.547 1.333 0 .285-.225.449-.384.449h-.859c-.292 0-1.816-.103-3.166-1.527-1.652-1.744-3.14-5.241-3.152-5.274-.094-.226.1-.347.31-.347H8.16c.252 0 .335.154.392.29.068.159.315.79.721 1.5.659 1.157 1.063 1.627 1.386 1.627.061 0 .12-.016.174-.044.423-.235.344-1.742.325-2.054 0-.059-.001-.674-.217-.969-.155-.214-.419-.295-.579-.325a.688.688 0 01.249-.211c.29-.145.812-.167 1.331-.167h.289c.562.008.707.044.911.095.413.1.421.365.385 1.277-.011.258-.022.551-.022.896 0 .075-.004.155-.004.24-.013.464-.028.99.3 1.206a.27.27 0 00.142.041c.114 0 .457 0 1.384-1.59.286-.513.535-1.045.744-1.593a.492.492 0 01.138-.172.333.333 0 01.155-.036h2.227c.242 0 .409.036.44.13.055.149-.01.603-1.026 1.979l-.454.599c-.921 1.207-.921 1.269.057 2.185z" fill="#9FB7D3"/></svg>