<svg width="19" height="22" viewBox="0 0 19 22" fill="none" xmlns="http://www.w3.org/2000/svg">
<path fill-rule="evenodd" clip-rule="evenodd" d="M16 18H4C3.44772 18 3 18.4477 3 19C3 19.5523 3.44772 20 4 20H16C16.5523 20 17 19.5523 17 19C17 18.4477 16.5523 18 16 18ZM4 16C2.34315 16 1 17.3431 1 19C1 20.6569 2.34315 22 4 22H16C17.6569 22 19 20.6569 19 19C19 17.3431 17.6569 16 16 16H4Z" fill="#2285E0"/>
<path fill-rule="evenodd" clip-rule="evenodd" d="M7.09411 13.4184C7.07719 13.8001 7.06259 14.1808 7.05027 14.5391L12.9497 14.5391C12.9374 14.1808 12.9228 13.8001 12.9059 13.4184C12.8744 12.709 12.836 12.0205 12.7916 11.4822C12.7693 11.211 12.7471 10.9999 12.7268 10.8531C12.7244 10.836 12.7222 10.8208 12.7202 10.8073C12.5732 10.4939 12.3719 10.2077 12.1249 9.96186C11.8468 9.68515 11.5161 9.46511 11.1513 9.31481C10.7866 9.16449 10.3954 9.087 10 9.087C9.60463 9.087 9.21337 9.16449 8.84865 9.3148C8.48394 9.46511 8.15321 9.68515 7.87509 9.96186C7.62804 10.2077 7.42679 10.4939 7.27981 10.8073C7.27777 10.8208 7.27555 10.836 7.27319 10.8531C7.25284 10.9999 7.23072 11.211 7.20835 11.4822C7.16396 12.0205 7.12555 12.709 7.09411 13.4184ZM14.9509 14.5391C14.9835 15.5028 15 16.3058 15 16.5391L5 16.5391C5 16.3058 5.01648 15.5028 5.04911 14.5391C5.10788 12.8032 5.21903 10.5461 5.38059 10.158C5.63187 9.55444 6.00017 9.00602 6.46446 8.54407C6.92875 8.08212 7.47995 7.71569 8.08658 7.46568C8.69321 7.21568 9.34339 7.087 10 7.087C10.6566 7.087 11.3068 7.21568 11.9134 7.46568C12.52 7.71569 13.0712 8.08213 13.5355 8.54408C13.9998 9.00603 14.3681 9.55444 14.6194 10.158C14.781 10.5461 14.8921 12.8032 14.9509 14.5391Z" fill="#2285E0"/>
<path fill-rule="evenodd" clip-rule="evenodd" d="M2.2036 3.39453L5.2036 6.37939L3.79297 7.79718L0.792969 4.81232L2.2036 3.39453Z" fill="#2285E0"/>
<path fill-rule="evenodd" clip-rule="evenodd" d="M18.7031 4.81232L15.7031 7.79718L14.2925 6.37939L17.2925 3.39453L18.7031 4.81232Z" fill="#2285E0"/>
<path fill-rule="evenodd" clip-rule="evenodd" d="M11.1236 0.00137311L11.1236 5.33804H9.11857L9.11857 0.00137311H11.1236Z" fill="#2285E0"/>
</svg>
