<svg width="25" height="24" fill="none" xmlns="http://www.w3.org/2000/svg"><path d="M16.603 0H9.235C2.51 0 .919 1.592.919 8.316v7.368C.919 22.408 2.51 24 9.235 24h7.368c6.724 0 8.316-1.592 8.316-8.316V8.316c0-6.724-1.61-8.316-8.316-8.316zm3.692 17.123H18.55c-.66 0-.864-.525-2.05-1.727-1.033-1-1.49-1.135-1.744-1.135-.356 0-.458.102-.458.593v1.575c0 .424-.135.678-1.253.678-1.846 0-3.896-1.118-5.335-3.202-2.168-3.048-2.762-5.335-2.762-5.809 0-.254.102-.491.593-.491h1.744c.44 0 .61.203.78.677.863 2.49 2.303 4.675 2.896 4.675.22 0 .322-.102.322-.66V9.721c-.068-1.186-.695-1.287-.695-1.71 0-.204.17-.407.44-.407h2.744c.373 0 .508.203.508.643v3.473c0 .372.17.508.27.508.22 0 .408-.136.814-.542 1.254-1.406 2.15-3.574 2.15-3.574.12-.254.323-.491.764-.491h1.744c.525 0 .644.27.525.643-.22 1.017-2.354 4.031-2.354 4.031-.186.305-.254.44 0 .78.186.254.796.779 1.203 1.253.745.847 1.32 1.558 1.473 2.05.17.49-.085.744-.576.744v.001z" fill="#fff"/></svg>