<svg width="638" height="295" fill="none" xmlns="http://www.w3.org/2000/svg"><g clip-path="url(#clip0_261_1841)" fill="#2285E0"><path d="M219.015 215.6l-1.422-4.902v-.079c.237-20.473-6.085-37.864-6.164-38.022-4.505-12.49-16.437-21.976-31.926-25.454-17.227-3.874-34.691.474-45.597 11.304-22.047 21.817-12.09 50.354-11.932 50.67l.237.633h-.632c-42.515-2.293-52.71-11.225-53.184-11.62l-.079-.079v-.159c-.474-2.055-.316-3.478.554-4.347.79-.791 1.975-.712 2.607-.633l.474-14.308-2.291-1.423v-.237c0-16.679 6.875-24.742 7.981-25.928l.08-4.664c-.554-2.925 3.476-6.166 4.108-6.64 12.96-22.766 107.394-28.774 111.424-29.011 9.483-.87 20.468-5.929 20.547-5.929.316-.158 33.901-17.47 63.93-30.276 19.914-8.458 40.855-13.755 62.192-15.89 32.953-3.24 96.725-6.323 153.148 9.329.395.079 40.698 11.778 80.131 29.564 1.817.158 37.141 3.479 47.967 5.139.158 0 3.635.553 3.951 6.561v.158l-.079.079c-.79 1.265-2.449 4.901-1.185 6.324 1.739 2.055 3.082 23.082 3.24 25.849.395.87 4.267 8.142 8.693 12.411l.079.079v.158c.079.553 2.765 12.964-1.028 18.656 1.028 1.185 4.9 6.403 2.055 11.778.158.712.632 3.32-1.976 6.166-.474.949-6.243 9.328-51.997 15.652l-12.881 1.186.079-.554c2.845-15.335-2.845-30.276-2.924-30.434-14.304-35.256-53.737-28.142-54.132-28.063-23.707 5.692-33.032 21.818-36.746 34.308-4.03 13.597-2.37 26.007-2.37 26.086.474 1.423.316 2.609-.396 3.4-1.343 1.502-4.267.948-4.425.948L219.015 215.6zm-.553-4.981l1.185 4.111 249.716-2.134c.079 0 2.687.474 3.714-.712.474-.553.553-1.423.158-2.608 0-.159-1.659-12.727 2.371-26.482 3.714-12.727 13.276-29.09 37.378-34.94.395-.079 40.619-7.352 55.159 28.537.079.158 5.769 14.94 3.082 30.355l11.696-1.107c46.545-6.403 51.286-15.098 51.365-15.177l.079-.079c2.608-2.925 1.818-5.455 1.739-5.534l-.079-.158.079-.158c3.082-5.692-1.976-11.146-2.055-11.225l-.237-.237.237-.316c3.635-4.901 1.344-16.759 1.106-18.103-4.82-4.585-8.692-12.252-8.85-12.569l-.079-.158c-.553-9.486-1.818-24.11-3.003-25.454-1.739-2.055.553-6.482 1.027-7.272-.316-5.139-3.082-5.613-3.161-5.613-10.984-1.66-47.651-5.138-47.967-5.138h-.158c-39.354-17.944-79.657-29.565-80.052-29.644-56.344-15.651-119.958-12.569-152.911-9.328-21.337 2.056-42.12 7.431-61.955 15.89-29.95 12.805-63.535 30.117-63.851 30.275-.158.08-11.222 5.218-20.863 6.087-1.027.079-98.226 6.245-110.791 28.616l-.08.158c-.078 0-4.346 3.32-3.871 5.85v.079l-.08 5.059-.158.158c-.079 0-7.744 7.905-7.823 25.059l2.292 1.423-.632 15.968-.554-.158s-1.501-.474-2.291.316c-.553.553-.712 1.739-.316 3.32 1.106.87 12.406 9.091 51.839 11.225-1.343-4.268-8.297-30.513 12.407-50.908 11.142-11.067 28.923-15.414 46.387-11.541 15.726 3.557 27.896 13.28 32.479 26.007.158.238 6.559 17.708 6.322 38.26z"/><path d="M247.78 118.132c-10.669 0-11.143-.554-11.38-.949l-.237-.316.237-.237c.079-.159 10.984-12.253 30.266-24.743 17.86-11.541 46.704-25.691 83.213-27.746 2.212-.159 5.61-.317 8.218-.554l1.66-.079c14.382-.948 75.942-2.213 115.296 8.696 41.408 11.462 57.292 19.367 61.243 21.501 1.581.87 2.45 2.45 2.292 4.269-.079 1.739-1.186 3.241-2.845 3.873-3.398 1.265-8.456 2.135-15.015 2.372-1.106.079-2.212.079-3.398.158-1.975.079-4.03.158-6.084.237-19.282 1.186-87.164 5.454-150.541 8.854-68.672 3.715-99.254 4.664-112.925 4.664zm-10.353-1.344c9.167 2.608 152.201-5.376 273.819-13.044 2.054-.158 4.109-.158 6.084-.237 1.107 0 2.213-.079 3.319-.158 6.559-.237 11.538-1.027 14.778-2.292 1.264-.475 2.134-1.66 2.292-3.083.079-1.423-.633-2.767-1.897-3.4-3.872-2.134-19.756-9.96-61.007-21.422-39.195-10.909-100.676-9.565-114.979-8.695l-1.66.079c-2.687.158-6.006.395-8.297.553-65.985 3.636-108.105 47.035-112.452 51.699z"/><path d="M364.419 200.737l-1.502-7.352v-.079c.633-2.213 1.502-16.284 1.028-26.244-.395-8.854 3.714-53.043 5.927-54.782 1.343-1.344 6.005-28.062 8.613-44.663l.869.158c-1.185 7.273-7.033 43.636-8.929 45.217-1.739 1.739-6.085 43.714-5.611 54.07.395 9.248-.395 23.636-1.027 26.402l1.501 7.194-.869.079zm17.543-91.382l4.821-42.213h.395c44.57-1.66 72.465 5.06 72.781 5.139l.158.079 11.301 18.023-1.344 15.099-88.112 3.873zm5.532-41.422l-4.583 40.473 86.373-3.794 1.264-14.07-10.984-17.55c-2.45-.553-29.634-6.64-72.07-5.059zm-115.217 46.721l-.079-.869c.237-.08 6.006-1.107 4.82-8.933-1.185-7.905-4.741-8.854-4.82-8.854l-.869-.237.711-.553c.395-.237 37.062-27.272 97.752-28.458h.554l-10.906 44.189h-.316l-86.847 3.715zm.869-19.13c1.265.712 3.714 2.846 4.663 9.249.79 5.296-1.344 7.826-3.24 8.932l84.081-3.557 10.51-42.528c-55.791 1.264-91.035 24.426-96.014 27.904zm-40.618 106.874c-2.687-2.846-2.45-11.937-2.45-12.332 0-.395-1.501-42.766-1.501-53.991 0-11.383 7.744-19.367 7.823-19.446l.632.632c-.079.079-7.586 7.826-7.586 18.814 0 11.225 1.501 53.596 1.501 53.991 0 .079-.158 9.091 2.213 11.699l-.632.633z"/><path d="M232.765 196.39l1.581-.869c.158-.079 19.044-9.881 47.967-10.356 28.844-.395 139.873-3.636 140.979-3.636.237 0 20.23-.711 31.847 10.197l.79.712-223.164 3.952zm191.475-13.991h-.869c-1.106 0-112.214 3.241-140.979 3.636-23.628.316-40.539 7.035-45.834 9.407l217.237-3.795c-10.036-8.695-25.683-9.248-29.555-9.248zm-206.094-73.281c-5.848 0-9.088-1.344-9.325-1.423l.316-.79c.079 0 7.349 3.003 19.677 0 5.769-1.423 17.464-7.826 30.977-15.257 15.647-8.537 33.348-18.26 46.624-22.845 22.838-7.826 99.966-15.81 182.941 0l3.556-.87.158.87-3.714.87h-.079c-82.817-15.732-159.787-7.748-182.545 0-13.197 4.505-30.899 14.228-46.467 22.766-13.513 7.43-25.208 13.833-31.135 15.335-4.346.949-7.981 1.344-10.984 1.344zm400.019 9.41l-.237-4.11c-.158-2.372-4.583-2.451-10.668-2.609-3.003-.079-6.48-.079-10.115-.474-9.325-.87-10.431-2.925-11.617-5.218-.316-.553-.632-1.185-1.106-1.818-2.292-2.846-11.3-6.008-11.38-6.087l.317-.79c.395.158 9.324 3.32 11.774 6.324.553.632.869 1.344 1.186 1.897 1.106 2.134 2.054 3.953 10.984 4.743 3.635.316 7.033.395 10.036.474 6.875.158 11.379.237 11.537 3.399l.238 4.111-.949.158z"/><path d="M626.304 136.232h-18.649c-2.687-.316-12.486-11.462-14.304-14.071-.632-.869-.711-1.66-.474-2.371.553-1.344 2.766-1.739 2.845-1.739h28.607v.869H595.88c-.474.079-1.817.475-2.133 1.265-.158.395-.079.949.395 1.502 2.133 3.083 11.537 13.359 13.592 13.676h18.57v.869z"/><path d="M632.232 155.283c-16.833 0-37.221-30.671-38.169-32.094l.711-.474c.237.395 23.865 35.888 40.619 31.224l.237.791c-1.028.395-2.213.553-3.398.553zM467.071 213.07c-1.027-26.482 5.295-45.454 20.072-59.682 12.328-11.858 43.306-19.051 69.542-1.819 26.947 17.708 21.178 54.703 21.178 55.098l-.869-.158c.079-.395 5.689-36.837-20.784-54.228-25.841-17.075-56.344-9.96-68.434 1.66-14.541 14.071-20.863 32.805-19.836 59.05l-.869.079zm117.746-24.823l.395-.712c7.665-12.885 47.493-14.94 49.232-15.019l.079.869c-.395 0-39.512 1.976-48.047 13.913 14.067-.791 48.205-3.162 50.813-5.613l.553.633c-3.398 3.241-47.256 5.691-52.235 5.929h-.79z"/><path d="M556.447 152.359l-.079-.869c.079 0 4.188-.238 14.778-1.265 10.51-1.028 31.451-16.047 31.688-16.205l.474.711c-.869.632-21.415 15.257-32.083 16.363-10.59 1.028-14.699 1.265-14.778 1.265zm-21.719-50.943l-.021.869 88.007 2.072.02-.869-88.006-2.072zm-327.804 19.56l-.869-.158c1.976-8.854 8.693-12.332 9.009-12.49l.395.791c-.079-.079-6.717 3.399-8.535 11.857z"/><path d="M78.748 171.412v-.474c0-.079.316-4.348 4.662-4.585.474 0 1.027-.079 1.66-.079 4.267-.158 11.458-.475 13.275-2.767 1.58-2.055 4.189-4.98 5.374-6.324l-19.124.316c-.237.079-1.343.237-2.291-.474-.87-.632-1.423-1.739-1.58-3.241-.159-.316-.95-1.897-3.32-1.186l-.237-.79c3.398-.949 4.346 1.739 4.346 1.818v.079c.158 1.265.553 2.213 1.186 2.688.79.553 1.66.395 1.66.395h.078l21.1-.474-.633.711c0 .079-3.872 4.269-6.005 7.035-1.976 2.609-9.167 2.925-13.909 3.083-.632 0-1.185.079-1.66.079-2.844.158-3.634 2.372-3.792 3.32l5.452-.316c10.985.316 16.674-2.213 18.334-4.743 1.738-2.608 22.759-24.663 23.628-25.533 6.401-5.375 16.042-10.276 19.835-12.173a8.991 8.991 0 001.66-.949l.316-.158c11.221-6.561 82.58-7.431 85.583-7.51v.87c-.712 0-74.204.869-85.188 7.351l-.316.158a33.77 33.77 0 01-1.739.949c-3.793 1.818-13.355 6.719-19.677 12.016-.158.158-21.81 22.924-23.47 25.454-.869 1.343-4.82 5.533-19.045 5.138l-6.163.316z"/><path d="M112.649 202.555h-.474c-29.713-.237-43.78-6.166-43.937-6.245l.316-.79c.158.079 13.908 5.929 43.147 6.166-.395-4.664-2.292-41.976 30.661-57.153 12.091-5.613 25.92-6.878 39.038-3.636 15.41 3.794 35.087 14.228 41.567 42.449.079.554 1.501 12.964 1.106 18.735l-.869-.079c.395-5.692-1.027-18.419-1.106-18.498-6.401-27.746-25.762-38.023-40.935-41.817-12.881-3.162-26.552-1.897-38.485 3.557-34.454 15.889-30.108 56.363-30.108 56.758l.079.553z"/><path d="M462.962 188.326c-5.532 0-11.063-1.976-15.726-5.771-6.638-5.296-14.856-6.64-18.412-7.193l-.395-.079c-4.821-.791-141.532-4.664-166.188-3.953-25.288.791-39.275 12.253-39.354 12.411l-.553-.632c.158-.079 14.303-11.858 39.907-12.569 24.656-.712 161.525 3.162 166.346 3.952l.395.079c3.556.554 12.011 1.898 18.807 7.352 5.216 4.19 11.538 6.166 17.702 5.454 3.082-.316 6.401-1.106 9.799-2.292l.316.791c-3.477 1.185-6.875 1.976-10.036 2.371-.869 0-1.739.079-2.608.079zM82.145 140.502l-.079-.87c.395 0 41.962-2.688 51.287-4.269l.158.87c-9.325 1.581-50.97 4.269-51.366 4.269zm4.979 13.992c-2.37 0-3.32-.633-4.03-2.609-.712-2.213-4.9-2.055-4.979-2.055l-.079-.87c.237 0 4.9-.237 5.848 2.688.711 2.213 1.501 2.372 7.665 1.66l16.042.395 13.039-12.094-41.567 2.134-.079-.869 43.938-2.214-15.094 13.992-16.358-.395c-1.738.079-3.24.237-4.346.237zm21.732 47.825c-3.398-5.297-15.49-19.921-15.647-20.079-4.584-7.035-22.838-6.482-23.075-6.482v-.87c.79 0 18.966-.632 23.786 6.799.079.079 12.249 14.782 15.647 20.157l-.711.475z"/><path d="M96.923 196.391c-7.824 0-22.522-.553-23.47-4.743l-1.502-13.675h.474c.633-.079 16.358-1.028 21.969 7.826 0 .079 6.164 7.825 7.823 9.723l.237.079v.395c0 .395-.395.395-.553.395h-4.978zM72.9 178.842l1.343 12.806c.948 4.111 22.048 4.19 26.789 3.953-2.055-2.451-7.191-8.933-7.428-9.249-4.82-7.747-18.097-7.668-20.704-7.51zM522.23 239c-23.707 0-42.989-19.447-42.989-43.399s19.282-43.398 42.989-43.398c23.707 0 42.989 19.446 42.989 43.398S545.937 239 522.23 239zm0-86.006c-23.233 0-42.12 19.051-42.12 42.528 0 23.478 18.887 42.529 42.12 42.529 23.233 0 42.12-19.051 42.12-42.529 0-23.477-18.887-42.528-42.12-42.528z"/><path d="M522.704 229.593c-18.333 0-33.348-15.099-33.348-33.676 0-18.576 14.935-33.675 33.348-33.675 18.413 0 33.348 15.099 33.348 33.675-.079 18.577-15.014 33.676-33.348 33.676zm0-66.481c-17.859 0-32.479 14.703-32.479 32.805 0 18.103 14.541 32.806 32.479 32.806 17.939 0 32.479-14.703 32.479-32.806-.079-18.102-14.62-32.805-32.479-32.805zm-304.638 39.444v-.869l229.486-1.502c.474 0 11.3.395 16.121-14.466v-.08l32.558-57.864c.079-.158 6.006-8.221 1.501-14.308l-5.136-7.905c-6.322-6.719-24.261-33.991-24.498-34.228l.711-.475c.159.238 18.097 27.51 24.419 34.229l5.136 7.905c4.821 6.561-1.422 15.177-1.501 15.256l-32.558 57.786c-4.978 15.493-16.832 15.098-16.911 15.019l-229.328 1.502z"/><path d="M479.478 104.377l-8.93-13.675.711-.475 8.693 13.202 46.387-2.056c.553-.316 4.188-2.371 4.425-6.403-3.714-1.422-42.357-16.68-59.821-20l-11.142-1.975.158-.87 11.063 2.055c18.413 3.4 59.9 20 60.296 20.158l.237.079v.316c-.079 5.06-4.742 7.352-4.979 7.51l-.158.079-46.94 2.055zM369.795 66.799l-.014.869 17.383.275.014-.87-17.383-.274zm12.58 41.638l-23.33 1.688.063.867 23.33-1.688-.063-.867z"/><path d="M479.642 103.518l-10.054 1.107.095.864 10.054-1.107-.095-.864zm36.661 122.278l-.474-.158c-12.012-3.478-18.571-13.834-18.65-13.913l-.237-.395 16.832-7.431 3.714-6.877-7.744-2.213-17.069 3.32-.079-.474c-1.265-9.882 6.638-22.055 6.954-22.609l.316-.474 13.039 16.126 6.875-.395v-8.3l-9.246-15.494.553-.158c14.778-4.032 23.471-.158 23.787 0l.395.158-9.483 16.759 1.343 6.323 7.35-1.106 11.695-12.806.316.395c8.219 9.96 6.559 21.897 6.559 21.976l-.079.474-14.698-3.399-8.535 2.688 4.505 6.719 15.251 7.272-.316.396c-10.036 12.173-19.598 13.438-19.993 13.438l-.474.079-.869-18.339-4.663-6.087-5.453 6.166-1.422 18.339zm6.796-25.849l5.453 7.194v.158l.869 17.549c1.976-.396 10.115-2.53 18.65-12.648l-14.462-6.878-5.215-7.826 9.878-3.082 13.987 3.241c.237-2.214.632-12.016-6.085-20.474l-11.221 12.252-8.377 1.265-1.659-7.43 9.166-16.206c-1.896-.711-9.878-3.241-22.205.079l8.771 14.783v9.248l-8.139.475-12.565-15.573c-1.422 2.371-7.428 12.648-6.559 21.027l16.358-3.162 9.009 2.53-4.426 8.142-.158.079-16.041 7.114c1.343 1.898 7.349 9.882 17.385 12.965l1.264-17.628 6.322-7.194z"/><path d="M518.753 189.435l-6.48-1.265-11.538-17.074.712-.475 11.3 16.759 5.137 1.028v-5.218l-11.459-16.126.632-.474 11.696 16.284v6.561zm-25.762 20.868l-.237-.791 19.677-6.64 2.292-4.98-5.058-1.502-19.124 6.166-.316-.87 19.44-6.245 6.243 1.898-2.845 6.165-20.072 6.799zm32.795 18.654l-.395-21.58-2.608-3.716-3.24 4.19v21.106h-.869v-21.422l4.109-5.297 3.398 4.901.474 21.818h-.869zm26.552-18.653l-17.859-6.956-4.109-5.138 7.033-1.898h.079l17.859 4.743-.237.87-17.701-4.743-5.532 1.502 3.082 3.952 17.701 6.878-.316.79zm-24.497-20.869l-1.423-5.217 11.854-17.628.711.474-11.695 17.312 1.185 4.032 4.979-1.028 11.3-15.968.711.474-11.458 16.284-6.164 1.265zm-5.137 9.012a2.918 2.918 0 01-2.924-2.925c0-1.66 1.265-2.924 2.924-2.924 1.66 0 2.924 1.264 2.924 2.924a2.917 2.917 0 01-2.924 2.925zm0-4.901c-1.106 0-2.054.949-2.054 2.056 0 1.106.948 2.055 2.054 2.055 1.106 0 2.055-.949 2.055-2.055-.079-1.107-.949-2.056-2.055-2.056zm.553-2.373c-1.106 0-1.896-.869-1.896-1.897s.869-1.897 1.896-1.897c1.028 0 1.897.869 1.897 1.897s-.869 1.897-1.897 1.897zm0-3.004a1.08 1.08 0 00-1.106 1.107 1.08 1.08 0 001.106 1.107 1.08 1.08 0 001.107-1.107c0-.632-.553-1.107-1.107-1.107zm5.848 6.879c-1.106 0-1.897-.869-1.897-1.897s.87-1.897 1.897-1.897c1.106 0 1.897.869 1.897 1.897.079 1.028-.791 1.897-1.897 1.897zm0-3.004a1.08 1.08 0 00-1.106 1.107 1.08 1.08 0 001.106 1.107 1.08 1.08 0 001.106-1.107 1.08 1.08 0 00-1.106-1.107zm-2.212 10.512c-1.107 0-1.897-.869-1.897-1.897 0-1.107.869-1.897 1.897-1.897 1.106 0 1.896.869 1.896 1.897s-.869 1.897-1.896 1.897zm0-3.004c-.633 0-1.107.475-1.107 1.107s.474 1.107 1.107 1.107a1.08 1.08 0 001.106-1.107c-.079-.632-.553-1.107-1.106-1.107zm-7.745 2.926c-1.106 0-1.897-.87-1.897-1.897 0-1.107.87-1.897 1.897-1.897 1.106 0 1.897.869 1.897 1.897 0 1.027-.87 1.897-1.897 1.897zm0-3.083a1.08 1.08 0 00-1.106 1.107 1.08 1.08 0 001.106 1.106 1.08 1.08 0 001.106-1.106c0-.554-.553-1.107-1.106-1.107zm-2.845-3.952c-1.106 0-1.896-.87-1.896-1.897 0-1.107.869-1.898 1.896-1.898 1.107 0 1.897.87 1.897 1.898.079 1.027-.79 1.897-1.897 1.897zm0-3.004a1.08 1.08 0 00-1.106 1.107 1.08 1.08 0 001.106 1.106 1.08 1.08 0 001.107-1.106c0-.633-.475-1.107-1.107-1.107zm-3.793-.871c-12.644-7.984-18.097-3.399-18.097-3.32l-.553-.633c.237-.237 5.848-5.138 19.124 3.241l-.474.712zm12.407-8.301c-.079-7.747-1.739-12.964-5.058-15.415-3.003-2.213-6.243-1.265-6.322-1.265l-.237-.79c.158-.079 3.714-1.028 7.033 1.423 3.556 2.608 5.374 7.984 5.453 16.047h-.869zm13.434 11.859l-.158-.87c10.589-2.292 10.352-13.833 10.352-13.912h.869c-.079.158.158 12.411-11.063 14.782zm2.845 21.422c-7.666 0-13.355-8.932-13.434-9.011l.711-.475c.079.159 8.139 12.807 17.701 7.194l.395.711c-1.817 1.107-3.635 1.581-5.373 1.581zm-29.476 7.59c-7.349-9.565 1.817-20.078 1.897-20.158l.632.554c-.079.079-8.772 10.039-1.897 19.051l-.632.553zM169.072 239c-23.708 0-42.989-19.447-42.989-43.399s19.281-43.398 42.989-43.398c23.707 0 42.989 19.446 42.989 43.398S192.779 239 169.072 239zm0-86.006c-23.233 0-42.12 19.051-42.12 42.528 0 23.478 18.887 42.529 42.12 42.529 23.233 0 42.119-19.051 42.119-42.529 0-23.477-18.886-42.528-42.119-42.528z"/><path d="M169.546 229.593c-18.334 0-33.348-15.099-33.348-33.676 0-18.576 14.935-33.675 33.348-33.675 18.333 0 33.348 15.099 33.348 33.675-.079 18.577-15.015 33.676-33.348 33.676zm0-66.481c-17.86 0-32.479 14.703-32.479 32.805 0 18.103 14.54 32.806 32.479 32.806 17.859 0 32.479-14.703 32.479-32.806-.079-18.102-14.62-32.805-32.479-32.805z"/><path d="M163.145 225.797l-.474-.158c-12.012-3.478-18.571-13.834-18.65-13.913l-.237-.395 16.832-7.431 3.714-6.877-7.744-2.213-17.069 3.32-.079-.475c-1.265-9.881 6.638-22.054 6.954-22.608l.316-.474 13.039 16.126 6.875-.395v-8.3l-9.246-15.573.553-.158c14.778-4.032 23.47-.158 23.786 0l.396.158-9.483 16.758 1.343 6.324 7.349-1.106 11.696-12.806.316.395c8.219 9.96 6.559 21.897 6.559 21.976l-.079.474-14.698-3.399-8.535 2.688 4.504 6.719 15.252 7.272-.316.396c-10.036 12.173-19.598 13.438-19.993 13.438l-.474.079-.87-18.339-4.662-6.087-5.453 6.166-1.422 18.418zm6.796-25.849l5.453 7.193.869 17.629c1.975-.396 10.115-2.53 18.65-12.648l-14.462-6.878-5.215-7.826 9.878-3.083h.079l13.908 3.241c.237-2.213.632-12.015-6.085-20.473l-11.221 12.252-8.377 1.265-1.66-7.431 9.167-16.205c-1.896-.711-9.878-3.241-22.205.079l8.771 14.783v9.327l-8.139.475-.158-.158-12.407-15.415c-1.423 2.371-7.428 12.648-6.559 21.027l16.358-3.162 9.009 2.53-4.426 8.142-16.2 7.114c1.344 1.898 7.35 9.882 17.386 12.964l1.264-17.628 6.322-7.114z"/><path d="M165.595 189.435l-6.48-1.265-11.538-17.074.711-.475 11.301 16.759 5.136 1.028v-5.218l-11.458-16.126.632-.474 11.696 16.284v6.561zm-25.762 20.868l-.237-.791 19.677-6.64 2.291-4.98-5.057-1.502-19.124 6.166-.316-.87 19.44-6.245 6.243 1.898-2.845 6.165-20.072 6.799zm32.795 18.654l-.395-21.58-2.608-3.716-3.24 4.19v21.106h-.79v-21.422l4.03-5.297 3.398 4.901.474 21.818h-.869zm26.552-18.653l-17.86-6.956-4.03-5.138 6.954-1.898 17.939 4.743-.237.87-17.702-4.743-5.532 1.502 3.082 3.952 17.702 6.878-.316.79zm-24.497-20.869l-1.423-5.217 11.854-17.628.711.474-11.616 17.312 1.106 4.032 4.978-1.028 11.301-15.968.711.474-11.458 16.284-6.164 1.265zm-5.137 9.012a2.917 2.917 0 01-2.924-2.925c0-1.66 1.264-2.924 2.924-2.924a2.917 2.917 0 012.924 2.924 2.918 2.918 0 01-2.924 2.925zm0-4.901c-1.106 0-2.055.949-2.055 2.056 0 1.106.949 2.055 2.055 2.055 1.106 0 2.055-.949 2.055-2.055 0-1.107-.949-2.056-2.055-2.056zm.553-2.373c-1.106 0-1.896-.869-1.896-1.897s.869-1.897 1.896-1.897c1.107 0 1.897.869 1.897 1.897s-.869 1.897-1.897 1.897zm0-3.004a1.08 1.08 0 00-1.106 1.107 1.08 1.08 0 001.106 1.107c.632 0 1.107-.474 1.107-1.107 0-.632-.554-1.107-1.107-1.107zm5.848 6.879c-1.106 0-1.897-.869-1.897-1.897s.87-1.897 1.897-1.897c1.106 0 1.896.869 1.896 1.897.079 1.028-.79 1.897-1.896 1.897zm0-3.004a1.08 1.08 0 00-1.106 1.107 1.08 1.08 0 001.106 1.107 1.08 1.08 0 001.106-1.107 1.08 1.08 0 00-1.106-1.107zm-2.213 10.512c-1.106 0-1.897-.869-1.897-1.897 0-1.107.87-1.897 1.897-1.897 1.027 0 1.897.869 1.897 1.897s-.87 1.897-1.897 1.897zm0-3.004a1.08 1.08 0 00-1.106 1.107 1.08 1.08 0 001.106 1.107 1.08 1.08 0 001.106-1.107c-.079-.632-.553-1.107-1.106-1.107zm-7.744 2.926c-1.106 0-1.897-.87-1.897-1.897 0-1.107.87-1.897 1.897-1.897 1.106 0 1.896.869 1.896 1.897 0 1.027-.869 1.897-1.896 1.897zm0-3.083c-.632 0-1.107.474-1.107 1.107a1.08 1.08 0 001.107 1.106 1.08 1.08 0 001.106-1.106c0-.554-.553-1.107-1.106-1.107zm-2.845-3.952c-1.106 0-1.896-.87-1.896-1.897 0-1.107.869-1.898 1.896-1.898 1.106 0 1.897.87 1.897 1.898.079 1.027-.791 1.897-1.897 1.897zm0-3.004a1.08 1.08 0 00-1.106 1.107 1.08 1.08 0 001.106 1.106 1.08 1.08 0 001.106-1.106 1.08 1.08 0 00-1.106-1.107zm-3.793-.871c-12.644-7.984-18.018-3.399-18.097-3.32l-.553-.633c.237-.237 5.848-5.138 19.124 3.241l-.474.712zm12.407-8.301c-.079-7.747-1.739-12.964-5.058-15.415-3.003-2.213-6.243-1.265-6.322-1.265l-.237-.79c.158-.079 3.714-1.028 7.033 1.423 3.556 2.608 5.374 7.984 5.453 16.047h-.869zm13.434 11.858l-.237-.79c10.589-2.293 10.352-13.834 10.352-13.913h.869c0 .079.237 12.332-10.984 14.703zm2.845 21.423c-7.666 0-13.355-8.932-13.434-9.011l.711-.475c.079.159 8.139 12.807 17.701 7.194l.395.711c-1.817 1.107-3.635 1.581-5.373 1.581zm-29.476 7.59c-7.349-9.565 1.817-20.078 1.896-20.158l.632.554c-.079.079-8.771 10.039-1.896 19.051l-.632.553zm113.083-107.906h-30.898l12.011-10.118c.158-.711.474-1.423.869-2.213 5.69-10.751 18.571-8.854 18.65-8.775l-.158.87c-.158 0-12.407-1.818-17.78 8.379-1.107 2.134-1.265 3.873-.316 5.296 2.844 4.427 14.619 4.269 18.175 4.111h.711l-1.264 2.45zm-28.528-.79h28.054l.395-.712c-5.058.159-15.331-.079-18.176-4.584-.474-.791-.711-1.739-.711-2.688l-9.562 7.984z"/><path d="M261.846 116.236c-10.906-.079-12.802-6.324-12.881-6.561l.79-.237c.079.237 1.818 5.849 12.091 5.928v.87zm-51.05 22.687l-10.352-6.245 70.727-2.213-.316.632c-.079.237-2.608 5.218-8.456 6.008l-51.603 1.818zm-7.428-5.533l7.666 4.664 51.286-1.898c4.109-.474 6.559-3.478 7.428-4.822l-66.38 2.056zm156.231 2.843h-26.473a2.75 2.75 0 01-2.766-2.767 2.75 2.75 0 012.766-2.767h26.473a2.75 2.75 0 012.766 2.767c0 1.502-1.265 2.767-2.766 2.767zm-26.473-4.743a1.956 1.956 0 00-1.976 1.976c0 1.107.869 1.976 1.976 1.976h26.473a1.956 1.956 0 001.975-1.976 1.956 1.956 0 00-1.975-1.976h-26.473z"/><path d="M338.42 131.255l-.79-.316c.079-.158 1.896-4.111 8.693-4.032 6.875.079 7.27 3.953 7.27 4.111l-.87.079c0-.158-.395-3.241-6.48-3.32-6.084-.158-7.744 3.32-7.823 3.478zm6.954 8.3c-5.452 0-7.586-3.399-7.744-3.557l.711-.475c.079.159 2.292 3.479 7.902 3.083 5.532-.395 6.243-2.924 6.243-3.004l.87.159c0 .158-.791 3.162-7.033 3.636-.238.158-.633.158-.949.158zm12.17-8.461h-.869v4.743h.869v-4.743zm123.357 1.584h-26.474a2.749 2.749 0 01-2.765-2.767 2.748 2.748 0 012.765-2.766h26.474a2.748 2.748 0 012.765 2.766c.079 1.502-1.185 2.767-2.765 2.767zm-26.395-4.743c-1.106 0-1.975.87-1.975 1.976 0 1.107.869 1.977 1.975 1.977h26.474c1.106 0 1.975-.87 1.975-1.977a1.957 1.957 0 00-1.975-1.976h-26.474z"/><path d="M459.801 127.697l-.79-.317c.079-.158 1.896-4.11 8.692-4.031 6.876.079 7.271 3.952 7.271 4.11l-.87.079c0-.158-.395-3.241-6.48-3.32h-.237c-5.927 0-7.507 3.32-7.586 3.479zm6.954 8.299c-5.453 0-7.586-3.399-7.744-3.557l.711-.474c.079.158 2.213 3.478 7.902 3.083 5.532-.395 6.243-2.925 6.243-3.004l.87.158c0 .158-.791 3.162-7.034 3.636-.316.158-.632.158-.948.158zm12.17-8.457h-.869v4.743h.869v-4.743zm-374.337 25.453H89.416l4.662-6.482h8.218l5.216-5.059.553.553-5.452 5.376h-8.06l-3.478 4.822h13.197l11.775-11.225.553.632-12.012 11.383zm-12.723-4.981h-13.75v-.87h12.96v-.869l-12.96-.317v-.869l13.75.395v2.53zm-.711 45.849c-6.243 0-13.671-.553-14.935-2.925l-.08-.158-1.659-10.355 9.64.948.08.317c0 .158.711 3.557 4.662 3.241l4.347-.316.079.869-4.347.316c-3.95.237-5.215-2.687-5.452-3.636l-7.903-.791 1.423 9.17c1.738 2.925 16.832 2.53 22.522 2.135l.079.869c-.79.079-4.347.316-8.456.316zm518.95-71.38c-9.166 0-16.278-.079-16.437-.079v-.87c.159 0 16.2.237 31.215 0v.87c-4.979.079-10.115.079-14.778.079z"/><path d="M626.146 134.019h-9.878c-7.112-3.082-6.954-11.936-6.954-12.015h.869c0 .079-.158 8.3 6.322 11.146h9.641v.869z"/><path d="M626.146 130.067h-5.61c-4.425-.316-4.742-7.747-4.742-8.063h.87c0 .079.237 6.956 3.872 7.193h5.61v.87zm-13.275 1.425c-3.082-.317-3.952-2.925-4.663-4.822-.237-.712-.474-1.423-.79-1.819-.632-.869-6.875-1.106-12.486-.79v-.87c1.976-.079 11.933-.474 13.197 1.186.395.474.632 1.186.948 2.055.633 1.898 1.344 3.953 3.952 4.269l-.158.791z"/><path d="M616.743 136.232c-7.507-.79-9.325-5.691-10.431-8.616l-.079-.316c-.791-2.135-7.192-1.739-9.641-1.423l-.079-.87c.948-.158 9.325-1.186 10.51 1.976l.079.317c1.106 2.924 2.766 7.351 9.72 8.063l-.079.869z"/></g><path d="M67.365 0v294.5M0 55h401M0 240h371" stroke="#2285E0" stroke-width=".5"/><defs><clipPath id="clip0_261_1841"><path fill="#fff" transform="translate(68 56)" d="M0 0h570v183H0z"/></clipPath></defs></svg>