<svg width="638" height="295" viewBox="0 0 638 295" fill="none" xmlns="http://www.w3.org/2000/svg">
<g clip-path="url(#clip0_261_1841)">
<path d="M219.015 215.6L217.593 210.698V210.619C217.83 190.146 211.508 172.755 211.429 172.597C206.924 160.107 194.992 150.621 179.503 147.143C162.276 143.269 144.812 147.617 133.906 158.447C111.859 180.264 121.816 208.801 121.974 209.117L122.211 209.75H121.579C79.0637 207.457 68.8696 198.525 68.3954 198.13L68.3164 198.051V197.892C67.8422 195.837 68.0003 194.414 68.8696 193.545C69.6598 192.754 70.8452 192.833 71.4773 192.912L71.9515 178.604L69.6598 177.181V176.944C69.6598 160.265 76.5349 152.202 77.6412 151.016L77.7202 146.352C77.1671 143.427 81.1973 140.186 81.8295 139.712C94.7894 116.946 189.223 110.938 193.253 110.701C202.736 109.831 213.721 104.772 213.8 104.772C214.116 104.614 247.701 87.3019 277.73 74.4959C297.644 66.0376 318.585 60.7412 339.922 58.6069C372.875 55.3659 436.647 52.2829 493.07 67.9348C493.465 68.0138 533.768 79.7132 573.201 97.4993C575.018 97.6574 610.342 100.978 621.168 102.638C621.326 102.638 624.803 103.191 625.119 109.199V109.357L625.04 109.436C624.25 110.701 622.591 114.337 623.855 115.76C625.594 117.815 626.937 138.842 627.095 141.609C627.49 142.479 631.362 149.751 635.788 154.02L635.867 154.099V154.257C635.946 154.81 638.632 167.221 634.839 172.913C635.867 174.098 639.739 179.316 636.894 184.691C637.052 185.403 637.526 188.011 634.918 190.857C634.444 191.806 628.675 200.185 582.921 206.509L570.04 207.695L570.119 207.141C572.964 191.806 567.274 176.865 567.195 176.707C552.891 141.451 513.458 148.565 513.063 148.644C489.356 154.336 480.031 170.462 476.317 182.952C472.287 196.549 473.947 208.959 473.947 209.038C474.421 210.461 474.263 211.647 473.551 212.438C472.208 213.94 469.284 213.386 469.126 213.386L219.015 215.6ZM218.462 210.619L219.647 214.73L469.363 212.596C469.442 212.596 472.05 213.07 473.077 211.884C473.551 211.331 473.63 210.461 473.235 209.276C473.235 209.117 471.576 196.549 475.606 182.794C479.32 170.067 488.882 153.704 512.984 147.854C513.379 147.775 553.603 140.502 568.143 176.391C568.222 176.549 573.912 191.331 571.225 206.746L582.921 205.639C629.466 199.236 634.207 190.541 634.286 190.462L634.365 190.383C636.973 187.458 636.183 184.928 636.104 184.849L636.025 184.691L636.104 184.533C639.186 178.841 634.128 173.387 634.049 173.308L633.812 173.071L634.049 172.755C637.684 167.854 635.393 155.996 635.155 154.652C630.335 150.067 626.463 142.4 626.305 142.083L626.226 141.925C625.673 132.439 624.408 117.815 623.223 116.471C621.484 114.416 623.776 109.989 624.25 109.199C623.934 104.06 621.168 103.586 621.089 103.586C610.105 101.926 573.438 98.4479 573.122 98.4479H572.964C533.61 80.5037 493.307 68.8834 492.912 68.8043C436.568 53.1525 372.954 56.2354 340.001 59.4765C318.664 61.5317 297.881 66.9071 278.046 75.3654C248.096 88.1715 214.511 105.483 214.195 105.641C214.037 105.721 202.973 110.859 193.332 111.728C192.305 111.807 95.1055 117.973 82.5407 140.344L82.4617 140.502C82.3827 140.502 78.1154 143.822 78.5895 146.352V146.431L78.5105 151.49L78.3524 151.648C78.2734 151.648 70.6081 159.553 70.5291 176.707L72.8208 178.13L72.1886 194.098L71.6354 193.94C71.6354 193.94 70.1339 193.466 69.3437 194.256C68.7905 194.809 68.6325 195.995 69.0276 197.576C70.1339 198.446 81.4344 206.667 120.867 208.801C119.524 204.533 112.57 178.288 133.274 157.893C144.416 146.826 162.197 142.479 179.661 146.352C195.387 149.909 207.557 159.632 212.14 172.359C212.298 172.597 218.699 190.067 218.462 210.619Z" fill="#2285E0"/>
<path d="M247.78 118.132C237.111 118.132 236.637 117.578 236.4 117.183L236.163 116.867L236.4 116.63C236.479 116.471 247.384 104.377 266.666 91.887C284.526 80.3458 313.37 66.1959 349.879 64.1406C352.091 63.9825 355.489 63.8244 358.097 63.5872L359.757 63.5082C374.139 62.5596 435.699 61.2948 475.053 72.2036C516.461 83.6658 532.345 91.5708 536.296 93.7052C537.877 94.5747 538.746 96.1557 538.588 97.9738C538.509 99.7129 537.402 101.215 535.743 101.847C532.345 103.112 527.287 103.982 520.728 104.219C519.622 104.298 518.516 104.298 517.33 104.377C515.355 104.456 513.3 104.535 511.246 104.614C491.964 105.8 424.082 110.068 360.705 113.468C292.033 117.183 261.451 118.132 247.78 118.132ZM237.427 116.788C246.594 119.396 389.628 111.412 511.246 103.744C513.3 103.586 515.355 103.586 517.33 103.507C518.437 103.507 519.543 103.428 520.649 103.349C527.208 103.112 532.187 102.322 535.427 101.057C536.691 100.582 537.561 99.3967 537.719 97.9738C537.798 96.5509 537.086 95.2071 535.822 94.5747C531.95 92.4404 516.066 84.6144 474.815 73.1522C435.62 62.2434 374.139 63.5872 359.836 64.4568L358.176 64.5358C355.489 64.6939 352.17 64.9311 349.879 65.0892C283.894 68.7255 241.774 112.124 237.427 116.788Z" fill="#2285E0"/>
<path d="M364.419 200.737L362.917 193.385V193.306C363.55 191.093 364.419 177.022 363.945 167.062C363.55 158.208 367.659 114.019 369.872 112.28C371.215 110.936 375.877 84.2176 378.485 67.6172L379.354 67.7753C378.169 75.0479 372.321 111.411 370.425 112.992C368.686 114.731 364.34 156.706 364.814 167.062C365.209 176.31 364.419 190.698 363.787 193.464L365.288 200.658L364.419 200.737Z" fill="#2285E0"/>
<path d="M381.962 109.355L386.783 67.1425H387.178C431.748 65.4825 459.643 72.2017 459.959 72.2808L460.117 72.3598L471.418 90.3831L470.074 105.482L381.962 109.355ZM387.494 67.933L382.911 108.406L469.284 104.612L470.548 90.5412L459.564 72.9922C457.114 72.4389 429.93 66.352 387.494 67.933Z" fill="#2285E0"/>
<path d="M272.277 114.654L272.198 113.785C272.435 113.705 278.204 112.678 277.018 104.852C275.833 96.947 272.277 95.9984 272.198 95.9984L271.329 95.7612L272.04 95.2079C272.435 94.9707 309.102 67.9357 369.792 66.75H370.346L359.44 110.939H359.124L272.277 114.654ZM273.146 95.5241C274.411 96.2355 276.86 98.3699 277.809 104.773C278.599 110.069 276.465 112.599 274.569 113.705L358.65 110.148L369.16 67.6195C313.369 68.8843 278.125 92.0459 273.146 95.5241Z" fill="#2285E0"/>
<path d="M232.528 202.398C229.841 199.552 230.078 190.461 230.078 190.066C230.078 189.671 228.577 147.3 228.577 136.075C228.577 124.692 236.321 116.708 236.4 116.629L237.032 117.261C236.953 117.34 229.446 125.087 229.446 136.075C229.446 147.3 230.947 189.671 230.947 190.066C230.947 190.145 230.789 199.157 233.16 201.765L232.528 202.398Z" fill="#2285E0"/>
<path d="M232.765 196.39L234.346 195.521C234.504 195.442 253.39 185.64 282.313 185.165C311.157 184.77 422.186 181.529 423.292 181.529C423.529 181.529 443.522 180.818 455.139 191.726L455.929 192.438L232.765 196.39ZM424.24 182.399C423.687 182.399 423.371 182.399 423.371 182.399C422.265 182.399 311.157 185.64 282.392 186.035C258.764 186.351 241.853 193.07 236.558 195.442L453.795 191.647C443.759 182.952 428.112 182.399 424.24 182.399Z" fill="#2285E0"/>
<path d="M218.146 109.118C212.298 109.118 209.058 107.774 208.821 107.695L209.137 106.905C209.216 106.905 216.486 109.908 228.814 106.905C234.583 105.482 246.278 99.0787 259.791 91.648C275.438 83.1107 293.139 73.3875 306.415 68.8027C329.253 60.9767 406.381 52.9927 489.356 68.8027L492.912 67.9331L493.07 68.8027L489.356 69.6722H489.277C406.46 53.9413 329.49 61.9253 306.732 69.6722C293.535 74.178 275.833 83.9011 260.265 92.4385C246.752 99.8692 235.057 106.272 229.13 107.774C224.784 108.723 221.149 109.118 218.146 109.118Z" fill="#2285E0"/>
<path d="M618.165 118.528L617.928 114.418C617.77 112.046 613.345 111.967 607.26 111.809C604.257 111.73 600.78 111.73 597.145 111.335C587.82 110.465 586.714 108.41 585.528 106.117C585.212 105.564 584.896 104.932 584.422 104.299C582.13 101.453 573.122 98.2914 573.042 98.2124L573.359 97.4219C573.754 97.58 582.683 100.742 585.133 103.746C585.686 104.378 586.002 105.09 586.319 105.643C587.425 107.777 588.373 109.596 597.303 110.386C600.938 110.702 604.336 110.781 607.339 110.86C614.214 111.018 618.718 111.097 618.876 114.259L619.114 118.37L618.165 118.528Z" fill="#2285E0"/>
<path d="M626.304 136.232H607.655C604.968 135.916 595.169 124.77 593.351 122.161C592.719 121.292 592.64 120.501 592.877 119.79C593.43 118.446 595.643 118.051 595.722 118.051H624.329V118.92H595.88C595.406 118.999 594.063 119.395 593.747 120.185C593.589 120.58 593.668 121.134 594.142 121.687C596.275 124.77 605.679 135.046 607.734 135.363H626.304V136.232Z" fill="#2285E0"/>
<path d="M632.232 155.283C615.399 155.283 595.011 124.612 594.063 123.189L594.774 122.715C595.011 123.11 618.639 158.603 635.393 153.939L635.63 154.73C634.602 155.125 633.417 155.283 632.232 155.283Z" fill="#2285E0"/>
<path d="M467.071 213.07C466.044 186.588 472.366 167.616 487.143 153.388C499.471 141.53 530.449 134.337 556.685 151.569C583.632 169.277 577.863 206.272 577.863 206.667L576.994 206.509C577.073 206.114 582.683 169.672 556.21 152.281C530.369 135.206 499.866 142.321 487.776 153.941C473.235 168.012 466.913 186.746 467.94 212.991L467.071 213.07Z" fill="#2285E0"/>
<path d="M584.817 188.247L585.212 187.535C592.877 174.65 632.705 172.595 634.444 172.516L634.523 173.385C634.128 173.385 595.011 175.361 586.476 187.298C600.543 186.507 634.681 184.136 637.289 181.685L637.842 182.318C634.444 185.559 590.586 188.009 585.607 188.247H584.817Z" fill="#2285E0"/>
<path d="M556.447 152.359L556.368 151.49C556.447 151.49 560.556 151.252 571.146 150.225C581.656 149.197 602.597 134.178 602.834 134.02L603.308 134.731C602.439 135.363 581.893 149.988 571.225 151.094C560.635 152.122 556.526 152.359 556.447 152.359Z" fill="#2285E0"/>
<path d="M534.728 101.416L534.707 102.285L622.714 104.357L622.734 103.488L534.728 101.416Z" fill="#2285E0"/>
<path d="M206.924 120.976L206.055 120.818C208.031 111.964 214.748 108.486 215.064 108.328L215.459 109.119C215.38 109.04 208.742 112.518 206.924 120.976Z" fill="#2285E0"/>
<path d="M78.7475 171.412V170.938C78.7475 170.859 79.0636 166.59 83.4099 166.353C83.884 166.353 84.4372 166.274 85.0694 166.274C89.3367 166.116 96.5279 165.799 98.3454 163.507C99.9259 161.452 102.534 158.527 103.719 157.183L84.5952 157.499C84.3582 157.578 83.2518 157.736 82.3036 157.025C81.4343 156.393 80.8811 155.286 80.7231 153.784C80.565 153.468 79.7748 151.887 77.4041 152.598L77.167 151.808C80.565 150.859 81.5133 153.547 81.5133 153.626V153.705C81.6714 154.97 82.0665 155.918 82.6987 156.393C83.4889 156.946 84.3582 156.788 84.3582 156.788H84.4372L105.537 156.314L104.904 157.025C104.904 157.104 101.032 161.294 98.8986 164.06C96.923 166.669 89.7318 166.985 84.9904 167.143C84.3582 167.143 83.805 167.222 83.3309 167.222C80.486 167.38 79.6958 169.594 79.5377 170.542L84.9904 170.226C95.9747 170.542 101.664 168.013 103.324 165.483C105.062 162.875 126.083 140.82 126.952 139.95C133.353 134.575 142.994 129.674 146.787 127.777C147.34 127.539 147.893 127.223 148.447 126.828L148.763 126.67C159.984 120.109 231.343 119.239 234.346 119.16V120.03C233.634 120.03 160.142 120.899 149.158 127.381L148.842 127.539C148.289 127.856 147.735 128.172 147.103 128.488C143.31 130.306 133.748 135.207 127.426 140.504C127.268 140.662 105.616 163.428 103.956 165.958C103.087 167.301 99.1357 171.491 84.9113 171.096L78.7475 171.412Z" fill="#2285E0"/>
<path d="M112.649 202.555H112.175C82.4621 202.318 68.3958 196.389 68.2378 196.31L68.5539 195.52C68.7119 195.599 82.4621 201.449 111.701 201.686C111.306 197.022 109.409 159.71 142.362 144.533C154.453 138.92 168.282 137.655 181.4 140.897C196.81 144.691 216.487 155.125 222.967 183.346C223.046 183.9 224.468 196.31 224.073 202.081L223.204 202.002C223.599 196.31 222.177 183.583 222.098 183.504C215.697 155.758 196.336 145.481 181.163 141.687C168.282 138.525 154.611 139.79 142.678 145.244C108.224 161.133 112.57 201.607 112.57 202.002L112.649 202.555Z" fill="#2285E0"/>
<path d="M462.962 188.326C457.43 188.326 451.899 186.35 447.236 182.555C440.598 177.259 432.38 175.915 428.824 175.362L428.429 175.283C423.608 174.492 286.897 170.619 262.241 171.33C236.953 172.121 222.966 183.583 222.887 183.741L222.334 183.109C222.492 183.03 236.637 171.251 262.241 170.54C286.897 169.828 423.766 173.702 428.587 174.492L428.982 174.571C432.538 175.125 440.993 176.469 447.789 181.923C453.005 186.113 459.327 188.089 465.491 187.377C468.573 187.061 471.892 186.271 475.29 185.085L475.606 185.876C472.129 187.061 468.731 187.852 465.57 188.247C464.701 188.247 463.831 188.326 462.962 188.326Z" fill="#2285E0"/>
<path d="M82.1454 140.502L82.0664 139.632C82.4615 139.632 124.028 136.944 133.353 135.363L133.511 136.233C124.186 137.814 82.5406 140.502 82.1454 140.502Z" fill="#2285E0"/>
<path d="M87.1239 154.494C84.7532 154.494 83.8049 153.861 83.0937 151.885C82.3825 149.672 78.1942 149.83 78.1152 149.83L78.0361 148.96C78.2732 148.96 82.9356 148.723 83.8839 151.648C84.5951 153.861 85.3854 154.02 91.5492 153.308L107.591 153.703L120.63 141.609L79.0634 143.743L78.9844 142.874L122.922 140.66L107.828 154.652L91.4702 154.257C89.7317 154.336 88.2302 154.494 87.1239 154.494Z" fill="#2285E0"/>
<path d="M108.856 202.319C105.458 197.022 93.3668 182.398 93.2088 182.24C88.6254 175.205 70.3709 175.758 70.1338 175.758V174.888C70.924 174.888 89.0995 174.256 93.92 181.687C93.999 181.766 106.169 196.469 109.567 201.844L108.856 202.319Z" fill="#2285E0"/>
<path d="M96.9227 196.391C89.0994 196.391 74.4009 195.838 73.4526 191.648L71.9512 177.973H72.4253C73.0575 177.894 88.7833 176.945 94.394 185.799C94.394 185.878 100.558 193.624 102.217 195.522L102.454 195.601V195.996C102.454 196.391 102.059 196.391 101.901 196.391C101.743 196.391 99.7676 196.391 96.9227 196.391ZM72.8995 178.842L74.2429 191.648C75.1912 195.759 96.2906 195.838 101.032 195.601C98.9774 193.15 93.8408 186.668 93.6037 186.352C88.7833 178.605 75.5073 178.684 72.8995 178.842Z" fill="#2285E0"/>
<path d="M522.23 239C498.523 239 479.241 219.553 479.241 195.601C479.241 171.649 498.523 152.203 522.23 152.203C545.937 152.203 565.219 171.649 565.219 195.601C565.219 219.553 545.937 239 522.23 239ZM522.23 152.994C498.997 152.994 480.11 172.045 480.11 195.522C480.11 219 498.997 238.051 522.23 238.051C545.463 238.051 564.35 219 564.35 195.522C564.35 172.045 545.463 152.994 522.23 152.994Z" fill="#2285E0"/>
<path d="M522.704 229.593C504.371 229.593 489.356 214.494 489.356 195.917C489.356 177.341 504.291 162.242 522.704 162.242C541.117 162.242 556.052 177.341 556.052 195.917C555.973 214.494 541.038 229.593 522.704 229.593ZM522.704 163.112C504.845 163.112 490.225 177.815 490.225 195.917C490.225 214.02 504.766 228.723 522.704 228.723C540.643 228.723 555.183 214.02 555.183 195.917C555.104 177.815 540.563 163.112 522.704 163.112Z" fill="#2285E0"/>
<path d="M218.066 202.556V201.687L447.552 200.185C448.026 200.185 458.852 200.58 463.673 185.719V185.639L496.231 127.775C496.31 127.617 502.237 119.554 497.732 113.467L492.596 105.562C486.274 98.843 468.335 71.5708 468.098 71.3337L468.809 70.8594C468.968 71.0965 486.906 98.3687 493.228 105.088L498.364 112.993C503.185 119.554 496.942 128.17 496.863 128.249L464.305 186.035C459.327 201.528 447.473 201.133 447.394 201.054L218.066 202.556Z" fill="#2285E0"/>
<path d="M479.478 104.377L470.548 90.7017L471.259 90.2274L479.952 103.429L526.339 101.373C526.892 101.057 530.527 99.0019 530.764 94.9704C527.05 93.5475 488.407 78.2909 470.943 74.9708L459.801 72.9945L459.959 72.125L471.022 74.1803C489.435 77.5794 530.922 94.1799 531.318 94.338L531.555 94.417V94.7332C531.476 99.7924 526.813 102.085 526.576 102.243L526.418 102.322L479.478 104.377Z" fill="#2285E0"/>
<path d="M369.795 66.7985L369.781 67.668L387.164 67.9429L387.178 67.0734L369.795 66.7985Z" fill="#2285E0"/>
<path d="M382.375 108.437L359.045 110.125L359.108 110.992L382.438 109.304L382.375 108.437Z" fill="#2285E0"/>
<path d="M479.642 103.518L469.588 104.625L469.683 105.489L479.737 104.382L479.642 103.518Z" fill="#2285E0"/>
<path d="M516.303 225.796L515.829 225.638C503.817 222.16 497.258 211.804 497.179 211.725L496.942 211.33L513.774 203.899L517.488 197.022L509.744 194.809L492.675 198.129L492.596 197.655C491.331 187.773 499.234 175.6 499.55 175.046L499.866 174.572L512.905 190.698L519.78 190.303V182.003L510.534 166.509L511.087 166.351C525.865 162.319 534.558 166.193 534.874 166.351L535.269 166.509L525.786 183.268L527.129 189.591L534.479 188.485L546.174 175.679L546.49 176.074C554.709 186.034 553.049 197.971 553.049 198.05L552.97 198.524L538.272 195.125L529.737 197.813L534.242 204.532L549.493 211.804L549.177 212.2C539.141 224.373 529.579 225.638 529.184 225.638L528.71 225.717L527.841 207.378L523.178 201.291L517.725 207.457L516.303 225.796ZM523.099 199.947L528.552 207.141V207.299L529.421 224.848C531.397 224.452 539.536 222.318 548.071 212.2L533.609 205.322L528.394 197.496L538.272 194.414L552.259 197.655C552.496 195.441 552.891 185.639 546.174 177.181L534.953 189.433L526.576 190.698L524.917 183.268L534.083 167.062C532.187 166.351 524.205 163.821 511.878 167.141L520.649 181.924V191.172L512.51 191.647L499.945 176.074C498.523 178.445 492.517 188.722 493.386 197.101L509.744 193.939L518.753 196.469L514.327 204.611L514.169 204.69L498.128 211.804C499.471 213.702 505.477 221.686 515.513 224.769L516.777 207.141L523.099 199.947Z" fill="#2285E0"/>
<path d="M518.753 189.435L512.273 188.17L500.735 171.096L501.447 170.621L512.747 187.38L517.884 188.408V183.19L506.425 167.064L507.057 166.59L518.753 182.874V189.435Z" fill="#2285E0"/>
<path d="M492.991 210.303L492.754 209.512L512.431 202.872L514.723 197.892L509.665 196.39L490.541 202.556L490.225 201.686L509.665 195.441L515.908 197.339L513.063 203.504L492.991 210.303Z" fill="#2285E0"/>
<path d="M525.786 228.957L525.391 207.377L522.783 203.661L519.543 207.851V228.957H518.674V207.535L522.783 202.238L526.181 207.139L526.655 228.957H525.786Z" fill="#2285E0"/>
<path d="M552.338 210.304L534.479 203.348L530.37 198.21L537.403 196.312H537.482L555.341 201.055L555.104 201.925L537.403 197.182L531.871 198.684L534.953 202.636L552.654 209.514L552.338 210.304Z" fill="#2285E0"/>
<path d="M527.841 189.435L526.418 184.218L538.272 166.59L538.983 167.064L527.288 184.376L528.473 188.408L533.452 187.38L544.752 171.412L545.463 171.886L534.005 188.17L527.841 189.435Z" fill="#2285E0"/>
<path d="M522.704 198.447C521.124 198.447 519.78 197.183 519.78 195.522C519.78 193.862 521.045 192.598 522.704 192.598C524.364 192.598 525.628 193.862 525.628 195.522C525.628 197.183 524.285 198.447 522.704 198.447ZM522.704 193.546C521.598 193.546 520.65 194.495 520.65 195.602C520.65 196.708 521.598 197.657 522.704 197.657C523.81 197.657 524.759 196.708 524.759 195.602C524.68 194.495 523.81 193.546 522.704 193.546Z" fill="#2285E0"/>
<path d="M523.257 191.173C522.151 191.173 521.361 190.304 521.361 189.276C521.361 188.248 522.23 187.379 523.257 187.379C524.285 187.379 525.154 188.248 525.154 189.276C525.154 190.304 524.285 191.173 523.257 191.173ZM523.257 188.169C522.625 188.169 522.151 188.644 522.151 189.276C522.151 189.909 522.625 190.383 523.257 190.383C523.89 190.383 524.364 189.909 524.364 189.276C524.364 188.644 523.811 188.169 523.257 188.169Z" fill="#2285E0"/>
<path d="M529.105 195.048C527.999 195.048 527.208 194.179 527.208 193.151C527.208 192.123 528.078 191.254 529.105 191.254C530.211 191.254 531.002 192.123 531.002 193.151C531.081 194.179 530.211 195.048 529.105 195.048ZM529.105 192.044C528.473 192.044 527.999 192.519 527.999 193.151C527.999 193.783 528.473 194.258 529.105 194.258C529.737 194.258 530.211 193.783 530.211 193.151C530.211 192.519 529.737 192.044 529.105 192.044Z" fill="#2285E0"/>
<path d="M526.893 202.556C525.786 202.556 524.996 201.687 524.996 200.659C524.996 199.552 525.865 198.762 526.893 198.762C527.999 198.762 528.789 199.631 528.789 200.659C528.789 201.687 527.92 202.556 526.893 202.556ZM526.893 199.552C526.26 199.552 525.786 200.027 525.786 200.659C525.786 201.291 526.26 201.766 526.893 201.766C527.525 201.766 527.999 201.291 527.999 200.659C527.92 200.027 527.446 199.552 526.893 199.552Z" fill="#2285E0"/>
<path d="M519.148 202.478C518.042 202.478 517.251 201.608 517.251 200.581C517.251 199.474 518.121 198.684 519.148 198.684C520.254 198.684 521.045 199.553 521.045 200.581C521.045 201.608 520.175 202.478 519.148 202.478ZM519.148 199.395C518.516 199.395 518.042 199.869 518.042 200.502C518.042 201.134 518.516 201.608 519.148 201.608C519.78 201.608 520.254 201.134 520.254 200.502C520.254 199.948 519.701 199.395 519.148 199.395Z" fill="#2285E0"/>
<path d="M516.303 195.443C515.197 195.443 514.407 194.573 514.407 193.546C514.407 192.439 515.276 191.648 516.303 191.648C517.41 191.648 518.2 192.518 518.2 193.546C518.279 194.573 517.41 195.443 516.303 195.443ZM516.303 192.439C515.671 192.439 515.197 192.913 515.197 193.546C515.197 194.178 515.671 194.652 516.303 194.652C516.935 194.652 517.41 194.178 517.41 193.546C517.41 192.913 516.935 192.439 516.303 192.439Z" fill="#2285E0"/>
<path d="M512.51 191.568C499.866 183.584 494.413 188.169 494.413 188.248L493.86 187.615C494.097 187.378 499.708 182.477 512.984 190.856L512.51 191.568Z" fill="#2285E0"/>
<path d="M524.917 183.267C524.838 175.52 523.178 170.303 519.859 167.852C516.856 165.639 513.616 166.587 513.537 166.587L513.3 165.797C513.458 165.718 517.014 164.769 520.333 167.22C523.889 169.828 525.707 175.204 525.786 183.267H524.917Z" fill="#2285E0"/>
<path d="M538.351 195.126L538.193 194.256C548.782 191.964 548.545 180.423 548.545 180.344H549.414C549.335 180.502 549.572 192.755 538.351 195.126Z" fill="#2285E0"/>
<path d="M541.196 216.548C533.53 216.548 527.841 207.616 527.762 207.537L528.473 207.062C528.552 207.221 536.612 219.869 546.174 214.256L546.569 214.967C544.752 216.074 542.934 216.548 541.196 216.548Z" fill="#2285E0"/>
<path d="M511.72 224.138C504.371 214.573 513.537 204.06 513.617 203.98L514.249 204.534C514.17 204.613 505.477 214.573 512.352 223.585L511.72 224.138Z" fill="#2285E0"/>
<path d="M169.072 239C145.364 239 126.083 219.553 126.083 195.601C126.083 171.649 145.364 152.203 169.072 152.203C192.779 152.203 212.061 171.649 212.061 195.601C212.061 219.553 192.779 239 169.072 239ZM169.072 152.994C145.839 152.994 126.952 172.045 126.952 195.522C126.952 219 145.839 238.051 169.072 238.051C192.305 238.051 211.191 219 211.191 195.522C211.191 172.045 192.305 152.994 169.072 152.994Z" fill="#2285E0"/>
<path d="M169.546 229.593C151.212 229.593 136.198 214.494 136.198 195.917C136.198 177.341 151.133 162.242 169.546 162.242C187.879 162.242 202.894 177.341 202.894 195.917C202.815 214.494 187.879 229.593 169.546 229.593ZM169.546 163.112C151.686 163.112 137.067 177.815 137.067 195.917C137.067 214.02 151.607 228.723 169.546 228.723C187.405 228.723 202.025 214.02 202.025 195.917C201.946 177.815 187.405 163.112 169.546 163.112Z" fill="#2285E0"/>
<path d="M163.145 225.797L162.671 225.639C150.659 222.161 144.1 211.805 144.021 211.726L143.784 211.331L160.616 203.9L164.33 197.023L156.586 194.81L139.517 198.13L139.438 197.655C138.173 187.774 146.076 175.601 146.392 175.047L146.708 174.573L159.747 190.699L166.622 190.304V182.004L157.376 166.431L157.929 166.273C172.707 162.241 181.399 166.115 181.715 166.273L182.111 166.431L172.628 183.189L173.971 189.513L181.32 188.407L193.016 175.601L193.332 175.996C201.551 185.956 199.891 197.893 199.891 197.972L199.812 198.446L185.114 195.047L176.579 197.735L181.083 204.454L196.335 211.726L196.019 212.122C185.983 224.295 176.421 225.56 176.026 225.56L175.552 225.639L174.682 207.3L170.02 201.213L164.567 207.379L163.145 225.797ZM169.941 199.948L175.394 207.141L176.263 224.77C178.238 224.374 186.378 222.24 194.913 212.122L180.451 205.244L175.236 197.418L185.114 194.335H185.193L199.101 197.576C199.338 195.363 199.733 185.561 193.016 177.103L181.795 189.355L173.418 190.62L171.758 183.189L180.925 166.984C179.029 166.273 171.047 163.743 158.72 167.063L167.491 181.846V191.173L159.352 191.648L159.194 191.49L146.787 176.075C145.364 178.446 139.359 188.723 140.228 197.102L156.586 193.94L165.595 196.47L161.169 204.612L144.969 211.726C146.313 213.624 152.319 221.608 162.355 224.69L163.619 207.062L169.941 199.948Z" fill="#2285E0"/>
<path d="M165.595 189.435L159.115 188.17L147.577 171.096L148.288 170.621L159.589 187.38L164.725 188.408V183.19L153.267 167.064L153.899 166.59L165.595 182.874V189.435Z" fill="#2285E0"/>
<path d="M139.833 210.303L139.596 209.512L159.273 202.872L161.564 197.892L156.507 196.39L137.383 202.556L137.067 201.686L156.507 195.441L162.75 197.339L159.905 203.504L139.833 210.303Z" fill="#2285E0"/>
<path d="M172.628 228.957L172.233 207.377L169.625 203.661L166.385 207.851V228.957H165.595V207.535L169.625 202.238L173.023 207.139L173.497 228.957H172.628Z" fill="#2285E0"/>
<path d="M199.18 210.304L181.32 203.348L177.29 198.21L184.244 196.312L202.183 201.055L201.946 201.925L184.244 197.182L178.712 198.684L181.794 202.636L199.496 209.514L199.18 210.304Z" fill="#2285E0"/>
<path d="M174.683 189.435L173.26 184.218L185.114 166.59L185.825 167.064L174.209 184.376L175.315 188.408L180.293 187.38L191.594 171.412L192.305 171.886L180.847 188.17L174.683 189.435Z" fill="#2285E0"/>
<path d="M169.546 198.447C167.965 198.447 166.622 197.183 166.622 195.522C166.622 193.862 167.886 192.598 169.546 192.598C171.126 192.598 172.47 193.862 172.47 195.522C172.47 197.183 171.126 198.447 169.546 198.447ZM169.546 193.546C168.44 193.546 167.491 194.495 167.491 195.602C167.491 196.708 168.44 197.657 169.546 197.657C170.652 197.657 171.601 196.708 171.601 195.602C171.601 194.495 170.652 193.546 169.546 193.546Z" fill="#2285E0"/>
<path d="M170.099 191.173C168.993 191.173 168.203 190.304 168.203 189.276C168.203 188.248 169.072 187.379 170.099 187.379C171.206 187.379 171.996 188.248 171.996 189.276C171.996 190.304 171.127 191.173 170.099 191.173ZM170.099 188.169C169.467 188.169 168.993 188.644 168.993 189.276C168.993 189.909 169.467 190.383 170.099 190.383C170.731 190.383 171.206 189.909 171.206 189.276C171.206 188.644 170.652 188.169 170.099 188.169Z" fill="#2285E0"/>
<path d="M175.947 195.048C174.841 195.048 174.05 194.179 174.05 193.151C174.05 192.123 174.92 191.254 175.947 191.254C177.053 191.254 177.843 192.123 177.843 193.151C177.922 194.179 177.053 195.048 175.947 195.048ZM175.947 192.044C175.315 192.044 174.841 192.519 174.841 193.151C174.841 193.783 175.315 194.258 175.947 194.258C176.579 194.258 177.053 193.783 177.053 193.151C177.053 192.519 176.579 192.044 175.947 192.044Z" fill="#2285E0"/>
<path d="M173.734 202.556C172.628 202.556 171.837 201.687 171.837 200.659C171.837 199.552 172.707 198.762 173.734 198.762C174.761 198.762 175.631 199.631 175.631 200.659C175.631 201.687 174.761 202.556 173.734 202.556ZM173.734 199.552C173.102 199.552 172.628 200.027 172.628 200.659C172.628 201.291 173.102 201.766 173.734 201.766C174.366 201.766 174.84 201.291 174.84 200.659C174.761 200.027 174.287 199.552 173.734 199.552Z" fill="#2285E0"/>
<path d="M165.99 202.478C164.884 202.478 164.093 201.608 164.093 200.581C164.093 199.474 164.963 198.684 165.99 198.684C167.096 198.684 167.886 199.553 167.886 200.581C167.886 201.608 167.017 202.478 165.99 202.478ZM165.99 199.395C165.358 199.395 164.883 199.869 164.883 200.502C164.883 201.134 165.358 201.608 165.99 201.608C166.622 201.608 167.096 201.134 167.096 200.502C167.096 199.948 166.543 199.395 165.99 199.395Z" fill="#2285E0"/>
<path d="M163.145 195.443C162.039 195.443 161.249 194.573 161.249 193.546C161.249 192.439 162.118 191.648 163.145 191.648C164.251 191.648 165.042 192.518 165.042 193.546C165.121 194.573 164.251 195.443 163.145 195.443ZM163.145 192.439C162.513 192.439 162.039 192.913 162.039 193.546C162.039 194.178 162.513 194.652 163.145 194.652C163.777 194.652 164.251 194.178 164.251 193.546C164.251 192.913 163.777 192.439 163.145 192.439Z" fill="#2285E0"/>
<path d="M159.352 191.568C146.708 183.584 141.334 188.169 141.255 188.248L140.702 187.615C140.939 187.378 146.55 182.477 159.826 190.856L159.352 191.568Z" fill="#2285E0"/>
<path d="M171.759 183.267C171.68 175.52 170.02 170.303 166.701 167.852C163.698 165.639 160.458 166.587 160.379 166.587L160.142 165.797C160.3 165.718 163.856 164.769 167.175 167.22C170.731 169.828 172.549 175.204 172.628 183.267H171.759Z" fill="#2285E0"/>
<path d="M185.193 195.125L184.956 194.335C195.545 192.042 195.308 180.501 195.308 180.422H196.177C196.177 180.501 196.414 192.754 185.193 195.125Z" fill="#2285E0"/>
<path d="M188.038 216.548C180.372 216.548 174.683 207.616 174.604 207.537L175.315 207.062C175.394 207.221 183.454 219.869 193.016 214.256L193.411 214.967C191.594 216.074 189.776 216.548 188.038 216.548Z" fill="#2285E0"/>
<path d="M158.562 224.138C151.213 214.573 160.379 204.06 160.458 203.98L161.09 204.534C161.011 204.613 152.319 214.573 159.194 223.585L158.562 224.138Z" fill="#2285E0"/>
<path d="M271.645 116.232H240.747L252.758 106.114C252.916 105.403 253.232 104.691 253.627 103.901C259.317 93.1499 272.198 95.0471 272.277 95.1262L272.119 95.9957C271.961 95.9957 259.712 94.1776 254.339 104.375C253.232 106.509 253.074 108.248 254.023 109.671C256.867 114.098 268.642 113.94 272.198 113.782H272.909L271.645 116.232ZM243.117 115.442H271.171L271.566 114.73C266.508 114.889 256.235 114.651 253.39 110.146C252.916 109.355 252.679 108.407 252.679 107.458L243.117 115.442Z" fill="#2285E0"/>
<path d="M261.846 116.236C250.94 116.157 249.044 109.912 248.965 109.675L249.755 109.438C249.834 109.675 251.573 115.287 261.846 115.366V116.236Z" fill="#2285E0"/>
<path d="M210.796 138.923L200.444 132.678L271.171 130.465L270.855 131.097C270.776 131.334 268.247 136.315 262.399 137.105L210.796 138.923ZM203.368 133.39L211.034 138.054L262.32 136.156C266.429 135.682 268.879 132.678 269.748 131.334L203.368 133.39Z" fill="#2285E0"/>
<path d="M359.599 136.233H333.126C331.545 136.233 330.36 134.968 330.36 133.466C330.36 131.885 331.624 130.699 333.126 130.699H359.599C361.179 130.699 362.365 131.964 362.365 133.466C362.365 134.968 361.1 136.233 359.599 136.233ZM333.126 131.49C332.019 131.49 331.15 132.359 331.15 133.466C331.15 134.573 332.019 135.442 333.126 135.442H359.599C360.705 135.442 361.574 134.573 361.574 133.466C361.574 132.359 360.705 131.49 359.599 131.49H333.126Z" fill="#2285E0"/>
<path d="M338.42 131.255L337.63 130.939C337.709 130.781 339.526 126.828 346.323 126.907C353.198 126.986 353.593 130.86 353.593 131.018L352.723 131.097C352.723 130.939 352.328 127.856 346.243 127.777C340.159 127.619 338.499 131.097 338.42 131.255Z" fill="#2285E0"/>
<path d="M345.374 139.555C339.922 139.555 337.788 136.156 337.63 135.998L338.341 135.523C338.42 135.682 340.633 139.002 346.243 138.606C351.775 138.211 352.486 135.682 352.486 135.602L353.356 135.761C353.356 135.919 352.565 138.923 346.323 139.397C346.085 139.555 345.69 139.555 345.374 139.555Z" fill="#2285E0"/>
<path d="M357.544 131.094H356.675V135.837H357.544V131.094Z" fill="#2285E0"/>
<path d="M480.901 132.678H454.427C452.847 132.678 451.662 131.413 451.662 129.911C451.662 128.33 452.926 127.145 454.427 127.145H480.901C482.481 127.145 483.666 128.409 483.666 129.911C483.745 131.413 482.481 132.678 480.901 132.678ZM454.506 127.935C453.4 127.935 452.531 128.805 452.531 129.911C452.531 131.018 453.4 131.888 454.506 131.888H480.98C482.086 131.888 482.955 131.018 482.955 129.911C482.955 128.805 482.086 127.935 480.98 127.935H454.506Z" fill="#2285E0"/>
<path d="M459.801 127.697L459.011 127.38C459.09 127.222 460.907 123.27 467.703 123.349C474.579 123.428 474.974 127.301 474.974 127.459L474.104 127.538C474.104 127.38 473.709 124.297 467.624 124.218C467.545 124.218 467.466 124.218 467.387 124.218C461.46 124.218 459.88 127.538 459.801 127.697Z" fill="#2285E0"/>
<path d="M466.755 135.996C461.302 135.996 459.169 132.597 459.011 132.439L459.722 131.965C459.801 132.123 461.935 135.443 467.624 135.048C473.156 134.653 473.867 132.123 473.867 132.044L474.737 132.202C474.737 132.36 473.946 135.364 467.703 135.838C467.387 135.996 467.071 135.996 466.755 135.996Z" fill="#2285E0"/>
<path d="M478.925 127.539H478.056V132.282H478.925V127.539Z" fill="#2285E0"/>
<path d="M104.588 152.992H89.4155L94.0779 146.51H102.296L107.512 141.451L108.065 142.004L102.613 147.38H94.5521L91.075 152.202H104.272L116.047 140.977L116.6 141.609L104.588 152.992Z" fill="#2285E0"/>
<path d="M91.8654 148.011H78.1152V147.141H91.0752V146.272L78.1152 145.955V145.086L91.8654 145.481V148.011Z" fill="#2285E0"/>
<path d="M91.154 193.86C84.9111 193.86 77.4829 193.307 76.2185 190.935L76.1395 190.777L74.48 180.422L84.1209 181.37L84.1999 181.687C84.1999 181.845 84.9111 185.244 88.8623 184.928L93.2087 184.612L93.2877 185.481L88.9414 185.797C84.9902 186.034 83.7258 183.11 83.4887 182.161L75.5863 181.37L77.0087 190.54C78.7473 193.465 93.8409 193.07 99.5306 192.675L99.6096 193.544C98.8194 193.623 95.2633 193.86 91.154 193.86Z" fill="#2285E0"/>
<path d="M610.104 122.48C600.938 122.48 593.826 122.401 593.667 122.401V121.531C593.826 121.531 609.867 121.768 624.882 121.531V122.401C619.903 122.48 614.767 122.48 610.104 122.48Z" fill="#2285E0"/>
<path d="M626.146 134.019H616.268C609.156 130.937 609.314 122.083 609.314 122.004H610.183C610.183 122.083 610.025 130.304 616.505 133.15H626.146V134.019Z" fill="#2285E0"/>
<path d="M626.146 130.067H620.536C616.111 129.751 615.794 122.32 615.794 122.004H616.664C616.664 122.083 616.901 128.96 620.536 129.197H626.146V130.067Z" fill="#2285E0"/>
<path d="M612.871 131.492C609.789 131.175 608.919 128.567 608.208 126.67C607.971 125.958 607.734 125.247 607.418 124.851C606.786 123.982 600.543 123.745 594.932 124.061V123.191C596.908 123.112 606.865 122.717 608.129 124.377C608.524 124.851 608.761 125.563 609.077 126.432C609.71 128.33 610.421 130.385 613.029 130.701L612.871 131.492Z" fill="#2285E0"/>
<path d="M616.743 136.232C609.236 135.442 607.418 130.541 606.312 127.616L606.233 127.3C605.442 125.165 599.041 125.561 596.592 125.877L596.513 125.007C597.461 124.849 605.838 123.821 607.023 126.983L607.102 127.3C608.208 130.224 609.868 134.651 616.822 135.363L616.743 136.232Z" fill="#2285E0"/>
</g>
<path d="M67.3647 0V294.5" stroke="#2285E0" stroke-width="0.5"/>
<path d="M0 55H401" stroke="#2285E0" stroke-width="0.5"/>
<path d="M0 240H371" stroke="#2285E0" stroke-width="0.5"/>
<defs>
<clipPath id="clip0_261_1841">
<rect width="570" height="183" fill="white" transform="translate(68 56)"/>
</clipPath>
</defs>
</svg>
